%TF.GenerationSoftware,KiCad,Pcbnew,6.0.8-f2edbf62ab~116~ubuntu22.04.1*%
%TF.CreationDate,2022-10-14T18:08:29+02:00*%
%TF.ProjectId,bms,626d732e-6b69-4636-9164-5f7063625858,rev?*%
%TF.SameCoordinates,Original*%
%TF.FileFunction,Copper,L2,Bot*%
%TF.FilePolarity,Positive*%
%FSLAX46Y46*%
G04 Gerber Fmt 4.6, Leading zero omitted, Abs format (unit mm)*
G04 Created by KiCad (PCBNEW 6.0.8-f2edbf62ab~116~ubuntu22.04.1) date 2022-10-14 18:08:29*
%MOMM*%
%LPD*%
G01*
G04 APERTURE LIST*
G04 Aperture macros list*
%AMRoundRect*
0 Rectangle with rounded corners*
0 $1 Rounding radius*
0 $2 $3 $4 $5 $6 $7 $8 $9 X,Y pos of 4 corners*
0 Add a 4 corners polygon primitive as box body*
4,1,4,$2,$3,$4,$5,$6,$7,$8,$9,$2,$3,0*
0 Add four circle primitives for the rounded corners*
1,1,$1+$1,$2,$3*
1,1,$1+$1,$4,$5*
1,1,$1+$1,$6,$7*
1,1,$1+$1,$8,$9*
0 Add four rect primitives between the rounded corners*
20,1,$1+$1,$2,$3,$4,$5,0*
20,1,$1+$1,$4,$5,$6,$7,0*
20,1,$1+$1,$6,$7,$8,$9,0*
20,1,$1+$1,$8,$9,$2,$3,0*%
G04 Aperture macros list end*
%TA.AperFunction,ComponentPad*%
%ADD10C,0.800000*%
%TD*%
%TA.AperFunction,ComponentPad*%
%ADD11C,6.400000*%
%TD*%
%TA.AperFunction,ComponentPad*%
%ADD12R,1.350000X1.350000*%
%TD*%
%TA.AperFunction,ComponentPad*%
%ADD13O,1.350000X1.350000*%
%TD*%
%TA.AperFunction,ComponentPad*%
%ADD14C,1.600000*%
%TD*%
%TA.AperFunction,ComponentPad*%
%ADD15RoundRect,0.250000X-1.550000X0.650000X-1.550000X-0.650000X1.550000X-0.650000X1.550000X0.650000X0*%
%TD*%
%TA.AperFunction,ComponentPad*%
%ADD16O,3.600000X1.800000*%
%TD*%
%TA.AperFunction,ViaPad*%
%ADD17C,0.800000*%
%TD*%
%TA.AperFunction,Conductor*%
%ADD18C,0.250000*%
%TD*%
%TA.AperFunction,Conductor*%
%ADD19C,1.000000*%
%TD*%
G04 APERTURE END LIST*
D10*
%TO.P,H4,1,1*%
%TO.N,GND*%
X382000000Y-101600000D03*
X383697056Y-105697056D03*
X383697056Y-102302944D03*
X384400000Y-104000000D03*
D11*
X382000000Y-104000000D03*
D10*
X382000000Y-106400000D03*
X380302944Y-102302944D03*
X380302944Y-105697056D03*
X379600000Y-104000000D03*
%TD*%
%TO.P,H3,1,1*%
%TO.N,GND*%
X382000000Y-143600000D03*
X383697056Y-147697056D03*
X383697056Y-144302944D03*
X384400000Y-146000000D03*
D11*
X382000000Y-146000000D03*
D10*
X382000000Y-148400000D03*
X380302944Y-144302944D03*
X380302944Y-147697056D03*
X379600000Y-146000000D03*
%TD*%
%TO.P,H2,1,1*%
%TO.N,GND*%
X104000000Y-101600000D03*
X105697056Y-105697056D03*
X105697056Y-102302944D03*
X106400000Y-104000000D03*
D11*
X104000000Y-104000000D03*
D10*
X104000000Y-106400000D03*
X102302944Y-102302944D03*
X102302944Y-105697056D03*
X101600000Y-104000000D03*
%TD*%
%TO.P,H1,1,1*%
%TO.N,GND*%
X104000000Y-143600000D03*
X105697056Y-147697056D03*
X105697056Y-144302944D03*
X106400000Y-146000000D03*
D11*
X104000000Y-146000000D03*
D10*
X104000000Y-148400000D03*
X102302944Y-144302944D03*
X102302944Y-147697056D03*
X101600000Y-146000000D03*
%TD*%
D12*
%TO.P,Comm1,1,Pin_1*%
%TO.N,GND*%
X243000000Y-138000000D03*
D13*
%TO.P,Comm1,2,Pin_2*%
%TO.N,/ALERT*%
X241000000Y-138000000D03*
%TO.P,Comm1,3,Pin_3*%
%TO.N,/SCL*%
X239000000Y-138000000D03*
%TO.P,Comm1,4,Pin_4*%
%TO.N,/SDA*%
X237000000Y-138000000D03*
%TD*%
D14*
%TO.P,TH10K1,1*%
%TO.N,Net-(TH10K1-Pad1)*%
X268250000Y-125750000D03*
%TO.P,TH10K1,2*%
%TO.N,VC10x*%
X270750000Y-125750000D03*
%TD*%
D12*
%TO.P,MCUPower1,1,Pin_1*%
%TO.N,GND*%
X262250000Y-135500000D03*
D13*
%TO.P,MCUPower1,2,Pin_2*%
%TO.N,/MCU+*%
X260250000Y-135500000D03*
%TD*%
D15*
%TO.P,Battery1,1,Pin_1*%
%TO.N,/Batt+*%
X380557500Y-110777500D03*
D16*
%TO.P,Battery1,2,Pin_2*%
%TO.N,/Batt-*%
X380557500Y-115857500D03*
%TD*%
D14*
%TO.P,TH10K3,1*%
%TO.N,Net-(TH10K3-Pad1)*%
X268250000Y-135750000D03*
%TO.P,TH10K3,2*%
%TO.N,GND*%
X270750000Y-135750000D03*
%TD*%
%TO.P,TH10K2,1*%
%TO.N,Net-(TH10K2-Pad1)*%
X268250000Y-132000000D03*
%TO.P,TH10K2,2*%
%TO.N,VC5x*%
X270750000Y-132000000D03*
%TD*%
D17*
%TO.N,GND*%
X270500000Y-119000000D03*
X270500000Y-117000000D03*
X270500000Y-115000000D03*
X266500000Y-115000000D03*
X262500000Y-115000000D03*
X270500000Y-113000000D03*
X266500000Y-113000000D03*
X140500000Y-136000000D03*
X160500000Y-136000000D03*
X281000000Y-125000000D03*
X264000000Y-136000000D03*
X362000000Y-122000000D03*
X307000000Y-116000000D03*
X175250000Y-130750000D03*
X281000000Y-140000000D03*
X158000000Y-123500000D03*
X279000000Y-134000000D03*
X371000000Y-122000000D03*
X199750000Y-126000000D03*
X247750000Y-137800000D03*
X164000000Y-109000000D03*
X286000000Y-131000000D03*
X338000000Y-122000000D03*
X198250000Y-132000000D03*
X304000000Y-118000000D03*
X356800000Y-101600000D03*
X112750000Y-123500000D03*
X318500000Y-108750000D03*
X304000000Y-111000000D03*
X262000000Y-120750000D03*
X310000000Y-111000000D03*
X191250000Y-138000000D03*
X190000000Y-109200000D03*
X284000000Y-140000000D03*
X369000000Y-106000000D03*
X114500000Y-115000000D03*
X347000000Y-124000000D03*
X275000000Y-145400000D03*
X281000000Y-134000000D03*
X314250000Y-116000000D03*
X203250000Y-126000000D03*
X195750000Y-121000000D03*
X281000000Y-131000000D03*
X320000000Y-145400000D03*
X255600000Y-111200000D03*
X227550000Y-129500000D03*
X284000000Y-137000000D03*
X161750000Y-126000000D03*
X139800000Y-109200000D03*
X279000000Y-128000000D03*
X240250000Y-120000000D03*
X187400000Y-112200000D03*
X181500000Y-134500000D03*
X235250000Y-139250000D03*
X122500000Y-131750000D03*
X183600000Y-109200000D03*
X310000000Y-118000000D03*
X203000000Y-148000000D03*
X281000000Y-128000000D03*
X128500000Y-131750000D03*
X194800000Y-112200000D03*
X233750000Y-133750000D03*
X243250000Y-123500000D03*
X111500000Y-105000000D03*
X216500000Y-132000000D03*
X335000000Y-148000000D03*
X231000000Y-130800000D03*
X350000000Y-122000000D03*
X143500000Y-134500000D03*
X130000000Y-145000000D03*
X225000000Y-102000000D03*
X146500000Y-132000000D03*
X150000000Y-105600000D03*
X175000000Y-145400000D03*
X314250000Y-112750000D03*
X170000000Y-109000000D03*
X344000000Y-124000000D03*
X286000000Y-134000000D03*
X286000000Y-140000000D03*
X227250000Y-109500000D03*
X198500000Y-136000000D03*
X284000000Y-128000000D03*
X156000000Y-130750000D03*
X151550000Y-129500000D03*
X119600000Y-145000000D03*
X377000000Y-124000000D03*
X171550000Y-129500000D03*
X217750000Y-126000000D03*
X116500000Y-123500000D03*
X353000000Y-124000000D03*
X225500000Y-117750000D03*
X119800000Y-109200000D03*
X250000000Y-104200000D03*
X368000000Y-122000000D03*
X178500000Y-136000000D03*
X201500000Y-134500000D03*
X129200000Y-109200000D03*
X240000000Y-104200000D03*
X249000000Y-111200000D03*
X136250000Y-123500000D03*
X215000000Y-104600000D03*
X244500000Y-136750000D03*
X356000000Y-122000000D03*
X129200000Y-105600000D03*
X189550000Y-129500000D03*
X335000000Y-122000000D03*
X192250000Y-123500000D03*
X206400000Y-109500000D03*
X188750000Y-123500000D03*
X345000000Y-104600000D03*
X338000000Y-124000000D03*
X126500000Y-120000000D03*
X165250000Y-126000000D03*
X105000000Y-135000000D03*
X179750000Y-126000000D03*
X105000000Y-125000000D03*
X235000000Y-145400000D03*
X353000000Y-122000000D03*
X244000000Y-134000000D03*
X201000000Y-109500000D03*
X272000000Y-104500000D03*
X231250000Y-116500000D03*
X140500000Y-132000000D03*
X269000000Y-102000000D03*
X209550000Y-129500000D03*
X178500000Y-132000000D03*
X250000000Y-137800000D03*
X166500000Y-132000000D03*
X341000000Y-122000000D03*
X157600000Y-109000000D03*
X356000000Y-124000000D03*
X183250000Y-126000000D03*
X130000000Y-141750000D03*
X260000000Y-104200000D03*
X195750000Y-123500000D03*
X154250000Y-123500000D03*
X216500000Y-136000000D03*
X150000000Y-109200000D03*
X137000000Y-102000000D03*
X359000000Y-124000000D03*
X150750000Y-123500000D03*
X284000000Y-134000000D03*
X377000000Y-122000000D03*
X131750000Y-115000000D03*
X195000000Y-104600000D03*
X158000000Y-121000000D03*
X249000000Y-116750000D03*
X360000000Y-106000000D03*
X122500000Y-136000000D03*
X313000000Y-102000000D03*
X133500000Y-129500000D03*
X310000000Y-112700000D03*
X374000000Y-122000000D03*
X243000000Y-115000000D03*
X105000000Y-115000000D03*
X125500000Y-134500000D03*
X119800000Y-105600000D03*
X222500000Y-132000000D03*
X137250000Y-130750000D03*
X208750000Y-123500000D03*
X140000000Y-145000000D03*
X185000000Y-104600000D03*
X286000000Y-137000000D03*
X127500000Y-126000000D03*
X310000000Y-116000000D03*
X335000000Y-124000000D03*
X341000000Y-124000000D03*
X140000000Y-141750000D03*
X184500000Y-132000000D03*
X310000000Y-145400000D03*
X371000000Y-124000000D03*
X177000000Y-109200000D03*
X291000000Y-148000000D03*
X172500000Y-114500000D03*
X347000000Y-122000000D03*
X174250000Y-123500000D03*
X284000000Y-125000000D03*
X123750000Y-126000000D03*
X145250000Y-126000000D03*
X365000000Y-122000000D03*
X213250000Y-130750000D03*
X212250000Y-123500000D03*
X243250000Y-120000000D03*
X374000000Y-124000000D03*
X279000000Y-131000000D03*
X181000000Y-102000000D03*
X224500000Y-112000000D03*
X219500000Y-134500000D03*
X132750000Y-123500000D03*
X139800000Y-105600000D03*
X235000000Y-116500000D03*
X235000000Y-111200000D03*
X255000000Y-145400000D03*
X167750000Y-112250000D03*
X279000000Y-125000000D03*
X195800000Y-109500000D03*
X300000000Y-145400000D03*
X281000000Y-137000000D03*
X365000000Y-123965818D03*
X134500000Y-115000000D03*
X359000000Y-122000000D03*
X262500000Y-113000000D03*
X165000000Y-145400000D03*
X144450000Y-120000000D03*
X163500000Y-134500000D03*
X362000000Y-123965818D03*
X286000000Y-128000000D03*
X335000000Y-104600000D03*
X235000000Y-118750000D03*
X286000000Y-125000000D03*
X141750000Y-126000000D03*
X221250000Y-126000000D03*
X265000000Y-145400000D03*
X344000000Y-122000000D03*
X205000000Y-104600000D03*
X307000000Y-112700000D03*
X284000000Y-131000000D03*
X240250000Y-123500000D03*
X185000000Y-145400000D03*
X368000000Y-123965818D03*
X307000000Y-118000000D03*
X307000000Y-111000000D03*
X204500000Y-132000000D03*
X247000000Y-148000000D03*
X230000000Y-104200000D03*
X215000000Y-145400000D03*
X304000000Y-116000000D03*
X279000000Y-137000000D03*
X111500000Y-115000000D03*
X350000000Y-124000000D03*
X253250000Y-136000000D03*
X170750000Y-123500000D03*
X304000000Y-112700000D03*
X194000000Y-130750000D03*
X279000000Y-140000000D03*
X159000000Y-148000000D03*
X160500000Y-132000000D03*
X323750000Y-108750000D03*
X225000000Y-145400000D03*
X164450000Y-120000000D03*
%TO.N,Net-(Batt2-Pad1)*%
X137000000Y-133500000D03*
X133000000Y-137500000D03*
%TO.N,Net-(Batt3-Pad1)*%
X139000000Y-114000000D03*
X141000000Y-118000000D03*
%TO.N,Net-(Batt4-Pad1)*%
X151500000Y-137500000D03*
X155500000Y-133500000D03*
%TO.N,A*%
X266250000Y-133000000D03*
X156250000Y-140750000D03*
%TO.N,Net-(Batt6-Pad1)*%
X171000000Y-137500000D03*
X175000000Y-133500000D03*
%TO.N,Net-(Batt7-Pad1)*%
X179000000Y-118000000D03*
X177000000Y-114000000D03*
%TO.N,Net-(Batt8-Pad1)*%
X189250000Y-137750000D03*
X193500000Y-133500000D03*
%TO.N,B*%
X264250000Y-126000000D03*
X194500000Y-140750000D03*
%TO.N,Net-(Batt10-Pad1)*%
X209000000Y-137500000D03*
X213000000Y-133500000D03*
%TO.N,Net-(Batt11-Pad1)*%
X215000000Y-114000000D03*
X217000000Y-118000000D03*
%TO.N,Net-(Batt12-Pad1)*%
X227000000Y-137500000D03*
X231000000Y-133500000D03*
%TO.N,Net-(C1-Pad1)*%
X250750000Y-120000000D03*
X256000000Y-120000000D03*
X230600000Y-137500000D03*
X263750000Y-118250000D03*
X247500000Y-123250000D03*
%TO.N,Net-(C1-Pad2)*%
X233750501Y-120975903D03*
X224500000Y-114000000D03*
%TO.N,Net-(C2-Pad2)*%
X219500000Y-112250000D03*
X233750518Y-121975919D03*
%TO.N,Net-(C11-Pad1)*%
X204250000Y-112224500D03*
X233750551Y-122975952D03*
%TO.N,Net-(C4-Pad1)*%
X250750000Y-121250000D03*
X192750000Y-138500000D03*
X265500000Y-123500000D03*
X256000000Y-121250000D03*
X247500000Y-127250000D03*
%TO.N,Net-(C4-Pad2)*%
X233750757Y-124976159D03*
X186500000Y-113750000D03*
%TO.N,Net-(C5-Pad2)*%
X181400000Y-112200000D03*
X233751041Y-125976443D03*
%TO.N,Net-(C13-Pad1)*%
X168250000Y-114000000D03*
X233751620Y-126977022D03*
%TO.N,Net-(C7-Pad1)*%
X247512548Y-128262051D03*
X154500000Y-138250000D03*
%TO.N,Net-(C7-Pad2)*%
X148250000Y-114000000D03*
X233755151Y-128980553D03*
%TO.N,Net-(C8-Pad2)*%
X143250000Y-112200000D03*
X233768325Y-129991277D03*
%TO.N,Net-(C10-Pad1)*%
X128250000Y-112200000D03*
X233765374Y-130990775D03*
%TO.N,Net-(C10-Pad2)*%
X123000000Y-112500000D03*
X120500000Y-115000000D03*
X126250000Y-112200000D03*
X233750000Y-132000000D03*
%TO.N,VC10x*%
X201400000Y-112200000D03*
X255250000Y-123750000D03*
%TO.N,Net-(C12-Pad2)*%
X196500000Y-112200000D03*
X233750619Y-123976020D03*
%TO.N,VC5x*%
X233500000Y-112250000D03*
X264250000Y-129500000D03*
X240500000Y-118000000D03*
X254500000Y-130250000D03*
X163400000Y-112200000D03*
%TO.N,Net-(C14-Pad2)*%
X233752800Y-127978201D03*
X158500000Y-112200000D03*
%TO.N,Net-(C16-Pad2)*%
X237000000Y-133000000D03*
X111750000Y-137750000D03*
%TO.N,Net-(C17-Pad2)*%
X251750000Y-119250000D03*
X254750000Y-116250000D03*
X272250000Y-109250000D03*
X315750000Y-122250000D03*
X275250000Y-109250000D03*
X248500000Y-130500000D03*
%TO.N,Net-(C18-Pad1)*%
X274500000Y-110500000D03*
X254750000Y-117500000D03*
X321250000Y-122250000D03*
X249500000Y-130500000D03*
X253000000Y-119250000D03*
X272250000Y-110500000D03*
%TO.N,Net-(C21-Pad1)*%
X254500000Y-126250000D03*
X264250000Y-128250000D03*
%TO.N,Net-(C22-Pad1)*%
X264250000Y-130750000D03*
X254500000Y-128750000D03*
%TO.N,Net-(D17-Pad2)*%
X270500000Y-138750000D03*
X327250000Y-107750000D03*
%TO.N,Net-(D18-Pad2)*%
X271500000Y-138000000D03*
X371250000Y-116500000D03*
%TO.N,Net-(TH10K1-Pad1)*%
X254500000Y-124750000D03*
%TO.N,Net-(TH10K2-Pad1)*%
X250500000Y-128250000D03*
X264250000Y-132000000D03*
%TO.N,Net-(TH10K3-Pad1)*%
X250250000Y-131500000D03*
X264250000Y-134000000D03*
%TD*%
D18*
%TO.N,Net-(TH10K2-Pad1)*%
X250500000Y-128250000D02*
X254250000Y-132000000D01*
X254250000Y-132000000D02*
X264250000Y-132000000D01*
%TO.N,GND*%
X262250000Y-135750000D02*
X262250000Y-135500000D01*
D19*
%TO.N,Net-(Batt2-Pad1)*%
X133000000Y-137500000D02*
X137000000Y-133500000D01*
%TO.N,Net-(Batt3-Pad1)*%
X141000000Y-118000000D02*
X139000000Y-116000000D01*
X139000000Y-116000000D02*
X139000000Y-114000000D01*
%TO.N,Net-(Batt4-Pad1)*%
X151500000Y-137500000D02*
X155500000Y-133500000D01*
D18*
%TO.N,A*%
X266250000Y-140750000D02*
X266250000Y-133000000D01*
X193000000Y-140750000D02*
X193725000Y-141475000D01*
X265525000Y-141475000D02*
X266250000Y-140750000D01*
X156250000Y-140750000D02*
X193000000Y-140750000D01*
X193725000Y-141475000D02*
X265525000Y-141475000D01*
D19*
%TO.N,Net-(Batt6-Pad1)*%
X171000000Y-137500000D02*
X175000000Y-133500000D01*
%TO.N,Net-(Batt7-Pad1)*%
X177000000Y-116000000D02*
X179000000Y-118000000D01*
X177000000Y-114000000D02*
X177000000Y-116000000D01*
%TO.N,Net-(Batt8-Pad1)*%
X189250000Y-137750000D02*
X193500000Y-133500000D01*
D18*
%TO.N,B*%
X265250000Y-140500000D02*
X265000000Y-140750000D01*
X264250000Y-126000000D02*
X265250000Y-127000000D01*
X265000000Y-140750000D02*
X194500000Y-140750000D01*
X265250000Y-127000000D02*
X265250000Y-140500000D01*
D19*
%TO.N,Net-(Batt10-Pad1)*%
X209000000Y-137500000D02*
X213000000Y-133500000D01*
%TO.N,Net-(Batt11-Pad1)*%
X215000000Y-114000000D02*
X215000000Y-116000000D01*
X215000000Y-116000000D02*
X217000000Y-118000000D01*
%TO.N,Net-(Batt12-Pad1)*%
X227000000Y-137500000D02*
X231000000Y-133500000D01*
D18*
%TO.N,Net-(C1-Pad1)*%
X234750000Y-134500000D02*
X231750000Y-137500000D01*
X245250000Y-130500000D02*
X236000000Y-130500000D01*
X246000000Y-129750000D02*
X245250000Y-130500000D01*
X250625000Y-120000000D02*
X250750000Y-120000000D01*
X256000000Y-120000000D02*
X256000000Y-119000000D01*
X247500000Y-123250000D02*
X247500000Y-123125000D01*
X246000000Y-127250000D02*
X246000000Y-129750000D01*
X247500000Y-123125000D02*
X250625000Y-120000000D01*
X246500000Y-124250000D02*
X246500000Y-126750000D01*
X246500000Y-126750000D02*
X246000000Y-127250000D01*
X247500000Y-123250000D02*
X246500000Y-124250000D01*
X236000000Y-130500000D02*
X234750000Y-131750000D01*
X231750000Y-137500000D02*
X230600000Y-137500000D01*
X234750000Y-131750000D02*
X234750000Y-134500000D01*
X256750000Y-118250000D02*
X263750000Y-118250000D01*
X256000000Y-119000000D02*
X256750000Y-118250000D01*
%TO.N,Net-(C1-Pad2)*%
X233750501Y-120975903D02*
X233725903Y-120975903D01*
X226750000Y-114000000D02*
X224500000Y-114000000D01*
X233725903Y-120975903D02*
X226750000Y-114000000D01*
%TO.N,Net-(C2-Pad2)*%
X222000000Y-114750000D02*
X219500000Y-112250000D01*
X233725919Y-121975919D02*
X226500000Y-114750000D01*
X233750518Y-121975919D02*
X233725919Y-121975919D01*
X226500000Y-114750000D02*
X222000000Y-114750000D01*
%TO.N,Net-(C11-Pad1)*%
X221500000Y-115500000D02*
X226250000Y-115500000D01*
X233725952Y-122975952D02*
X233750551Y-122975952D01*
X226250000Y-115500000D02*
X233725952Y-122975952D01*
X204250000Y-112224500D02*
X204275500Y-112250000D01*
X218250000Y-112250000D02*
X221500000Y-115500000D01*
X204275500Y-112250000D02*
X218250000Y-112250000D01*
%TO.N,Net-(C4-Pad1)*%
X235500000Y-134750000D02*
X235500000Y-132000000D01*
X236250000Y-131250000D02*
X245625000Y-131250000D01*
X231750000Y-138500000D02*
X235500000Y-134750000D01*
X246750000Y-130125000D02*
X246750000Y-127500000D01*
X247000000Y-127250000D02*
X247500000Y-127250000D01*
X257500000Y-123500000D02*
X256000000Y-122000000D01*
X250750000Y-121250000D02*
X247500000Y-124500000D01*
X246750000Y-127500000D02*
X247000000Y-127250000D01*
X256000000Y-122000000D02*
X256000000Y-121250000D01*
X265500000Y-123500000D02*
X257500000Y-123500000D01*
X247500000Y-124500000D02*
X247500000Y-127250000D01*
X235500000Y-132000000D02*
X236250000Y-131250000D01*
X192750000Y-138500000D02*
X231750000Y-138500000D01*
X245625000Y-131250000D02*
X246750000Y-130125000D01*
%TO.N,Net-(C4-Pad2)*%
X233750757Y-124976159D02*
X233726159Y-124976159D01*
X227750000Y-119000000D02*
X216000000Y-119000000D01*
X211250000Y-114250000D02*
X187000000Y-114250000D01*
X187000000Y-114250000D02*
X186500000Y-113750000D01*
X233726159Y-124976159D02*
X227750000Y-119000000D01*
X216000000Y-119000000D02*
X211250000Y-114250000D01*
%TO.N,Net-(C5-Pad2)*%
X233726443Y-125976443D02*
X233751041Y-125976443D01*
X215750000Y-119750000D02*
X227500000Y-119750000D01*
X184250000Y-115000000D02*
X211000000Y-115000000D01*
X181400000Y-112200000D02*
X181450000Y-112200000D01*
X211000000Y-115000000D02*
X215750000Y-119750000D01*
X227500000Y-119750000D02*
X233726443Y-125976443D01*
X181450000Y-112200000D02*
X184250000Y-115000000D01*
%TO.N,Net-(C13-Pad1)*%
X210750000Y-115750000D02*
X183500000Y-115750000D01*
X227250000Y-120500000D02*
X215500000Y-120500000D01*
X179750000Y-112000000D02*
X170250000Y-112000000D01*
X233751620Y-126977022D02*
X233727022Y-126977022D01*
X170250000Y-112000000D02*
X168250000Y-114000000D01*
X215500000Y-120500000D02*
X210750000Y-115750000D01*
X183500000Y-115750000D02*
X179750000Y-112000000D01*
X233727022Y-126977022D02*
X227250000Y-120500000D01*
%TO.N,Net-(C7-Pad1)*%
X236500000Y-132000000D02*
X236250000Y-132250000D01*
X247512548Y-130487452D02*
X246000000Y-132000000D01*
X247512548Y-128262051D02*
X247512548Y-130487452D01*
X236250000Y-132250000D02*
X236250000Y-135000000D01*
X155500000Y-139250000D02*
X154500000Y-138250000D01*
X246000000Y-132000000D02*
X236500000Y-132000000D01*
X236250000Y-135000000D02*
X232000000Y-139250000D01*
X232000000Y-139250000D02*
X155500000Y-139250000D01*
%TO.N,Net-(C7-Pad2)*%
X210250000Y-117250000D02*
X183500000Y-117250000D01*
X178000000Y-119500000D02*
X174500000Y-116000000D01*
X161250000Y-116000000D02*
X159250000Y-114000000D01*
X215000000Y-122000000D02*
X210250000Y-117250000D01*
X233730553Y-128980553D02*
X226750000Y-122000000D01*
X233755151Y-128980553D02*
X233730553Y-128980553D01*
X181250000Y-119500000D02*
X178000000Y-119500000D01*
X174500000Y-116000000D02*
X161250000Y-116000000D01*
X159250000Y-114000000D02*
X148250000Y-114000000D01*
X183500000Y-117250000D02*
X181250000Y-119500000D01*
X226750000Y-122000000D02*
X215000000Y-122000000D01*
%TO.N,Net-(C8-Pad2)*%
X183750000Y-118000000D02*
X181500000Y-120250000D01*
X233768325Y-129991277D02*
X233741277Y-129991277D01*
X177750000Y-120250000D02*
X174250000Y-116750000D01*
X159250000Y-115000000D02*
X146050000Y-115000000D01*
X226500000Y-122750000D02*
X214750000Y-122750000D01*
X210000000Y-118000000D02*
X183750000Y-118000000D01*
X146050000Y-115000000D02*
X143250000Y-112200000D01*
X161000000Y-116750000D02*
X159250000Y-115000000D01*
X214750000Y-122750000D02*
X210000000Y-118000000D01*
X181500000Y-120250000D02*
X177750000Y-120250000D01*
X174250000Y-116750000D02*
X161000000Y-116750000D01*
X233741277Y-129991277D02*
X226500000Y-122750000D01*
%TO.N,Net-(C10-Pad1)*%
X145550000Y-115750000D02*
X141550000Y-111750000D01*
X181750000Y-121000000D02*
X177500000Y-121000000D01*
X209750000Y-118750000D02*
X184000000Y-118750000D01*
X160750000Y-117500000D02*
X159000000Y-115750000D01*
X174000000Y-117500000D02*
X160750000Y-117500000D01*
X184000000Y-118750000D02*
X181750000Y-121000000D01*
X177500000Y-121000000D02*
X174000000Y-117500000D01*
X233740775Y-130990775D02*
X226250000Y-123500000D01*
X233765374Y-130990775D02*
X233740775Y-130990775D01*
X141550000Y-111750000D02*
X128750000Y-111750000D01*
X128750000Y-111750000D02*
X128250000Y-112250000D01*
X159000000Y-115750000D02*
X145550000Y-115750000D01*
X226250000Y-123500000D02*
X214500000Y-123500000D01*
X214500000Y-123500000D02*
X209750000Y-118750000D01*
%TO.N,Net-(C10-Pad2)*%
X127500000Y-113500000D02*
X126250000Y-112250000D01*
X226000000Y-124250000D02*
X214250000Y-124250000D01*
X184250000Y-119500000D02*
X182000000Y-121750000D01*
X130250000Y-112500000D02*
X129250000Y-113500000D01*
X141300000Y-112500000D02*
X130250000Y-112500000D01*
X209500000Y-119500000D02*
X184250000Y-119500000D01*
X158750000Y-116500000D02*
X145300000Y-116500000D01*
X129250000Y-113500000D02*
X127500000Y-113500000D01*
X233750000Y-132000000D02*
X226000000Y-124250000D01*
X126250000Y-112250000D02*
X126250000Y-112200000D01*
D19*
X120500000Y-115000000D02*
X123000000Y-112500000D01*
D18*
X182000000Y-121750000D02*
X177250000Y-121750000D01*
X145300000Y-116500000D02*
X141300000Y-112500000D01*
X173750000Y-118250000D02*
X160500000Y-118250000D01*
X160500000Y-118250000D02*
X158750000Y-116500000D01*
X177250000Y-121750000D02*
X173750000Y-118250000D01*
X214250000Y-124250000D02*
X209500000Y-119500000D01*
%TO.N,VC10x*%
X253750000Y-117750000D02*
X255000000Y-119000000D01*
X256750000Y-117250000D02*
X255000000Y-119000000D01*
X242000000Y-117750000D02*
X253750000Y-117750000D01*
X265500000Y-120500000D02*
X265500000Y-118250000D01*
X219775305Y-111500000D02*
X221525305Y-113250000D01*
X237500000Y-113250000D02*
X242000000Y-117750000D01*
X255250000Y-123750000D02*
X255000000Y-123500000D01*
X202100000Y-111500000D02*
X219775305Y-111500000D01*
X265500000Y-118250000D02*
X264500000Y-117250000D01*
X201400000Y-112200000D02*
X202100000Y-111500000D01*
X221525305Y-113250000D02*
X237500000Y-113250000D01*
X255000000Y-123500000D02*
X255000000Y-119000000D01*
X264500000Y-117250000D02*
X256750000Y-117250000D01*
X270750000Y-125750000D02*
X265500000Y-120500000D01*
%TO.N,Net-(C12-Pad2)*%
X221000000Y-116250000D02*
X226000000Y-116250000D01*
X217750000Y-113000000D02*
X221000000Y-116250000D01*
X196500000Y-112200000D02*
X197300000Y-113000000D01*
X226000000Y-116250000D02*
X233726020Y-123976020D01*
X197300000Y-113000000D02*
X217750000Y-113000000D01*
X233726020Y-123976020D02*
X233750619Y-123976020D01*
%TO.N,VC5x*%
X232000000Y-110750000D02*
X233500000Y-112250000D01*
X254000000Y-119000000D02*
X254000000Y-122500000D01*
X264250000Y-129500000D02*
X258000000Y-129500000D01*
X240500000Y-118000000D02*
X241000000Y-118500000D01*
X163400000Y-112200000D02*
X164850000Y-110750000D01*
X258000000Y-129500000D02*
X256000000Y-127500000D01*
X253500000Y-118500000D02*
X254000000Y-119000000D01*
X254500000Y-130250000D02*
X254250000Y-130250000D01*
X164850000Y-110750000D02*
X232000000Y-110750000D01*
X253250000Y-129250000D02*
X253250000Y-127500000D01*
X254250000Y-130250000D02*
X253250000Y-129250000D01*
X241000000Y-118500000D02*
X253500000Y-118500000D01*
X254000000Y-122500000D02*
X253250000Y-123250000D01*
X256000000Y-127500000D02*
X253250000Y-127500000D01*
X253250000Y-123250000D02*
X253250000Y-127500000D01*
%TO.N,Net-(C14-Pad2)*%
X210500000Y-116500000D02*
X183250000Y-116500000D01*
X179500000Y-112750000D02*
X170750000Y-112750000D01*
X215250000Y-121250000D02*
X210500000Y-116500000D01*
X158500000Y-112250000D02*
X158500000Y-112200000D01*
X233752800Y-127978201D02*
X233728201Y-127978201D01*
X170750000Y-112750000D02*
X168250000Y-115250000D01*
X161500000Y-115250000D02*
X158500000Y-112250000D01*
X183250000Y-116500000D02*
X179500000Y-112750000D01*
X227000000Y-121250000D02*
X215250000Y-121250000D01*
X233728201Y-127978201D02*
X227000000Y-121250000D01*
X168250000Y-115250000D02*
X161500000Y-115250000D01*
%TO.N,Net-(C16-Pad2)*%
X237000000Y-133000000D02*
X237000000Y-135250000D01*
X114000000Y-140000000D02*
X111750000Y-137750000D01*
X237000000Y-135250000D02*
X232250000Y-140000000D01*
X232250000Y-140000000D02*
X114000000Y-140000000D01*
%TO.N,Net-(C17-Pad2)*%
X251750000Y-121500000D02*
X251750000Y-119250000D01*
X248500000Y-124750000D02*
X251750000Y-121500000D01*
X248500000Y-130500000D02*
X248500000Y-124750000D01*
X261750000Y-109250000D02*
X272250000Y-109250000D01*
X275000000Y-109000000D02*
X275000000Y-106000000D01*
X275000000Y-106000000D02*
X276600000Y-104400000D01*
X315750000Y-106000000D02*
X315750000Y-122250000D01*
X275250000Y-109250000D02*
X275000000Y-109000000D01*
X254750000Y-116250000D02*
X261750000Y-109250000D01*
X314150000Y-104400000D02*
X315750000Y-106000000D01*
X276600000Y-104400000D02*
X314150000Y-104400000D01*
%TO.N,Net-(C18-Pad1)*%
X319400000Y-103900000D02*
X321250000Y-105750000D01*
X254750000Y-117500000D02*
X261750000Y-110500000D01*
X276350000Y-103900000D02*
X319400000Y-103900000D01*
X261750000Y-110500000D02*
X272250000Y-110500000D01*
X253000000Y-121750000D02*
X249500000Y-125250000D01*
X274500000Y-105750000D02*
X276350000Y-103900000D01*
X249500000Y-125250000D02*
X249500000Y-130500000D01*
X321250000Y-105750000D02*
X321250000Y-122250000D01*
X253000000Y-119250000D02*
X253000000Y-121750000D01*
X274500000Y-110500000D02*
X274500000Y-105750000D01*
%TO.N,Net-(C21-Pad1)*%
X258500000Y-128250000D02*
X264250000Y-128250000D01*
X256500000Y-126250000D02*
X258500000Y-128250000D01*
X254500000Y-126250000D02*
X256500000Y-126250000D01*
%TO.N,Net-(C22-Pad1)*%
X257500000Y-130750000D02*
X264250000Y-130750000D01*
X254500000Y-128750000D02*
X255500000Y-128750000D01*
X255500000Y-128750000D02*
X257500000Y-130750000D01*
%TO.N,Net-(D17-Pad2)*%
X275436396Y-103450000D02*
X325450000Y-103450000D01*
X325450000Y-103450000D02*
X327250000Y-105250000D01*
X270500000Y-138750000D02*
X270750000Y-139000000D01*
X271525305Y-139000000D02*
X273750000Y-136775305D01*
X273750000Y-105136396D02*
X275436396Y-103450000D01*
X327250000Y-105250000D02*
X327250000Y-107750000D01*
X273750000Y-136775305D02*
X273750000Y-105136396D01*
X270750000Y-139000000D02*
X271525305Y-139000000D01*
%TO.N,Net-(D18-Pad2)*%
X273250000Y-105000000D02*
X275250000Y-103000000D01*
X271500000Y-138000000D02*
X273250000Y-136250000D01*
X371250000Y-105000000D02*
X371250000Y-116500000D01*
X369250000Y-103000000D02*
X371250000Y-105000000D01*
X273250000Y-136250000D02*
X273250000Y-105000000D01*
X275250000Y-103000000D02*
X369250000Y-103000000D01*
%TO.N,Net-(TH10K1-Pad1)*%
X267250000Y-124750000D02*
X268250000Y-125750000D01*
X254500000Y-124750000D02*
X267250000Y-124750000D01*
%TO.N,Net-(TH10K3-Pad1)*%
X252000000Y-131500000D02*
X250250000Y-131500000D01*
X253500000Y-133000000D02*
X252000000Y-131500000D01*
X264250000Y-134000000D02*
X263250000Y-133000000D01*
X263250000Y-133000000D02*
X253500000Y-133000000D01*
%TD*%
%TA.AperFunction,Conductor*%
%TO.N,GND*%
G36*
X385433621Y-100528502D02*
G01*
X385480114Y-100582158D01*
X385491500Y-100634500D01*
X385491500Y-149365500D01*
X385471498Y-149433621D01*
X385417842Y-149480114D01*
X385365500Y-149491500D01*
X100634500Y-149491500D01*
X100566379Y-149471498D01*
X100519886Y-149417842D01*
X100508500Y-149365500D01*
X100508500Y-137750000D01*
X110836496Y-137750000D01*
X110837186Y-137756565D01*
X110844953Y-137830460D01*
X110856458Y-137939928D01*
X110915473Y-138121556D01*
X111010960Y-138286944D01*
X111015378Y-138291851D01*
X111015379Y-138291852D01*
X111109832Y-138396753D01*
X111138747Y-138428866D01*
X111293248Y-138541118D01*
X111299276Y-138543802D01*
X111299278Y-138543803D01*
X111423256Y-138599001D01*
X111467712Y-138618794D01*
X111561113Y-138638647D01*
X111648056Y-138657128D01*
X111648061Y-138657128D01*
X111654513Y-138658500D01*
X111710406Y-138658500D01*
X111778527Y-138678502D01*
X111799501Y-138695405D01*
X113496343Y-140392247D01*
X113503887Y-140400537D01*
X113508000Y-140407018D01*
X113513777Y-140412443D01*
X113557667Y-140453658D01*
X113560509Y-140456413D01*
X113580231Y-140476135D01*
X113583355Y-140478558D01*
X113583359Y-140478562D01*
X113583424Y-140478612D01*
X113592445Y-140486317D01*
X113624679Y-140516586D01*
X113631627Y-140520405D01*
X113631629Y-140520407D01*
X113642432Y-140526346D01*
X113658959Y-140537202D01*
X113668698Y-140544757D01*
X113668700Y-140544758D01*
X113674960Y-140549614D01*
X113715540Y-140567174D01*
X113726188Y-140572391D01*
X113764940Y-140593695D01*
X113772616Y-140595666D01*
X113772619Y-140595667D01*
X113784562Y-140598733D01*
X113803267Y-140605137D01*
X113821855Y-140613181D01*
X113829678Y-140614420D01*
X113829688Y-140614423D01*
X113865524Y-140620099D01*
X113877144Y-140622505D01*
X113912289Y-140631528D01*
X113919970Y-140633500D01*
X113940224Y-140633500D01*
X113959934Y-140635051D01*
X113979943Y-140638220D01*
X113987835Y-140637474D01*
X114023961Y-140634059D01*
X114035819Y-140633500D01*
X155211186Y-140633500D01*
X155279307Y-140653502D01*
X155325800Y-140707158D01*
X155335150Y-140750141D01*
X155336496Y-140750000D01*
X155355220Y-140928145D01*
X155356458Y-140939928D01*
X155415473Y-141121556D01*
X155510960Y-141286944D01*
X155638747Y-141428866D01*
X155793248Y-141541118D01*
X155799276Y-141543802D01*
X155799278Y-141543803D01*
X155961681Y-141616109D01*
X155967712Y-141618794D01*
X156061112Y-141638647D01*
X156148056Y-141657128D01*
X156148061Y-141657128D01*
X156154513Y-141658500D01*
X156345487Y-141658500D01*
X156351939Y-141657128D01*
X156351944Y-141657128D01*
X156438888Y-141638647D01*
X156532288Y-141618794D01*
X156538319Y-141616109D01*
X156700722Y-141543803D01*
X156700724Y-141543802D01*
X156706752Y-141541118D01*
X156861253Y-141428866D01*
X156865668Y-141423963D01*
X156870580Y-141419540D01*
X156871705Y-141420789D01*
X156925014Y-141387949D01*
X156958200Y-141383500D01*
X192685405Y-141383500D01*
X192753526Y-141403502D01*
X192774501Y-141420405D01*
X193221353Y-141867258D01*
X193228887Y-141875537D01*
X193233000Y-141882018D01*
X193254096Y-141901828D01*
X193282651Y-141928643D01*
X193285493Y-141931398D01*
X193305230Y-141951135D01*
X193308427Y-141953615D01*
X193317447Y-141961318D01*
X193349679Y-141991586D01*
X193356625Y-141995405D01*
X193356628Y-141995407D01*
X193367434Y-142001348D01*
X193383953Y-142012199D01*
X193399959Y-142024614D01*
X193407228Y-142027759D01*
X193407232Y-142027762D01*
X193440537Y-142042174D01*
X193451187Y-142047391D01*
X193489940Y-142068695D01*
X193497615Y-142070666D01*
X193497616Y-142070666D01*
X193509562Y-142073733D01*
X193528267Y-142080137D01*
X193546855Y-142088181D01*
X193554678Y-142089420D01*
X193554688Y-142089423D01*
X193590524Y-142095099D01*
X193602144Y-142097505D01*
X193633959Y-142105673D01*
X193644970Y-142108500D01*
X193665224Y-142108500D01*
X193684934Y-142110051D01*
X193704943Y-142113220D01*
X193712835Y-142112474D01*
X193731580Y-142110702D01*
X193748962Y-142109059D01*
X193760819Y-142108500D01*
X265446233Y-142108500D01*
X265457416Y-142109027D01*
X265464909Y-142110702D01*
X265472835Y-142110453D01*
X265472836Y-142110453D01*
X265532986Y-142108562D01*
X265536945Y-142108500D01*
X265564856Y-142108500D01*
X265568791Y-142108003D01*
X265568856Y-142107995D01*
X265580693Y-142107062D01*
X265612951Y-142106048D01*
X265616970Y-142105922D01*
X265624889Y-142105673D01*
X265644343Y-142100021D01*
X265663700Y-142096013D01*
X265675930Y-142094468D01*
X265675931Y-142094468D01*
X265683797Y-142093474D01*
X265691168Y-142090555D01*
X265691170Y-142090555D01*
X265724912Y-142077196D01*
X265736142Y-142073351D01*
X265770983Y-142063229D01*
X265770984Y-142063229D01*
X265778593Y-142061018D01*
X265785412Y-142056985D01*
X265785417Y-142056983D01*
X265796028Y-142050707D01*
X265813776Y-142042012D01*
X265832617Y-142034552D01*
X265868387Y-142008564D01*
X265878307Y-142002048D01*
X265909535Y-141983580D01*
X265909538Y-141983578D01*
X265916362Y-141979542D01*
X265930683Y-141965221D01*
X265945717Y-141952380D01*
X265955693Y-141945132D01*
X265962107Y-141940472D01*
X265990288Y-141906407D01*
X265998278Y-141897626D01*
X266642258Y-141253647D01*
X266650537Y-141246113D01*
X266657018Y-141242000D01*
X266703644Y-141192348D01*
X266706398Y-141189507D01*
X266726135Y-141169770D01*
X266728615Y-141166573D01*
X266736320Y-141157551D01*
X266761159Y-141131100D01*
X266766586Y-141125321D01*
X266770405Y-141118375D01*
X266770407Y-141118372D01*
X266776348Y-141107566D01*
X266787199Y-141091047D01*
X266794758Y-141081301D01*
X266799614Y-141075041D01*
X266802759Y-141067772D01*
X266802762Y-141067768D01*
X266817174Y-141034463D01*
X266822391Y-141023813D01*
X266843695Y-140985060D01*
X266848733Y-140965437D01*
X266855137Y-140946734D01*
X266860033Y-140935420D01*
X266860033Y-140935419D01*
X266863181Y-140928145D01*
X266864420Y-140920322D01*
X266864423Y-140920312D01*
X266870099Y-140884476D01*
X266872505Y-140872856D01*
X266881528Y-140837711D01*
X266881528Y-140837710D01*
X266883500Y-140830030D01*
X266883500Y-140809776D01*
X266885051Y-140790065D01*
X266886980Y-140777886D01*
X266888220Y-140770057D01*
X266884059Y-140726038D01*
X266883500Y-140714181D01*
X266883500Y-136479357D01*
X266903502Y-136411236D01*
X266957158Y-136364743D01*
X267027432Y-136354639D01*
X267092012Y-136384133D01*
X267112713Y-136407086D01*
X267243802Y-136594300D01*
X267405700Y-136756198D01*
X267410208Y-136759355D01*
X267410211Y-136759357D01*
X267450361Y-136787470D01*
X267593251Y-136887523D01*
X267598233Y-136889846D01*
X267598238Y-136889849D01*
X267755233Y-136963056D01*
X267800757Y-136984284D01*
X267806065Y-136985706D01*
X267806067Y-136985707D01*
X268016598Y-137042119D01*
X268016600Y-137042119D01*
X268021913Y-137043543D01*
X268250000Y-137063498D01*
X268478087Y-137043543D01*
X268483400Y-137042119D01*
X268483402Y-137042119D01*
X268693933Y-136985707D01*
X268693935Y-136985706D01*
X268699243Y-136984284D01*
X268744767Y-136963056D01*
X268901762Y-136889849D01*
X268901767Y-136889846D01*
X268906749Y-136887523D01*
X269049639Y-136787470D01*
X269089789Y-136759357D01*
X269089792Y-136759355D01*
X269094300Y-136756198D01*
X269256198Y-136594300D01*
X269387523Y-136406749D01*
X269389846Y-136401767D01*
X269389849Y-136401762D01*
X269481961Y-136204225D01*
X269481961Y-136204224D01*
X269484284Y-136199243D01*
X269490068Y-136177659D01*
X269542119Y-135983402D01*
X269542119Y-135983400D01*
X269543543Y-135978087D01*
X269563498Y-135750000D01*
X269543543Y-135521913D01*
X269538664Y-135503704D01*
X269485707Y-135306067D01*
X269485706Y-135306065D01*
X269484284Y-135300757D01*
X269478875Y-135289157D01*
X269389849Y-135098238D01*
X269389846Y-135098233D01*
X269387523Y-135093251D01*
X269256198Y-134905700D01*
X269094300Y-134743802D01*
X269089792Y-134740645D01*
X269089789Y-134740643D01*
X268994548Y-134673955D01*
X268906749Y-134612477D01*
X268901767Y-134610154D01*
X268901762Y-134610151D01*
X268704225Y-134518039D01*
X268704224Y-134518039D01*
X268699243Y-134515716D01*
X268693935Y-134514294D01*
X268693933Y-134514293D01*
X268483402Y-134457881D01*
X268483400Y-134457881D01*
X268478087Y-134456457D01*
X268250000Y-134436502D01*
X268021913Y-134456457D01*
X268016600Y-134457881D01*
X268016598Y-134457881D01*
X267806067Y-134514293D01*
X267806065Y-134514294D01*
X267800757Y-134515716D01*
X267795776Y-134518039D01*
X267795775Y-134518039D01*
X267598238Y-134610151D01*
X267598233Y-134610154D01*
X267593251Y-134612477D01*
X267505452Y-134673955D01*
X267410211Y-134740643D01*
X267410208Y-134740645D01*
X267405700Y-134743802D01*
X267243802Y-134905700D01*
X267240645Y-134910208D01*
X267240643Y-134910211D01*
X267112713Y-135092914D01*
X267057256Y-135137242D01*
X266986636Y-135144551D01*
X266923276Y-135112520D01*
X266887291Y-135051319D01*
X266883500Y-135020643D01*
X266883500Y-133702524D01*
X266903502Y-133634403D01*
X266915858Y-133618221D01*
X266989040Y-133536944D01*
X267064053Y-133407018D01*
X267081223Y-133377279D01*
X267081224Y-133377278D01*
X267084527Y-133371556D01*
X267143542Y-133189928D01*
X267145773Y-133168699D01*
X267158337Y-133049164D01*
X267185350Y-132983507D01*
X267243572Y-132942878D01*
X267314517Y-132940175D01*
X267372742Y-132973240D01*
X267405700Y-133006198D01*
X267410208Y-133009355D01*
X267410211Y-133009357D01*
X267488389Y-133064098D01*
X267593251Y-133137523D01*
X267598233Y-133139846D01*
X267598238Y-133139849D01*
X267795775Y-133231961D01*
X267800757Y-133234284D01*
X267806065Y-133235706D01*
X267806067Y-133235707D01*
X268016598Y-133292119D01*
X268016600Y-133292119D01*
X268021913Y-133293543D01*
X268250000Y-133313498D01*
X268478087Y-133293543D01*
X268483400Y-133292119D01*
X268483402Y-133292119D01*
X268693933Y-133235707D01*
X268693935Y-133235706D01*
X268699243Y-133234284D01*
X268704225Y-133231961D01*
X268901762Y-133139849D01*
X268901767Y-133139846D01*
X268906749Y-133137523D01*
X269011611Y-133064098D01*
X269089789Y-133009357D01*
X269089792Y-133009355D01*
X269094300Y-133006198D01*
X269256198Y-132844300D01*
X269275570Y-132816635D01*
X269338003Y-132727471D01*
X269387523Y-132656749D01*
X269389846Y-132651767D01*
X269390882Y-132649973D01*
X269442266Y-132600981D01*
X269511979Y-132587546D01*
X269577890Y-132613934D01*
X269609118Y-132649973D01*
X269610154Y-132651767D01*
X269612477Y-132656749D01*
X269661997Y-132727471D01*
X269724431Y-132816635D01*
X269743802Y-132844300D01*
X269905700Y-133006198D01*
X269910208Y-133009355D01*
X269910211Y-133009357D01*
X269988389Y-133064098D01*
X270093251Y-133137523D01*
X270098233Y-133139846D01*
X270098238Y-133139849D01*
X270295775Y-133231961D01*
X270300757Y-133234284D01*
X270306065Y-133235706D01*
X270306067Y-133235707D01*
X270516598Y-133292119D01*
X270516600Y-133292119D01*
X270521913Y-133293543D01*
X270750000Y-133313498D01*
X270978087Y-133293543D01*
X270983400Y-133292119D01*
X270983402Y-133292119D01*
X271193933Y-133235707D01*
X271193935Y-133235706D01*
X271199243Y-133234284D01*
X271204225Y-133231961D01*
X271401762Y-133139849D01*
X271401767Y-133139846D01*
X271406749Y-133137523D01*
X271511611Y-133064098D01*
X271589789Y-133009357D01*
X271589792Y-133009355D01*
X271594300Y-133006198D01*
X271756198Y-132844300D01*
X271775570Y-132816635D01*
X271824512Y-132746738D01*
X271887523Y-132656749D01*
X271889846Y-132651767D01*
X271889849Y-132651762D01*
X271981961Y-132454225D01*
X271981961Y-132454224D01*
X271984284Y-132449243D01*
X271989067Y-132431395D01*
X272042119Y-132233402D01*
X272042119Y-132233400D01*
X272043543Y-132228087D01*
X272063498Y-132000000D01*
X272043543Y-131771913D01*
X272021575Y-131689928D01*
X271985707Y-131556067D01*
X271985706Y-131556065D01*
X271984284Y-131550757D01*
X271958854Y-131496222D01*
X271889849Y-131348238D01*
X271889846Y-131348233D01*
X271887523Y-131343251D01*
X271775138Y-131182749D01*
X271759357Y-131160211D01*
X271759355Y-131160208D01*
X271756198Y-131155700D01*
X271594300Y-130993802D01*
X271589792Y-130990645D01*
X271589789Y-130990643D01*
X271505255Y-130931452D01*
X271406749Y-130862477D01*
X271401767Y-130860154D01*
X271401762Y-130860151D01*
X271204225Y-130768039D01*
X271204224Y-130768039D01*
X271199243Y-130765716D01*
X271193935Y-130764294D01*
X271193933Y-130764293D01*
X270983402Y-130707881D01*
X270983400Y-130707881D01*
X270978087Y-130706457D01*
X270750000Y-130686502D01*
X270521913Y-130706457D01*
X270516600Y-130707881D01*
X270516598Y-130707881D01*
X270306067Y-130764293D01*
X270306065Y-130764294D01*
X270300757Y-130765716D01*
X270295776Y-130768039D01*
X270295775Y-130768039D01*
X270098238Y-130860151D01*
X270098233Y-130860154D01*
X270093251Y-130862477D01*
X269994745Y-130931452D01*
X269910211Y-130990643D01*
X269910208Y-130990645D01*
X269905700Y-130993802D01*
X269743802Y-131155700D01*
X269740645Y-131160208D01*
X269740643Y-131160211D01*
X269694483Y-131226135D01*
X269612477Y-131343251D01*
X269610154Y-131348233D01*
X269609118Y-131350027D01*
X269557734Y-131399019D01*
X269488021Y-131412454D01*
X269422110Y-131386066D01*
X269390882Y-131350027D01*
X269389846Y-131348233D01*
X269387523Y-131343251D01*
X269305517Y-131226135D01*
X269259357Y-131160211D01*
X269259355Y-131160208D01*
X269256198Y-131155700D01*
X269094300Y-130993802D01*
X269089792Y-130990645D01*
X269089789Y-130990643D01*
X269005255Y-130931452D01*
X268906749Y-130862477D01*
X268901767Y-130860154D01*
X268901762Y-130860151D01*
X268704225Y-130768039D01*
X268704224Y-130768039D01*
X268699243Y-130765716D01*
X268693935Y-130764294D01*
X268693933Y-130764293D01*
X268483402Y-130707881D01*
X268483400Y-130707881D01*
X268478087Y-130706457D01*
X268250000Y-130686502D01*
X268021913Y-130706457D01*
X268016600Y-130707881D01*
X268016598Y-130707881D01*
X267806067Y-130764293D01*
X267806065Y-130764294D01*
X267800757Y-130765716D01*
X267795776Y-130768039D01*
X267795775Y-130768039D01*
X267598238Y-130860151D01*
X267598233Y-130860154D01*
X267593251Y-130862477D01*
X267494745Y-130931452D01*
X267410211Y-130990643D01*
X267410208Y-130990645D01*
X267405700Y-130993802D01*
X267243802Y-131155700D01*
X267240645Y-131160208D01*
X267240643Y-131160211D01*
X267224862Y-131182749D01*
X267112477Y-131343251D01*
X267110154Y-131348233D01*
X267110151Y-131348238D01*
X267041146Y-131496222D01*
X267015716Y-131550757D01*
X267014294Y-131556065D01*
X267014293Y-131556067D01*
X266978425Y-131689928D01*
X266956457Y-131771913D01*
X266936502Y-132000000D01*
X266936981Y-132005475D01*
X266936981Y-132005476D01*
X266947515Y-132125885D01*
X266933526Y-132195490D01*
X266884126Y-132246482D01*
X266815000Y-132262672D01*
X266747933Y-132238802D01*
X266712094Y-132212763D01*
X266712093Y-132212762D01*
X266706752Y-132208882D01*
X266700724Y-132206198D01*
X266700722Y-132206197D01*
X266538319Y-132133891D01*
X266538318Y-132133891D01*
X266532288Y-132131206D01*
X266438887Y-132111353D01*
X266351944Y-132092872D01*
X266351939Y-132092872D01*
X266345487Y-132091500D01*
X266154513Y-132091500D01*
X266148061Y-132092872D01*
X266148056Y-132092872D01*
X266035697Y-132116755D01*
X265964906Y-132111353D01*
X265908273Y-132068536D01*
X265883780Y-132001898D01*
X265883500Y-131993508D01*
X265883500Y-127078768D01*
X265884027Y-127067585D01*
X265885702Y-127060092D01*
X265885202Y-127044166D01*
X265883562Y-126992002D01*
X265883500Y-126988044D01*
X265883500Y-126960144D01*
X265882996Y-126956153D01*
X265882063Y-126944311D01*
X265881684Y-126932232D01*
X265880674Y-126900111D01*
X265877017Y-126887523D01*
X265875021Y-126880652D01*
X265871012Y-126861293D01*
X265870846Y-126859983D01*
X265868474Y-126841203D01*
X265865558Y-126833837D01*
X265865556Y-126833831D01*
X265852200Y-126800098D01*
X265848355Y-126788868D01*
X265838230Y-126754017D01*
X265838230Y-126754016D01*
X265836019Y-126746407D01*
X265825705Y-126728966D01*
X265817008Y-126711213D01*
X265812472Y-126699758D01*
X265809552Y-126692383D01*
X265783563Y-126656612D01*
X265777047Y-126646692D01*
X265758578Y-126615463D01*
X265754542Y-126608638D01*
X265740221Y-126594317D01*
X265727380Y-126579283D01*
X265720131Y-126569306D01*
X265715472Y-126562893D01*
X265681395Y-126534702D01*
X265672616Y-126526712D01*
X265197122Y-126051218D01*
X265163096Y-125988906D01*
X265160907Y-125975293D01*
X265144232Y-125816635D01*
X265144232Y-125816633D01*
X265143542Y-125810072D01*
X265084527Y-125628444D01*
X265074555Y-125611172D01*
X265052228Y-125572500D01*
X265035490Y-125503504D01*
X265058711Y-125436412D01*
X265114518Y-125392525D01*
X265161347Y-125383500D01*
X266831188Y-125383500D01*
X266899309Y-125403502D01*
X266945802Y-125457158D01*
X266954046Y-125521702D01*
X266956457Y-125521913D01*
X266936502Y-125750000D01*
X266956457Y-125978087D01*
X266957881Y-125983400D01*
X266957881Y-125983402D01*
X266976053Y-126051218D01*
X267015716Y-126199243D01*
X267018039Y-126204224D01*
X267018039Y-126204225D01*
X267110151Y-126401762D01*
X267110154Y-126401767D01*
X267112477Y-126406749D01*
X267156931Y-126470236D01*
X267238903Y-126587303D01*
X267243802Y-126594300D01*
X267405700Y-126756198D01*
X267410208Y-126759355D01*
X267410211Y-126759357D01*
X267479182Y-126807651D01*
X267593251Y-126887523D01*
X267598233Y-126889846D01*
X267598238Y-126889849D01*
X267783416Y-126976198D01*
X267800757Y-126984284D01*
X267806065Y-126985706D01*
X267806067Y-126985707D01*
X268016598Y-127042119D01*
X268016600Y-127042119D01*
X268021913Y-127043543D01*
X268250000Y-127063498D01*
X268478087Y-127043543D01*
X268483400Y-127042119D01*
X268483402Y-127042119D01*
X268693933Y-126985707D01*
X268693935Y-126985706D01*
X268699243Y-126984284D01*
X268716584Y-126976198D01*
X268901762Y-126889849D01*
X268901767Y-126889846D01*
X268906749Y-126887523D01*
X269020818Y-126807651D01*
X269089789Y-126759357D01*
X269089792Y-126759355D01*
X269094300Y-126756198D01*
X269256198Y-126594300D01*
X269261098Y-126587303D01*
X269384369Y-126411253D01*
X269387523Y-126406749D01*
X269389846Y-126401767D01*
X269390882Y-126399973D01*
X269442266Y-126350981D01*
X269511979Y-126337546D01*
X269577890Y-126363934D01*
X269609118Y-126399973D01*
X269610154Y-126401767D01*
X269612477Y-126406749D01*
X269615631Y-126411253D01*
X269738903Y-126587303D01*
X269743802Y-126594300D01*
X269905700Y-126756198D01*
X269910208Y-126759355D01*
X269910211Y-126759357D01*
X269979182Y-126807651D01*
X270093251Y-126887523D01*
X270098233Y-126889846D01*
X270098238Y-126889849D01*
X270283416Y-126976198D01*
X270300757Y-126984284D01*
X270306065Y-126985706D01*
X270306067Y-126985707D01*
X270516598Y-127042119D01*
X270516600Y-127042119D01*
X270521913Y-127043543D01*
X270750000Y-127063498D01*
X270978087Y-127043543D01*
X270983400Y-127042119D01*
X270983402Y-127042119D01*
X271193933Y-126985707D01*
X271193935Y-126985706D01*
X271199243Y-126984284D01*
X271216584Y-126976198D01*
X271401762Y-126889849D01*
X271401767Y-126889846D01*
X271406749Y-126887523D01*
X271520818Y-126807651D01*
X271589789Y-126759357D01*
X271589792Y-126759355D01*
X271594300Y-126756198D01*
X271756198Y-126594300D01*
X271761098Y-126587303D01*
X271843069Y-126470236D01*
X271887523Y-126406749D01*
X271889846Y-126401767D01*
X271889849Y-126401762D01*
X271981961Y-126204225D01*
X271981961Y-126204224D01*
X271984284Y-126199243D01*
X272023948Y-126051218D01*
X272042119Y-125983402D01*
X272042119Y-125983400D01*
X272043543Y-125978087D01*
X272063498Y-125750000D01*
X272043543Y-125521913D01*
X272038610Y-125503504D01*
X271985707Y-125306067D01*
X271985706Y-125306065D01*
X271984284Y-125300757D01*
X271981961Y-125295775D01*
X271889849Y-125098238D01*
X271889846Y-125098233D01*
X271887523Y-125093251D01*
X271756198Y-124905700D01*
X271594300Y-124743802D01*
X271589792Y-124740645D01*
X271589789Y-124740643D01*
X271511611Y-124685902D01*
X271406749Y-124612477D01*
X271401767Y-124610154D01*
X271401762Y-124610151D01*
X271204225Y-124518039D01*
X271204224Y-124518039D01*
X271199243Y-124515716D01*
X271193935Y-124514294D01*
X271193933Y-124514293D01*
X270983402Y-124457881D01*
X270983400Y-124457881D01*
X270978087Y-124456457D01*
X270750000Y-124436502D01*
X270521913Y-124456457D01*
X270458458Y-124473460D01*
X270387482Y-124471770D01*
X270336753Y-124440848D01*
X266170405Y-120274500D01*
X266136379Y-120212188D01*
X266133500Y-120185405D01*
X266133500Y-118328768D01*
X266134027Y-118317585D01*
X266135702Y-118310092D01*
X266133562Y-118242001D01*
X266133500Y-118238044D01*
X266133500Y-118210144D01*
X266132996Y-118206153D01*
X266132063Y-118194311D01*
X266131926Y-118189928D01*
X266130674Y-118150111D01*
X266125021Y-118130652D01*
X266121012Y-118111293D01*
X266120846Y-118109983D01*
X266118474Y-118091203D01*
X266115558Y-118083837D01*
X266115556Y-118083831D01*
X266102200Y-118050098D01*
X266098355Y-118038868D01*
X266088230Y-118004017D01*
X266088230Y-118004016D01*
X266086019Y-117996407D01*
X266075705Y-117978966D01*
X266067008Y-117961213D01*
X266062472Y-117949758D01*
X266059552Y-117942383D01*
X266033563Y-117906612D01*
X266027047Y-117896692D01*
X266008578Y-117865463D01*
X266004542Y-117858638D01*
X265990221Y-117844317D01*
X265977380Y-117829283D01*
X265965472Y-117812893D01*
X265959368Y-117807843D01*
X265959363Y-117807838D01*
X265931402Y-117784707D01*
X265922621Y-117776717D01*
X265003647Y-116857742D01*
X264996113Y-116849463D01*
X264992000Y-116842982D01*
X264942348Y-116796356D01*
X264939507Y-116793602D01*
X264919770Y-116773865D01*
X264916573Y-116771385D01*
X264907551Y-116763680D01*
X264875321Y-116733414D01*
X264868375Y-116729595D01*
X264868372Y-116729593D01*
X264857566Y-116723652D01*
X264841047Y-116712801D01*
X264836518Y-116709288D01*
X264825041Y-116700386D01*
X264817772Y-116697241D01*
X264817768Y-116697238D01*
X264784463Y-116682826D01*
X264773813Y-116677609D01*
X264735060Y-116656305D01*
X264715437Y-116651267D01*
X264696734Y-116644863D01*
X264685420Y-116639967D01*
X264685419Y-116639967D01*
X264678145Y-116636819D01*
X264670322Y-116635580D01*
X264670312Y-116635577D01*
X264634476Y-116629901D01*
X264622856Y-116627495D01*
X264587711Y-116618472D01*
X264587710Y-116618472D01*
X264580030Y-116616500D01*
X264559776Y-116616500D01*
X264540065Y-116614949D01*
X264527886Y-116613020D01*
X264520057Y-116611780D01*
X264483127Y-116615271D01*
X264476039Y-116615941D01*
X264464181Y-116616500D01*
X256833594Y-116616500D01*
X256765473Y-116596498D01*
X256718980Y-116542842D01*
X256708876Y-116472568D01*
X256738370Y-116407988D01*
X256744499Y-116401405D01*
X259238887Y-113907018D01*
X261975500Y-111170405D01*
X262037812Y-111136379D01*
X262064595Y-111133500D01*
X271541800Y-111133500D01*
X271609921Y-111153502D01*
X271629147Y-111169843D01*
X271629420Y-111169540D01*
X271634332Y-111173963D01*
X271638747Y-111178866D01*
X271644197Y-111182826D01*
X271784178Y-111284528D01*
X271793248Y-111291118D01*
X271799276Y-111293802D01*
X271799278Y-111293803D01*
X271928873Y-111351502D01*
X271967712Y-111368794D01*
X272061113Y-111388647D01*
X272148056Y-111407128D01*
X272148061Y-111407128D01*
X272154513Y-111408500D01*
X272345487Y-111408500D01*
X272351939Y-111407128D01*
X272351944Y-111407128D01*
X272464303Y-111383245D01*
X272535094Y-111388647D01*
X272591727Y-111431464D01*
X272616220Y-111498102D01*
X272616500Y-111506492D01*
X272616500Y-135935406D01*
X272596498Y-136003527D01*
X272579595Y-136024501D01*
X271549500Y-137054595D01*
X271487188Y-137088621D01*
X271460405Y-137091500D01*
X271404513Y-137091500D01*
X271398061Y-137092872D01*
X271398056Y-137092872D01*
X271333445Y-137106606D01*
X271217712Y-137131206D01*
X271211682Y-137133891D01*
X271211681Y-137133891D01*
X271049278Y-137206197D01*
X271049276Y-137206198D01*
X271043248Y-137208882D01*
X270888747Y-137321134D01*
X270760960Y-137463056D01*
X270738133Y-137502593D01*
X270686011Y-137592872D01*
X270665473Y-137628444D01*
X270644380Y-137693362D01*
X270624535Y-137754437D01*
X270584461Y-137813042D01*
X270519064Y-137840679D01*
X270504702Y-137841500D01*
X270404513Y-137841500D01*
X270398061Y-137842872D01*
X270398056Y-137842872D01*
X270311112Y-137861353D01*
X270217712Y-137881206D01*
X270211682Y-137883891D01*
X270211681Y-137883891D01*
X270049278Y-137956197D01*
X270049276Y-137956198D01*
X270043248Y-137958882D01*
X269888747Y-138071134D01*
X269884326Y-138076044D01*
X269884325Y-138076045D01*
X269766632Y-138206757D01*
X269760960Y-138213056D01*
X269727072Y-138271752D01*
X269681958Y-138349892D01*
X269665473Y-138378444D01*
X269606458Y-138560072D01*
X269605768Y-138566633D01*
X269605768Y-138566635D01*
X269594099Y-138677659D01*
X269586496Y-138750000D01*
X269587186Y-138756565D01*
X269604752Y-138923692D01*
X269606458Y-138939928D01*
X269665473Y-139121556D01*
X269668776Y-139127278D01*
X269668777Y-139127279D01*
X269697557Y-139177127D01*
X269760960Y-139286944D01*
X269765378Y-139291851D01*
X269765379Y-139291852D01*
X269816296Y-139348401D01*
X269888747Y-139428866D01*
X270043248Y-139541118D01*
X270049276Y-139543802D01*
X270049278Y-139543803D01*
X270171796Y-139598351D01*
X270217712Y-139618794D01*
X270302249Y-139636763D01*
X270398056Y-139657128D01*
X270398061Y-139657128D01*
X270404513Y-139658500D01*
X270595487Y-139658500D01*
X270601940Y-139657128D01*
X270601944Y-139657128D01*
X270657370Y-139645347D01*
X270685093Y-139639454D01*
X270715246Y-139636763D01*
X270722112Y-139636979D01*
X270729943Y-139638219D01*
X270737835Y-139637473D01*
X270773954Y-139634059D01*
X270785811Y-139633500D01*
X271446538Y-139633500D01*
X271457721Y-139634027D01*
X271465214Y-139635702D01*
X271473140Y-139635453D01*
X271473141Y-139635453D01*
X271533291Y-139633562D01*
X271537250Y-139633500D01*
X271565161Y-139633500D01*
X271569096Y-139633003D01*
X271569161Y-139632995D01*
X271580998Y-139632062D01*
X271613256Y-139631048D01*
X271617275Y-139630922D01*
X271625194Y-139630673D01*
X271644648Y-139625021D01*
X271664005Y-139621013D01*
X271676235Y-139619468D01*
X271676236Y-139619468D01*
X271684102Y-139618474D01*
X271691473Y-139615555D01*
X271691475Y-139615555D01*
X271725217Y-139602196D01*
X271736447Y-139598351D01*
X271771288Y-139588229D01*
X271771289Y-139588229D01*
X271778898Y-139586018D01*
X271785717Y-139581985D01*
X271785722Y-139581983D01*
X271796333Y-139575707D01*
X271814081Y-139567012D01*
X271832922Y-139559552D01*
X271863637Y-139537237D01*
X271868692Y-139533564D01*
X271878612Y-139527048D01*
X271909840Y-139508580D01*
X271909843Y-139508578D01*
X271916667Y-139504542D01*
X271930988Y-139490221D01*
X271946022Y-139477380D01*
X271955999Y-139470131D01*
X271962412Y-139465472D01*
X271990603Y-139431395D01*
X271998593Y-139422616D01*
X274142253Y-137278957D01*
X274150539Y-137271417D01*
X274157018Y-137267305D01*
X274203644Y-137217653D01*
X274206398Y-137214812D01*
X274226135Y-137195075D01*
X274228615Y-137191878D01*
X274236320Y-137182856D01*
X274261159Y-137156405D01*
X274266586Y-137150626D01*
X274270405Y-137143680D01*
X274270407Y-137143677D01*
X274276348Y-137132871D01*
X274287199Y-137116352D01*
X274294758Y-137106606D01*
X274299614Y-137100346D01*
X274302759Y-137093077D01*
X274302762Y-137093073D01*
X274317174Y-137059768D01*
X274322391Y-137049118D01*
X274343695Y-137010365D01*
X274348733Y-136990742D01*
X274355137Y-136972039D01*
X274360033Y-136960725D01*
X274360033Y-136960724D01*
X274363181Y-136953450D01*
X274364420Y-136945627D01*
X274364423Y-136945617D01*
X274370099Y-136909781D01*
X274372505Y-136898161D01*
X274381528Y-136863016D01*
X274381528Y-136863015D01*
X274383500Y-136855335D01*
X274383500Y-136835081D01*
X274385051Y-136815370D01*
X274386980Y-136803191D01*
X274388220Y-136795362D01*
X274384059Y-136751343D01*
X274383500Y-136739486D01*
X274383500Y-111534500D01*
X274403502Y-111466379D01*
X274457158Y-111419886D01*
X274509500Y-111408500D01*
X274595487Y-111408500D01*
X274601939Y-111407128D01*
X274601944Y-111407128D01*
X274688888Y-111388647D01*
X274782288Y-111368794D01*
X274821127Y-111351502D01*
X274950722Y-111293803D01*
X274950724Y-111293802D01*
X274956752Y-111291118D01*
X274965823Y-111284528D01*
X275036174Y-111233414D01*
X275111253Y-111178866D01*
X275139223Y-111147802D01*
X275234621Y-111041852D01*
X275234622Y-111041851D01*
X275239040Y-111036944D01*
X275334527Y-110871556D01*
X275393542Y-110689928D01*
X275413504Y-110500000D01*
X275398553Y-110357747D01*
X275394232Y-110316635D01*
X275394232Y-110316633D01*
X275393542Y-110310072D01*
X275387614Y-110291827D01*
X275385585Y-110220862D01*
X275422246Y-110160063D01*
X275481248Y-110129644D01*
X275525824Y-110120169D01*
X275525833Y-110120166D01*
X275532288Y-110118794D01*
X275541827Y-110114547D01*
X275700722Y-110043803D01*
X275700724Y-110043802D01*
X275706752Y-110041118D01*
X275861253Y-109928866D01*
X275989040Y-109786944D01*
X276084527Y-109621556D01*
X276143542Y-109439928D01*
X276163504Y-109250000D01*
X276143542Y-109060072D01*
X276084527Y-108878444D01*
X275989040Y-108713056D01*
X275972882Y-108695110D01*
X275865675Y-108576045D01*
X275865674Y-108576044D01*
X275861253Y-108571134D01*
X275706752Y-108458882D01*
X275700724Y-108456198D01*
X275696496Y-108453757D01*
X275647505Y-108402373D01*
X275633500Y-108344640D01*
X275633500Y-106314594D01*
X275653502Y-106246473D01*
X275670405Y-106225499D01*
X276825499Y-105070405D01*
X276887811Y-105036379D01*
X276914594Y-105033500D01*
X313835406Y-105033500D01*
X313903527Y-105053502D01*
X313924501Y-105070405D01*
X315079595Y-106225499D01*
X315113621Y-106287811D01*
X315116500Y-106314594D01*
X315116500Y-121547476D01*
X315096498Y-121615597D01*
X315084142Y-121631779D01*
X315010960Y-121713056D01*
X314915473Y-121878444D01*
X314856458Y-122060072D01*
X314855768Y-122066633D01*
X314855768Y-122066635D01*
X314845341Y-122165847D01*
X314836496Y-122250000D01*
X314837186Y-122256565D01*
X314850733Y-122385453D01*
X314856458Y-122439928D01*
X314915473Y-122621556D01*
X314918776Y-122627278D01*
X314918777Y-122627279D01*
X314952686Y-122686010D01*
X315010960Y-122786944D01*
X315015378Y-122791851D01*
X315015379Y-122791852D01*
X315082592Y-122866500D01*
X315138747Y-122928866D01*
X315293248Y-123041118D01*
X315299276Y-123043802D01*
X315299278Y-123043803D01*
X315461681Y-123116109D01*
X315467712Y-123118794D01*
X315542680Y-123134729D01*
X315648056Y-123157128D01*
X315648061Y-123157128D01*
X315654513Y-123158500D01*
X315845487Y-123158500D01*
X315851939Y-123157128D01*
X315851944Y-123157128D01*
X315957320Y-123134729D01*
X316032288Y-123118794D01*
X316038319Y-123116109D01*
X316200722Y-123043803D01*
X316200724Y-123043802D01*
X316206752Y-123041118D01*
X316361253Y-122928866D01*
X316417408Y-122866500D01*
X316484621Y-122791852D01*
X316484622Y-122791851D01*
X316489040Y-122786944D01*
X316547314Y-122686010D01*
X316581223Y-122627279D01*
X316581224Y-122627278D01*
X316584527Y-122621556D01*
X316643542Y-122439928D01*
X316649268Y-122385453D01*
X316662814Y-122256565D01*
X316663504Y-122250000D01*
X316654659Y-122165847D01*
X316644232Y-122066635D01*
X316644232Y-122066633D01*
X316643542Y-122060072D01*
X316584527Y-121878444D01*
X316489040Y-121713056D01*
X316415863Y-121631785D01*
X316385147Y-121567779D01*
X316383500Y-121547476D01*
X316383500Y-106078768D01*
X316384027Y-106067585D01*
X316385702Y-106060092D01*
X316383562Y-105992001D01*
X316383500Y-105988044D01*
X316383500Y-105960144D01*
X316382996Y-105956153D01*
X316382063Y-105944311D01*
X316380923Y-105908036D01*
X316380674Y-105900111D01*
X316378462Y-105892497D01*
X316378461Y-105892492D01*
X316375023Y-105880659D01*
X316371012Y-105861295D01*
X316369467Y-105849064D01*
X316368474Y-105841203D01*
X316365557Y-105833836D01*
X316365556Y-105833831D01*
X316352198Y-105800092D01*
X316348354Y-105788865D01*
X316338230Y-105754022D01*
X316336018Y-105746407D01*
X316325707Y-105728972D01*
X316317012Y-105711224D01*
X316309552Y-105692383D01*
X316283564Y-105656613D01*
X316277048Y-105646693D01*
X316258580Y-105615465D01*
X316258578Y-105615462D01*
X316254542Y-105608638D01*
X316240221Y-105594317D01*
X316227380Y-105579283D01*
X316220131Y-105569306D01*
X316215472Y-105562893D01*
X316181395Y-105534702D01*
X316172626Y-105526722D01*
X315394498Y-104748593D01*
X315360474Y-104686283D01*
X315365539Y-104615467D01*
X315408086Y-104558632D01*
X315474606Y-104533821D01*
X315483595Y-104533500D01*
X319085406Y-104533500D01*
X319153527Y-104553502D01*
X319174501Y-104570405D01*
X320579595Y-105975500D01*
X320613621Y-106037812D01*
X320616500Y-106064595D01*
X320616500Y-121547476D01*
X320596498Y-121615597D01*
X320584142Y-121631779D01*
X320510960Y-121713056D01*
X320415473Y-121878444D01*
X320356458Y-122060072D01*
X320355768Y-122066633D01*
X320355768Y-122066635D01*
X320345341Y-122165847D01*
X320336496Y-122250000D01*
X320337186Y-122256565D01*
X320350733Y-122385453D01*
X320356458Y-122439928D01*
X320415473Y-122621556D01*
X320418776Y-122627278D01*
X320418777Y-122627279D01*
X320452686Y-122686010D01*
X320510960Y-122786944D01*
X320515378Y-122791851D01*
X320515379Y-122791852D01*
X320582592Y-122866500D01*
X320638747Y-122928866D01*
X320793248Y-123041118D01*
X320799276Y-123043802D01*
X320799278Y-123043803D01*
X320961681Y-123116109D01*
X320967712Y-123118794D01*
X321042680Y-123134729D01*
X321148056Y-123157128D01*
X321148061Y-123157128D01*
X321154513Y-123158500D01*
X321345487Y-123158500D01*
X321351939Y-123157128D01*
X321351944Y-123157128D01*
X321457320Y-123134729D01*
X321532288Y-123118794D01*
X321538319Y-123116109D01*
X321700722Y-123043803D01*
X321700724Y-123043802D01*
X321706752Y-123041118D01*
X321861253Y-122928866D01*
X321917408Y-122866500D01*
X321984621Y-122791852D01*
X321984622Y-122791851D01*
X321989040Y-122786944D01*
X322047314Y-122686010D01*
X322081223Y-122627279D01*
X322081224Y-122627278D01*
X322084527Y-122621556D01*
X322143542Y-122439928D01*
X322149268Y-122385453D01*
X322162814Y-122256565D01*
X322163504Y-122250000D01*
X322154659Y-122165847D01*
X322144232Y-122066635D01*
X322144232Y-122066633D01*
X322143542Y-122060072D01*
X322084527Y-121878444D01*
X321989040Y-121713056D01*
X321915863Y-121631785D01*
X321885147Y-121567779D01*
X321883500Y-121547476D01*
X321883500Y-105828767D01*
X321884027Y-105817584D01*
X321885702Y-105810091D01*
X321883940Y-105754022D01*
X321883562Y-105742014D01*
X321883500Y-105738055D01*
X321883500Y-105710144D01*
X321882995Y-105706144D01*
X321882062Y-105694301D01*
X321880922Y-105658029D01*
X321880673Y-105650110D01*
X321875022Y-105630658D01*
X321871014Y-105611306D01*
X321869467Y-105599063D01*
X321868474Y-105591203D01*
X321857939Y-105564594D01*
X321852200Y-105550097D01*
X321848355Y-105538870D01*
X321846046Y-105530923D01*
X321836018Y-105496407D01*
X321825707Y-105478972D01*
X321817012Y-105461224D01*
X321809552Y-105442383D01*
X321783564Y-105406613D01*
X321777048Y-105396693D01*
X321758580Y-105365465D01*
X321758578Y-105365462D01*
X321754542Y-105358638D01*
X321740221Y-105344317D01*
X321727380Y-105329283D01*
X321727002Y-105328763D01*
X321715472Y-105312893D01*
X321681395Y-105284702D01*
X321672616Y-105276712D01*
X320694500Y-104298595D01*
X320660474Y-104236283D01*
X320665539Y-104165467D01*
X320708086Y-104108632D01*
X320774606Y-104083821D01*
X320783595Y-104083500D01*
X325135406Y-104083500D01*
X325203527Y-104103502D01*
X325224501Y-104120405D01*
X326579595Y-105475499D01*
X326613621Y-105537811D01*
X326616500Y-105564594D01*
X326616500Y-107047476D01*
X326596498Y-107115597D01*
X326584142Y-107131779D01*
X326510960Y-107213056D01*
X326415473Y-107378444D01*
X326356458Y-107560072D01*
X326336496Y-107750000D01*
X326356458Y-107939928D01*
X326415473Y-108121556D01*
X326510960Y-108286944D01*
X326515378Y-108291851D01*
X326515379Y-108291852D01*
X326634325Y-108423955D01*
X326638747Y-108428866D01*
X326793248Y-108541118D01*
X326799276Y-108543802D01*
X326799278Y-108543803D01*
X326958173Y-108614547D01*
X326967712Y-108618794D01*
X327061113Y-108638647D01*
X327148056Y-108657128D01*
X327148061Y-108657128D01*
X327154513Y-108658500D01*
X327345487Y-108658500D01*
X327351939Y-108657128D01*
X327351944Y-108657128D01*
X327438887Y-108638647D01*
X327532288Y-108618794D01*
X327541827Y-108614547D01*
X327700722Y-108543803D01*
X327700724Y-108543802D01*
X327706752Y-108541118D01*
X327861253Y-108428866D01*
X327865675Y-108423955D01*
X327984621Y-108291852D01*
X327984622Y-108291851D01*
X327989040Y-108286944D01*
X328084527Y-108121556D01*
X328143542Y-107939928D01*
X328163504Y-107750000D01*
X328143542Y-107560072D01*
X328084527Y-107378444D01*
X327989040Y-107213056D01*
X327915863Y-107131785D01*
X327885147Y-107067779D01*
X327883500Y-107047476D01*
X327883500Y-105328763D01*
X327884027Y-105317579D01*
X327885701Y-105310091D01*
X327883562Y-105242032D01*
X327883500Y-105238075D01*
X327883500Y-105210144D01*
X327882994Y-105206138D01*
X327882061Y-105194292D01*
X327880922Y-105158037D01*
X327880673Y-105150110D01*
X327875022Y-105130658D01*
X327871014Y-105111306D01*
X327869468Y-105099068D01*
X327869467Y-105099066D01*
X327868474Y-105091203D01*
X327852194Y-105050086D01*
X327848359Y-105038885D01*
X327836018Y-104996406D01*
X327831985Y-104989587D01*
X327831983Y-104989582D01*
X327825707Y-104978971D01*
X327817010Y-104961221D01*
X327809552Y-104942383D01*
X327783571Y-104906623D01*
X327777053Y-104896701D01*
X327758578Y-104865460D01*
X327758574Y-104865455D01*
X327754542Y-104858637D01*
X327740218Y-104844313D01*
X327727376Y-104829278D01*
X327721983Y-104821855D01*
X327715472Y-104812893D01*
X327681406Y-104784711D01*
X327672627Y-104776722D01*
X326744500Y-103848595D01*
X326710474Y-103786283D01*
X326715539Y-103715468D01*
X326758086Y-103658632D01*
X326824606Y-103633821D01*
X326833595Y-103633500D01*
X368935406Y-103633500D01*
X369003527Y-103653502D01*
X369024501Y-103670405D01*
X370579595Y-105225500D01*
X370613621Y-105287812D01*
X370616500Y-105314595D01*
X370616500Y-115797476D01*
X370596498Y-115865597D01*
X370584142Y-115881779D01*
X370510960Y-115963056D01*
X370482322Y-116012659D01*
X370435843Y-116093163D01*
X370415473Y-116128444D01*
X370356458Y-116310072D01*
X370355768Y-116316633D01*
X370355768Y-116316635D01*
X370339832Y-116468260D01*
X370336496Y-116500000D01*
X370337186Y-116506565D01*
X370355712Y-116682826D01*
X370356458Y-116689928D01*
X370415473Y-116871556D01*
X370418776Y-116877278D01*
X370418777Y-116877279D01*
X370432491Y-116901032D01*
X370510960Y-117036944D01*
X370515378Y-117041851D01*
X370515379Y-117041852D01*
X370606047Y-117142549D01*
X370638747Y-117178866D01*
X370685402Y-117212763D01*
X370756034Y-117264080D01*
X370793248Y-117291118D01*
X370799276Y-117293802D01*
X370799278Y-117293803D01*
X370961681Y-117366109D01*
X370967712Y-117368794D01*
X371061112Y-117388647D01*
X371148056Y-117407128D01*
X371148061Y-117407128D01*
X371154513Y-117408500D01*
X371345487Y-117408500D01*
X371351939Y-117407128D01*
X371351944Y-117407128D01*
X371438888Y-117388647D01*
X371532288Y-117368794D01*
X371538319Y-117366109D01*
X371700722Y-117293803D01*
X371700724Y-117293802D01*
X371706752Y-117291118D01*
X371743967Y-117264080D01*
X371814598Y-117212763D01*
X371861253Y-117178866D01*
X371893953Y-117142549D01*
X371984621Y-117041852D01*
X371984622Y-117041851D01*
X371989040Y-117036944D01*
X372067509Y-116901032D01*
X372081223Y-116877279D01*
X372081224Y-116877278D01*
X372084527Y-116871556D01*
X372143542Y-116689928D01*
X372144289Y-116682826D01*
X372162814Y-116506565D01*
X372163504Y-116500000D01*
X372160168Y-116468260D01*
X372144232Y-116316635D01*
X372144232Y-116316633D01*
X372143542Y-116310072D01*
X372084527Y-116128444D01*
X372064158Y-116093163D01*
X372017678Y-116012659D01*
X371989040Y-115963056D01*
X371915863Y-115881785D01*
X371885147Y-115817779D01*
X371883500Y-115797476D01*
X371883500Y-115790911D01*
X378245477Y-115790911D01*
X378245677Y-115796240D01*
X378245677Y-115796241D01*
X378248763Y-115878444D01*
X378254445Y-116029774D01*
X378259284Y-116052837D01*
X378302031Y-116256565D01*
X378303530Y-116263711D01*
X378391329Y-116486033D01*
X378515332Y-116690383D01*
X378518829Y-116694413D01*
X378662547Y-116860033D01*
X378671993Y-116870919D01*
X378676119Y-116874302D01*
X378676123Y-116874306D01*
X378732754Y-116920740D01*
X378856833Y-117022478D01*
X378861469Y-117025117D01*
X378861472Y-117025119D01*
X379013714Y-117111780D01*
X379064566Y-117140727D01*
X379289253Y-117222284D01*
X379294502Y-117223233D01*
X379294505Y-117223234D01*
X379520385Y-117264080D01*
X379520393Y-117264081D01*
X379524469Y-117264818D01*
X379542859Y-117265685D01*
X379548044Y-117265930D01*
X379548051Y-117265930D01*
X379549532Y-117266000D01*
X381517512Y-117266000D01*
X381695675Y-117250883D01*
X381700839Y-117249543D01*
X381700843Y-117249542D01*
X381921875Y-117192173D01*
X381921880Y-117192171D01*
X381927040Y-117190832D01*
X381947733Y-117181510D01*
X382140119Y-117094847D01*
X382140122Y-117094846D01*
X382144980Y-117092657D01*
X382343262Y-116959166D01*
X382385837Y-116918552D01*
X382422580Y-116883500D01*
X382516218Y-116794174D01*
X382566841Y-116726135D01*
X382618265Y-116657018D01*
X382658902Y-116602400D01*
X382679749Y-116561398D01*
X382764814Y-116394086D01*
X382764814Y-116394085D01*
X382767233Y-116389328D01*
X382826698Y-116197821D01*
X382836532Y-116166151D01*
X382836533Y-116166145D01*
X382838116Y-116161048D01*
X382861680Y-115983262D01*
X382868823Y-115929373D01*
X382868823Y-115929369D01*
X382869523Y-115924089D01*
X382867887Y-115880500D01*
X382864523Y-115790911D01*
X382860555Y-115685226D01*
X382838952Y-115582266D01*
X382812567Y-115456516D01*
X382812566Y-115456513D01*
X382811470Y-115451289D01*
X382723671Y-115228967D01*
X382599668Y-115024617D01*
X382509603Y-114920826D01*
X382446507Y-114848114D01*
X382446505Y-114848112D01*
X382443007Y-114844081D01*
X382438881Y-114840698D01*
X382438877Y-114840694D01*
X382262295Y-114695907D01*
X382258167Y-114692522D01*
X382253531Y-114689883D01*
X382253528Y-114689881D01*
X382055077Y-114576916D01*
X382050434Y-114574273D01*
X381825747Y-114492716D01*
X381820498Y-114491767D01*
X381820495Y-114491766D01*
X381594615Y-114450920D01*
X381594607Y-114450919D01*
X381590531Y-114450182D01*
X381572141Y-114449315D01*
X381566956Y-114449070D01*
X381566949Y-114449070D01*
X381565468Y-114449000D01*
X379597488Y-114449000D01*
X379419325Y-114464117D01*
X379414161Y-114465457D01*
X379414157Y-114465458D01*
X379193125Y-114522827D01*
X379193120Y-114522829D01*
X379187960Y-114524168D01*
X379183094Y-114526360D01*
X378974881Y-114620153D01*
X378974878Y-114620154D01*
X378970020Y-114622343D01*
X378771738Y-114755834D01*
X378767881Y-114759513D01*
X378767879Y-114759515D01*
X378696036Y-114828050D01*
X378598782Y-114920826D01*
X378456098Y-115112600D01*
X378453682Y-115117351D01*
X378453680Y-115117355D01*
X378358483Y-115304595D01*
X378347767Y-115325672D01*
X378327803Y-115389967D01*
X378278468Y-115548849D01*
X378278467Y-115548855D01*
X378276884Y-115553952D01*
X378270582Y-115601502D01*
X378256447Y-115708148D01*
X378245477Y-115790911D01*
X371883500Y-115790911D01*
X371883500Y-111477900D01*
X378249000Y-111477900D01*
X378249337Y-111481146D01*
X378249337Y-111481150D01*
X378258674Y-111571134D01*
X378259974Y-111583666D01*
X378262155Y-111590202D01*
X378262155Y-111590204D01*
X378281196Y-111647275D01*
X378315950Y-111751446D01*
X378409022Y-111901848D01*
X378534197Y-112026805D01*
X378540427Y-112030645D01*
X378540428Y-112030646D01*
X378677590Y-112115194D01*
X378684762Y-112119615D01*
X378764505Y-112146064D01*
X378846111Y-112173132D01*
X378846113Y-112173132D01*
X378852639Y-112175297D01*
X378859475Y-112175997D01*
X378859478Y-112175998D01*
X378902531Y-112180409D01*
X378957100Y-112186000D01*
X382157900Y-112186000D01*
X382161146Y-112185663D01*
X382161150Y-112185663D01*
X382256808Y-112175738D01*
X382256812Y-112175737D01*
X382263666Y-112175026D01*
X382270202Y-112172845D01*
X382270204Y-112172845D01*
X382419585Y-112123007D01*
X382431446Y-112119050D01*
X382581848Y-112025978D01*
X382706805Y-111900803D01*
X382773106Y-111793243D01*
X382795775Y-111756468D01*
X382795776Y-111756466D01*
X382799615Y-111750238D01*
X382828532Y-111663056D01*
X382853132Y-111588889D01*
X382853132Y-111588887D01*
X382855297Y-111582361D01*
X382856239Y-111573173D01*
X382861570Y-111521134D01*
X382866000Y-111477900D01*
X382866000Y-110077100D01*
X382855026Y-109971334D01*
X382799050Y-109803554D01*
X382705978Y-109653152D01*
X382580803Y-109528195D01*
X382437608Y-109439928D01*
X382436468Y-109439225D01*
X382436466Y-109439224D01*
X382430238Y-109435385D01*
X382269754Y-109382155D01*
X382268889Y-109381868D01*
X382268887Y-109381868D01*
X382262361Y-109379703D01*
X382255525Y-109379003D01*
X382255522Y-109379002D01*
X382212469Y-109374591D01*
X382157900Y-109369000D01*
X378957100Y-109369000D01*
X378953854Y-109369337D01*
X378953850Y-109369337D01*
X378858192Y-109379262D01*
X378858188Y-109379263D01*
X378851334Y-109379974D01*
X378844798Y-109382155D01*
X378844796Y-109382155D01*
X378712694Y-109426228D01*
X378683554Y-109435950D01*
X378533152Y-109529022D01*
X378408195Y-109654197D01*
X378315385Y-109804762D01*
X378259703Y-109972639D01*
X378249000Y-110077100D01*
X378249000Y-111477900D01*
X371883500Y-111477900D01*
X371883500Y-105078767D01*
X371884027Y-105067584D01*
X371885702Y-105060091D01*
X371883562Y-104992014D01*
X371883500Y-104988055D01*
X371883500Y-104960144D01*
X371882995Y-104956144D01*
X371882062Y-104944301D01*
X371881547Y-104927899D01*
X371880673Y-104900110D01*
X371875022Y-104880658D01*
X371871014Y-104861306D01*
X371869467Y-104849063D01*
X371868474Y-104841203D01*
X371860814Y-104821855D01*
X371852200Y-104800097D01*
X371848355Y-104788870D01*
X371847103Y-104784562D01*
X371836018Y-104746407D01*
X371825707Y-104728972D01*
X371817012Y-104711224D01*
X371809552Y-104692383D01*
X371783564Y-104656613D01*
X371777048Y-104646693D01*
X371758580Y-104615465D01*
X371758578Y-104615462D01*
X371754542Y-104608638D01*
X371740221Y-104594317D01*
X371727380Y-104579283D01*
X371720131Y-104569306D01*
X371715472Y-104562893D01*
X371681395Y-104534702D01*
X371672616Y-104526712D01*
X369753652Y-102607747D01*
X369746112Y-102599461D01*
X369742000Y-102592982D01*
X369692348Y-102546356D01*
X369689507Y-102543602D01*
X369669770Y-102523865D01*
X369666573Y-102521385D01*
X369657551Y-102513680D01*
X369644122Y-102501069D01*
X369625321Y-102483414D01*
X369618375Y-102479595D01*
X369618372Y-102479593D01*
X369607566Y-102473652D01*
X369591047Y-102462801D01*
X369590583Y-102462441D01*
X369575041Y-102450386D01*
X369567772Y-102447241D01*
X369567768Y-102447238D01*
X369534463Y-102432826D01*
X369523813Y-102427609D01*
X369485060Y-102406305D01*
X369465437Y-102401267D01*
X369446734Y-102394863D01*
X369435420Y-102389967D01*
X369435419Y-102389967D01*
X369428145Y-102386819D01*
X369420322Y-102385580D01*
X369420312Y-102385577D01*
X369384476Y-102379901D01*
X369372856Y-102377495D01*
X369337711Y-102368472D01*
X369337710Y-102368472D01*
X369330030Y-102366500D01*
X369309776Y-102366500D01*
X369290065Y-102364949D01*
X369277886Y-102363020D01*
X369270057Y-102361780D01*
X369240786Y-102364547D01*
X369226039Y-102365941D01*
X369214181Y-102366500D01*
X275328767Y-102366500D01*
X275317584Y-102365973D01*
X275310091Y-102364298D01*
X275302165Y-102364547D01*
X275302164Y-102364547D01*
X275242014Y-102366438D01*
X275238055Y-102366500D01*
X275210144Y-102366500D01*
X275206210Y-102366997D01*
X275206209Y-102366997D01*
X275206144Y-102367005D01*
X275194307Y-102367938D01*
X275162490Y-102368938D01*
X275158029Y-102369078D01*
X275150110Y-102369327D01*
X275132454Y-102374456D01*
X275130658Y-102374978D01*
X275111306Y-102378986D01*
X275104235Y-102379880D01*
X275091203Y-102381526D01*
X275083834Y-102384443D01*
X275083832Y-102384444D01*
X275050097Y-102397800D01*
X275038869Y-102401645D01*
X274996407Y-102413982D01*
X274989584Y-102418017D01*
X274989582Y-102418018D01*
X274978972Y-102424293D01*
X274961224Y-102432988D01*
X274942383Y-102440448D01*
X274935967Y-102445110D01*
X274935966Y-102445110D01*
X274906613Y-102466436D01*
X274896693Y-102472952D01*
X274865465Y-102491420D01*
X274865462Y-102491422D01*
X274858638Y-102495458D01*
X274844317Y-102509779D01*
X274829284Y-102522619D01*
X274812893Y-102534528D01*
X274804217Y-102545016D01*
X274784702Y-102568605D01*
X274776712Y-102577384D01*
X272857747Y-104496348D01*
X272849461Y-104503888D01*
X272842982Y-104508000D01*
X272837557Y-104513777D01*
X272796357Y-104557651D01*
X272793602Y-104560493D01*
X272773865Y-104580230D01*
X272771385Y-104583427D01*
X272763682Y-104592447D01*
X272733414Y-104624679D01*
X272729595Y-104631625D01*
X272729593Y-104631628D01*
X272723652Y-104642434D01*
X272712801Y-104658953D01*
X272700386Y-104674959D01*
X272697241Y-104682228D01*
X272697238Y-104682232D01*
X272682826Y-104715537D01*
X272677609Y-104726187D01*
X272656305Y-104764940D01*
X272654334Y-104772615D01*
X272654334Y-104772616D01*
X272651267Y-104784562D01*
X272644863Y-104803266D01*
X272636819Y-104821855D01*
X272635580Y-104829678D01*
X272635577Y-104829688D01*
X272629901Y-104865524D01*
X272627495Y-104877144D01*
X272616500Y-104919970D01*
X272616500Y-104940224D01*
X272614949Y-104959934D01*
X272611780Y-104979943D01*
X272612526Y-104987835D01*
X272615941Y-105023961D01*
X272616500Y-105035819D01*
X272616500Y-108243508D01*
X272596498Y-108311629D01*
X272542842Y-108358122D01*
X272472568Y-108368226D01*
X272464303Y-108366755D01*
X272351944Y-108342872D01*
X272351939Y-108342872D01*
X272345487Y-108341500D01*
X272154513Y-108341500D01*
X272148061Y-108342872D01*
X272148056Y-108342872D01*
X272076313Y-108358122D01*
X271967712Y-108381206D01*
X271961682Y-108383891D01*
X271961681Y-108383891D01*
X271799278Y-108456197D01*
X271799276Y-108456198D01*
X271793248Y-108458882D01*
X271638747Y-108571134D01*
X271634332Y-108576037D01*
X271629420Y-108580460D01*
X271628295Y-108579211D01*
X271574986Y-108612051D01*
X271541800Y-108616500D01*
X261828767Y-108616500D01*
X261817584Y-108615973D01*
X261810091Y-108614298D01*
X261802165Y-108614547D01*
X261802164Y-108614547D01*
X261742001Y-108616438D01*
X261738043Y-108616500D01*
X261710144Y-108616500D01*
X261706154Y-108617004D01*
X261694320Y-108617936D01*
X261650111Y-108619326D01*
X261642497Y-108621538D01*
X261642492Y-108621539D01*
X261630659Y-108624977D01*
X261611296Y-108628988D01*
X261591203Y-108631526D01*
X261583836Y-108634443D01*
X261583831Y-108634444D01*
X261550092Y-108647802D01*
X261538865Y-108651646D01*
X261496407Y-108663982D01*
X261489581Y-108668019D01*
X261478972Y-108674293D01*
X261461224Y-108682988D01*
X261442383Y-108690448D01*
X261435967Y-108695110D01*
X261435966Y-108695110D01*
X261406613Y-108716436D01*
X261396693Y-108722952D01*
X261365465Y-108741420D01*
X261365462Y-108741422D01*
X261358638Y-108745458D01*
X261344317Y-108759779D01*
X261329284Y-108772619D01*
X261312893Y-108784528D01*
X261307842Y-108790634D01*
X261284702Y-108818605D01*
X261276712Y-108827384D01*
X254799500Y-115304595D01*
X254737188Y-115338621D01*
X254710405Y-115341500D01*
X254654513Y-115341500D01*
X254648061Y-115342872D01*
X254648056Y-115342872D01*
X254561113Y-115361353D01*
X254467712Y-115381206D01*
X254461682Y-115383891D01*
X254461681Y-115383891D01*
X254299278Y-115456197D01*
X254299276Y-115456198D01*
X254293248Y-115458882D01*
X254138747Y-115571134D01*
X254134326Y-115576044D01*
X254134325Y-115576045D01*
X254016632Y-115706757D01*
X254010960Y-115713056D01*
X253987747Y-115753262D01*
X253931958Y-115849892D01*
X253915473Y-115878444D01*
X253856458Y-116060072D01*
X253855768Y-116066633D01*
X253855768Y-116066635D01*
X253842084Y-116196833D01*
X253836496Y-116250000D01*
X253837186Y-116256565D01*
X253850272Y-116381068D01*
X253856458Y-116439928D01*
X253915473Y-116621556D01*
X253918776Y-116627278D01*
X253918777Y-116627279D01*
X253939079Y-116662443D01*
X254010960Y-116786944D01*
X254015380Y-116791852D01*
X254019259Y-116797192D01*
X254017920Y-116798165D01*
X254045050Y-116854696D01*
X254036287Y-116925149D01*
X254018750Y-116952438D01*
X254019259Y-116952808D01*
X254015380Y-116958148D01*
X254010960Y-116963056D01*
X253997530Y-116986318D01*
X253957410Y-117055807D01*
X253906027Y-117104800D01*
X253834064Y-117117536D01*
X253830030Y-117116500D01*
X253809776Y-117116500D01*
X253790065Y-117114949D01*
X253778903Y-117113181D01*
X253770057Y-117111780D01*
X253762165Y-117112526D01*
X253726039Y-117115941D01*
X253714181Y-117116500D01*
X242314594Y-117116500D01*
X242246473Y-117096498D01*
X242225499Y-117079595D01*
X238003652Y-112857747D01*
X237996112Y-112849461D01*
X237992000Y-112842982D01*
X237942348Y-112796356D01*
X237939507Y-112793602D01*
X237919770Y-112773865D01*
X237916573Y-112771385D01*
X237907551Y-112763680D01*
X237875321Y-112733414D01*
X237868375Y-112729595D01*
X237868372Y-112729593D01*
X237857566Y-112723652D01*
X237841047Y-112712801D01*
X237840583Y-112712441D01*
X237825041Y-112700386D01*
X237817772Y-112697241D01*
X237817768Y-112697238D01*
X237784463Y-112682826D01*
X237773813Y-112677609D01*
X237735060Y-112656305D01*
X237715437Y-112651267D01*
X237696734Y-112644863D01*
X237685420Y-112639967D01*
X237685419Y-112639967D01*
X237678145Y-112636819D01*
X237670322Y-112635580D01*
X237670312Y-112635577D01*
X237634476Y-112629901D01*
X237622856Y-112627495D01*
X237587711Y-112618472D01*
X237587710Y-112618472D01*
X237580030Y-112616500D01*
X237559776Y-112616500D01*
X237540065Y-112614949D01*
X237538203Y-112614654D01*
X237520057Y-112611780D01*
X237489654Y-112614654D01*
X237476039Y-112615941D01*
X237464181Y-112616500D01*
X234509594Y-112616500D01*
X234441473Y-112596498D01*
X234394980Y-112542842D01*
X234384876Y-112472568D01*
X234389762Y-112451562D01*
X234391502Y-112446208D01*
X234391503Y-112446203D01*
X234393542Y-112439928D01*
X234413504Y-112250000D01*
X234405699Y-112175738D01*
X234394232Y-112066635D01*
X234394232Y-112066633D01*
X234393542Y-112060072D01*
X234334527Y-111878444D01*
X234239040Y-111713056D01*
X234199169Y-111668774D01*
X234115675Y-111576045D01*
X234115674Y-111576044D01*
X234111253Y-111571134D01*
X233967071Y-111466379D01*
X233962094Y-111462763D01*
X233962093Y-111462762D01*
X233956752Y-111458882D01*
X233950724Y-111456198D01*
X233950722Y-111456197D01*
X233788319Y-111383891D01*
X233788318Y-111383891D01*
X233782288Y-111381206D01*
X233671923Y-111357747D01*
X233601944Y-111342872D01*
X233601939Y-111342872D01*
X233595487Y-111341500D01*
X233539595Y-111341500D01*
X233471474Y-111321498D01*
X233450500Y-111304595D01*
X232503652Y-110357747D01*
X232496112Y-110349461D01*
X232492000Y-110342982D01*
X232466034Y-110318598D01*
X232442349Y-110296357D01*
X232439507Y-110293602D01*
X232419770Y-110273865D01*
X232416573Y-110271385D01*
X232407551Y-110263680D01*
X232403397Y-110259779D01*
X232375321Y-110233414D01*
X232368375Y-110229595D01*
X232368372Y-110229593D01*
X232357566Y-110223652D01*
X232341047Y-110212801D01*
X232340583Y-110212441D01*
X232325041Y-110200386D01*
X232317772Y-110197241D01*
X232317768Y-110197238D01*
X232284463Y-110182826D01*
X232273813Y-110177609D01*
X232235060Y-110156305D01*
X232215437Y-110151267D01*
X232196734Y-110144863D01*
X232185420Y-110139967D01*
X232185419Y-110139967D01*
X232178145Y-110136819D01*
X232170322Y-110135580D01*
X232170312Y-110135577D01*
X232134476Y-110129901D01*
X232122856Y-110127495D01*
X232087711Y-110118472D01*
X232087710Y-110118472D01*
X232080030Y-110116500D01*
X232059776Y-110116500D01*
X232040065Y-110114949D01*
X232027886Y-110113020D01*
X232020057Y-110111780D01*
X231990786Y-110114547D01*
X231976039Y-110115941D01*
X231964181Y-110116500D01*
X164928768Y-110116500D01*
X164917585Y-110115973D01*
X164910092Y-110114298D01*
X164902166Y-110114547D01*
X164902165Y-110114547D01*
X164842002Y-110116438D01*
X164838044Y-110116500D01*
X164810144Y-110116500D01*
X164806154Y-110117004D01*
X164794320Y-110117936D01*
X164750111Y-110119326D01*
X164742495Y-110121539D01*
X164742493Y-110121539D01*
X164730652Y-110124979D01*
X164711293Y-110128988D01*
X164709983Y-110129154D01*
X164691203Y-110131526D01*
X164683837Y-110134442D01*
X164683831Y-110134444D01*
X164650098Y-110147800D01*
X164638868Y-110151645D01*
X164622828Y-110156305D01*
X164596407Y-110163981D01*
X164589584Y-110168016D01*
X164578966Y-110174295D01*
X164561213Y-110182992D01*
X164553568Y-110186019D01*
X164542383Y-110190448D01*
X164528705Y-110200386D01*
X164506612Y-110216437D01*
X164496695Y-110222951D01*
X164458638Y-110245458D01*
X164444317Y-110259779D01*
X164429284Y-110272619D01*
X164412893Y-110284528D01*
X164407843Y-110290632D01*
X164407838Y-110290637D01*
X164384707Y-110318598D01*
X164376717Y-110327379D01*
X163449499Y-111254596D01*
X163387187Y-111288621D01*
X163360404Y-111291500D01*
X163304513Y-111291500D01*
X163298061Y-111292872D01*
X163298056Y-111292872D01*
X163211112Y-111311353D01*
X163117712Y-111331206D01*
X163111682Y-111333891D01*
X163111681Y-111333891D01*
X162949278Y-111406197D01*
X162949276Y-111406198D01*
X162943248Y-111408882D01*
X162788747Y-111521134D01*
X162784326Y-111526044D01*
X162784325Y-111526045D01*
X162677788Y-111644367D01*
X162660960Y-111663056D01*
X162628791Y-111718774D01*
X162590840Y-111784508D01*
X162565473Y-111828444D01*
X162506458Y-112010072D01*
X162505768Y-112016633D01*
X162505768Y-112016635D01*
X162494588Y-112123007D01*
X162486496Y-112200000D01*
X162487186Y-112206565D01*
X162503996Y-112366500D01*
X162506458Y-112389928D01*
X162565473Y-112571556D01*
X162568776Y-112577278D01*
X162568777Y-112577279D01*
X162579873Y-112596498D01*
X162660960Y-112736944D01*
X162665378Y-112741851D01*
X162665379Y-112741852D01*
X162784325Y-112873955D01*
X162788747Y-112878866D01*
X162943248Y-112991118D01*
X162949276Y-112993802D01*
X162949278Y-112993803D01*
X163085820Y-113054595D01*
X163117712Y-113068794D01*
X163210990Y-113088621D01*
X163298056Y-113107128D01*
X163298061Y-113107128D01*
X163304513Y-113108500D01*
X163495487Y-113108500D01*
X163501939Y-113107128D01*
X163501944Y-113107128D01*
X163589010Y-113088621D01*
X163682288Y-113068794D01*
X163714180Y-113054595D01*
X163850722Y-112993803D01*
X163850724Y-112993802D01*
X163856752Y-112991118D01*
X164011253Y-112878866D01*
X164015675Y-112873955D01*
X164134621Y-112741852D01*
X164134622Y-112741851D01*
X164139040Y-112736944D01*
X164220127Y-112596498D01*
X164231223Y-112577279D01*
X164231224Y-112577278D01*
X164234527Y-112571556D01*
X164293542Y-112389928D01*
X164296005Y-112366500D01*
X164310907Y-112224707D01*
X164337920Y-112159050D01*
X164347122Y-112148782D01*
X165075499Y-111420405D01*
X165137811Y-111386379D01*
X165164594Y-111383500D01*
X169666406Y-111383500D01*
X169734527Y-111403502D01*
X169781020Y-111457158D01*
X169791124Y-111527432D01*
X169761630Y-111592012D01*
X169755501Y-111598595D01*
X168299500Y-113054595D01*
X168237188Y-113088621D01*
X168210405Y-113091500D01*
X168154513Y-113091500D01*
X168148061Y-113092872D01*
X168148056Y-113092872D01*
X168064688Y-113110593D01*
X167967712Y-113131206D01*
X167961682Y-113133891D01*
X167961681Y-113133891D01*
X167799278Y-113206197D01*
X167799276Y-113206198D01*
X167793248Y-113208882D01*
X167638747Y-113321134D01*
X167634326Y-113326044D01*
X167634325Y-113326045D01*
X167516271Y-113457158D01*
X167510960Y-113463056D01*
X167415473Y-113628444D01*
X167356458Y-113810072D01*
X167355768Y-113816633D01*
X167355768Y-113816635D01*
X167338744Y-113978608D01*
X167336496Y-114000000D01*
X167337186Y-114006565D01*
X167350733Y-114135453D01*
X167356458Y-114189928D01*
X167415473Y-114371556D01*
X167418776Y-114377278D01*
X167418777Y-114377279D01*
X167447772Y-114427500D01*
X167464510Y-114496496D01*
X167441289Y-114563588D01*
X167385482Y-114607475D01*
X167338653Y-114616500D01*
X161814594Y-114616500D01*
X161746473Y-114596498D01*
X161725499Y-114579595D01*
X159449572Y-112303667D01*
X159415546Y-112241355D01*
X159413998Y-112213170D01*
X159412814Y-112213170D01*
X159412814Y-112206565D01*
X159413504Y-112200000D01*
X159405412Y-112123007D01*
X159394232Y-112016635D01*
X159394232Y-112016633D01*
X159393542Y-112010072D01*
X159334527Y-111828444D01*
X159309161Y-111784508D01*
X159271209Y-111718774D01*
X159239040Y-111663056D01*
X159222213Y-111644367D01*
X159115675Y-111526045D01*
X159115674Y-111526044D01*
X159111253Y-111521134D01*
X158956752Y-111408882D01*
X158950724Y-111406198D01*
X158950722Y-111406197D01*
X158788319Y-111333891D01*
X158788318Y-111333891D01*
X158782288Y-111331206D01*
X158688888Y-111311353D01*
X158601944Y-111292872D01*
X158601939Y-111292872D01*
X158595487Y-111291500D01*
X158404513Y-111291500D01*
X158398061Y-111292872D01*
X158398056Y-111292872D01*
X158311112Y-111311353D01*
X158217712Y-111331206D01*
X158211682Y-111333891D01*
X158211681Y-111333891D01*
X158049278Y-111406197D01*
X158049276Y-111406198D01*
X158043248Y-111408882D01*
X157888747Y-111521134D01*
X157884326Y-111526044D01*
X157884325Y-111526045D01*
X157777788Y-111644367D01*
X157760960Y-111663056D01*
X157728791Y-111718774D01*
X157690840Y-111784508D01*
X157665473Y-111828444D01*
X157606458Y-112010072D01*
X157605768Y-112016633D01*
X157605768Y-112016635D01*
X157594588Y-112123007D01*
X157586496Y-112200000D01*
X157587186Y-112206565D01*
X157603996Y-112366500D01*
X157606458Y-112389928D01*
X157665473Y-112571556D01*
X157668776Y-112577278D01*
X157668777Y-112577279D01*
X157679873Y-112596498D01*
X157760960Y-112736944D01*
X157765378Y-112741851D01*
X157765379Y-112741852D01*
X157884325Y-112873955D01*
X157888747Y-112878866D01*
X158043248Y-112991118D01*
X158049276Y-112993802D01*
X158049278Y-112993803D01*
X158185820Y-113054595D01*
X158217712Y-113068794D01*
X158310990Y-113088621D01*
X158398056Y-113107128D01*
X158398061Y-113107128D01*
X158404513Y-113108500D01*
X158411115Y-113108500D01*
X158417682Y-113109190D01*
X158417535Y-113110593D01*
X158478527Y-113128502D01*
X158499501Y-113145405D01*
X158505501Y-113151405D01*
X158539527Y-113213717D01*
X158534462Y-113284532D01*
X158491915Y-113341368D01*
X158425395Y-113366179D01*
X158416406Y-113366500D01*
X148958200Y-113366500D01*
X148890079Y-113346498D01*
X148870853Y-113330157D01*
X148870580Y-113330460D01*
X148865668Y-113326037D01*
X148861253Y-113321134D01*
X148799088Y-113275968D01*
X148712094Y-113212763D01*
X148712093Y-113212762D01*
X148706752Y-113208882D01*
X148700724Y-113206198D01*
X148700722Y-113206197D01*
X148538319Y-113133891D01*
X148538318Y-113133891D01*
X148532288Y-113131206D01*
X148435312Y-113110593D01*
X148351944Y-113092872D01*
X148351939Y-113092872D01*
X148345487Y-113091500D01*
X148154513Y-113091500D01*
X148148061Y-113092872D01*
X148148056Y-113092872D01*
X148064688Y-113110593D01*
X147967712Y-113131206D01*
X147961682Y-113133891D01*
X147961681Y-113133891D01*
X147799278Y-113206197D01*
X147799276Y-113206198D01*
X147793248Y-113208882D01*
X147638747Y-113321134D01*
X147634326Y-113326044D01*
X147634325Y-113326045D01*
X147516271Y-113457158D01*
X147510960Y-113463056D01*
X147415473Y-113628444D01*
X147356458Y-113810072D01*
X147355768Y-113816633D01*
X147355768Y-113816635D01*
X147338744Y-113978608D01*
X147336496Y-114000000D01*
X147337186Y-114006565D01*
X147350733Y-114135453D01*
X147356458Y-114189928D01*
X147358497Y-114196203D01*
X147358498Y-114196208D01*
X147360238Y-114201562D01*
X147362267Y-114272529D01*
X147325606Y-114333328D01*
X147261894Y-114364654D01*
X147240406Y-114366500D01*
X146364594Y-114366500D01*
X146296473Y-114346498D01*
X146275499Y-114329595D01*
X144197122Y-112251217D01*
X144163096Y-112188905D01*
X144160907Y-112175292D01*
X144144232Y-112016635D01*
X144144232Y-112016633D01*
X144143542Y-112010072D01*
X144084527Y-111828444D01*
X144059161Y-111784508D01*
X144021209Y-111718774D01*
X143989040Y-111663056D01*
X143972213Y-111644367D01*
X143865675Y-111526045D01*
X143865674Y-111526044D01*
X143861253Y-111521134D01*
X143706752Y-111408882D01*
X143700724Y-111406198D01*
X143700722Y-111406197D01*
X143538319Y-111333891D01*
X143538318Y-111333891D01*
X143532288Y-111331206D01*
X143438888Y-111311353D01*
X143351944Y-111292872D01*
X143351939Y-111292872D01*
X143345487Y-111291500D01*
X143154513Y-111291500D01*
X143148061Y-111292872D01*
X143148056Y-111292872D01*
X143061112Y-111311353D01*
X142967712Y-111331206D01*
X142961682Y-111333891D01*
X142961681Y-111333891D01*
X142799278Y-111406197D01*
X142799276Y-111406198D01*
X142793248Y-111408882D01*
X142638747Y-111521134D01*
X142560761Y-111607747D01*
X142527788Y-111644367D01*
X142467342Y-111681607D01*
X142396359Y-111680255D01*
X142345057Y-111649152D01*
X142053652Y-111357747D01*
X142046112Y-111349461D01*
X142042000Y-111342982D01*
X141992348Y-111296356D01*
X141989507Y-111293602D01*
X141969770Y-111273865D01*
X141966573Y-111271385D01*
X141957551Y-111263680D01*
X141925321Y-111233414D01*
X141918375Y-111229595D01*
X141918372Y-111229593D01*
X141907566Y-111223652D01*
X141891047Y-111212801D01*
X141890583Y-111212441D01*
X141875041Y-111200386D01*
X141867772Y-111197241D01*
X141867768Y-111197238D01*
X141834463Y-111182826D01*
X141823813Y-111177609D01*
X141785060Y-111156305D01*
X141765437Y-111151267D01*
X141746734Y-111144863D01*
X141735420Y-111139967D01*
X141735419Y-111139967D01*
X141728145Y-111136819D01*
X141720322Y-111135580D01*
X141720312Y-111135577D01*
X141684476Y-111129901D01*
X141672856Y-111127495D01*
X141637711Y-111118472D01*
X141637710Y-111118472D01*
X141630030Y-111116500D01*
X141609776Y-111116500D01*
X141590065Y-111114949D01*
X141577886Y-111113020D01*
X141570057Y-111111780D01*
X141540786Y-111114547D01*
X141526039Y-111115941D01*
X141514181Y-111116500D01*
X128828768Y-111116500D01*
X128817585Y-111115973D01*
X128810092Y-111114298D01*
X128802166Y-111114547D01*
X128802165Y-111114547D01*
X128742002Y-111116438D01*
X128738044Y-111116500D01*
X128710144Y-111116500D01*
X128706154Y-111117004D01*
X128694320Y-111117936D01*
X128650111Y-111119326D01*
X128642497Y-111121538D01*
X128642492Y-111121539D01*
X128630659Y-111124977D01*
X128611296Y-111128988D01*
X128591203Y-111131526D01*
X128583836Y-111134443D01*
X128583831Y-111134444D01*
X128550092Y-111147802D01*
X128538865Y-111151646D01*
X128496407Y-111163982D01*
X128489581Y-111168019D01*
X128478972Y-111174293D01*
X128461224Y-111182988D01*
X128442383Y-111190448D01*
X128435967Y-111195110D01*
X128435966Y-111195110D01*
X128406613Y-111216436D01*
X128396693Y-111222952D01*
X128365465Y-111241420D01*
X128365462Y-111241422D01*
X128358638Y-111245458D01*
X128349501Y-111254595D01*
X128287189Y-111288621D01*
X128260406Y-111291500D01*
X128154513Y-111291500D01*
X128148061Y-111292872D01*
X128148056Y-111292872D01*
X128061112Y-111311353D01*
X127967712Y-111331206D01*
X127961682Y-111333891D01*
X127961681Y-111333891D01*
X127799278Y-111406197D01*
X127799276Y-111406198D01*
X127793248Y-111408882D01*
X127638747Y-111521134D01*
X127634326Y-111526044D01*
X127634325Y-111526045D01*
X127527788Y-111644367D01*
X127510960Y-111663056D01*
X127478791Y-111718774D01*
X127440840Y-111784508D01*
X127415473Y-111828444D01*
X127378527Y-111942153D01*
X127369833Y-111968909D01*
X127329759Y-112027514D01*
X127264363Y-112055151D01*
X127194406Y-112043044D01*
X127142100Y-111995038D01*
X127130167Y-111968909D01*
X127121474Y-111942153D01*
X127084527Y-111828444D01*
X127059161Y-111784508D01*
X127021209Y-111718774D01*
X126989040Y-111663056D01*
X126972213Y-111644367D01*
X126865675Y-111526045D01*
X126865674Y-111526044D01*
X126861253Y-111521134D01*
X126706752Y-111408882D01*
X126700724Y-111406198D01*
X126700722Y-111406197D01*
X126538319Y-111333891D01*
X126538318Y-111333891D01*
X126532288Y-111331206D01*
X126438888Y-111311353D01*
X126351944Y-111292872D01*
X126351939Y-111292872D01*
X126345487Y-111291500D01*
X126154513Y-111291500D01*
X126148061Y-111292872D01*
X126148056Y-111292872D01*
X126061112Y-111311353D01*
X125967712Y-111331206D01*
X125961682Y-111333891D01*
X125961681Y-111333891D01*
X125799278Y-111406197D01*
X125799276Y-111406198D01*
X125793248Y-111408882D01*
X125638747Y-111521134D01*
X125634326Y-111526044D01*
X125634325Y-111526045D01*
X125527788Y-111644367D01*
X125510960Y-111663056D01*
X125478791Y-111718774D01*
X125440840Y-111784508D01*
X125415473Y-111828444D01*
X125356458Y-112010072D01*
X125355768Y-112016633D01*
X125355768Y-112016635D01*
X125344588Y-112123007D01*
X125336496Y-112200000D01*
X125337186Y-112206565D01*
X125353996Y-112366500D01*
X125356458Y-112389928D01*
X125415473Y-112571556D01*
X125418776Y-112577278D01*
X125418777Y-112577279D01*
X125429873Y-112596498D01*
X125510960Y-112736944D01*
X125515378Y-112741851D01*
X125515379Y-112741852D01*
X125634325Y-112873955D01*
X125638747Y-112878866D01*
X125793248Y-112991118D01*
X125799276Y-112993802D01*
X125799278Y-112993803D01*
X125935820Y-113054595D01*
X125967712Y-113068794D01*
X126060990Y-113088621D01*
X126148056Y-113107128D01*
X126148061Y-113107128D01*
X126154513Y-113108500D01*
X126161115Y-113108500D01*
X126167682Y-113109190D01*
X126167535Y-113110593D01*
X126228526Y-113128502D01*
X126249501Y-113145405D01*
X126631527Y-113527432D01*
X126996353Y-113892258D01*
X127003887Y-113900537D01*
X127008000Y-113907018D01*
X127029095Y-113926827D01*
X127057651Y-113953643D01*
X127060493Y-113956398D01*
X127080230Y-113976135D01*
X127083427Y-113978615D01*
X127092447Y-113986318D01*
X127124679Y-114016586D01*
X127131625Y-114020405D01*
X127131628Y-114020407D01*
X127142434Y-114026348D01*
X127158953Y-114037199D01*
X127174959Y-114049614D01*
X127182228Y-114052759D01*
X127182232Y-114052762D01*
X127215537Y-114067174D01*
X127226187Y-114072391D01*
X127264940Y-114093695D01*
X127272615Y-114095666D01*
X127272616Y-114095666D01*
X127284562Y-114098733D01*
X127303267Y-114105137D01*
X127321855Y-114113181D01*
X127329678Y-114114420D01*
X127329688Y-114114423D01*
X127365524Y-114120099D01*
X127377144Y-114122505D01*
X127408959Y-114130673D01*
X127419970Y-114133500D01*
X127440224Y-114133500D01*
X127459934Y-114135051D01*
X127479943Y-114138220D01*
X127487835Y-114137474D01*
X127506580Y-114135702D01*
X127523962Y-114134059D01*
X127535819Y-114133500D01*
X129171233Y-114133500D01*
X129182416Y-114134027D01*
X129189909Y-114135702D01*
X129197835Y-114135453D01*
X129197836Y-114135453D01*
X129257986Y-114133562D01*
X129261945Y-114133500D01*
X129289856Y-114133500D01*
X129293791Y-114133003D01*
X129293856Y-114132995D01*
X129305693Y-114132062D01*
X129337951Y-114131048D01*
X129341970Y-114130922D01*
X129349889Y-114130673D01*
X129369343Y-114125021D01*
X129388700Y-114121013D01*
X129400930Y-114119468D01*
X129400931Y-114119468D01*
X129408797Y-114118474D01*
X129416168Y-114115555D01*
X129416170Y-114115555D01*
X129449912Y-114102196D01*
X129461142Y-114098351D01*
X129495983Y-114088229D01*
X129495984Y-114088229D01*
X129503593Y-114086018D01*
X129510412Y-114081985D01*
X129510417Y-114081983D01*
X129521028Y-114075707D01*
X129538776Y-114067012D01*
X129557617Y-114059552D01*
X129593387Y-114033564D01*
X129603307Y-114027048D01*
X129634535Y-114008580D01*
X129634538Y-114008578D01*
X129641362Y-114004542D01*
X129655683Y-113990221D01*
X129670717Y-113977380D01*
X129680694Y-113970131D01*
X129687107Y-113965472D01*
X129715298Y-113931395D01*
X129723288Y-113922616D01*
X130475499Y-113170405D01*
X130537811Y-113136379D01*
X130564594Y-113133500D01*
X138140313Y-113133500D01*
X138208434Y-113153502D01*
X138254927Y-113207158D01*
X138265031Y-113277432D01*
X138236835Y-113340489D01*
X138163846Y-113427474D01*
X138160879Y-113432872D01*
X138160875Y-113432877D01*
X138108894Y-113527432D01*
X138068567Y-113600787D01*
X138066706Y-113606654D01*
X138066705Y-113606656D01*
X138013663Y-113773865D01*
X138008765Y-113789306D01*
X137991500Y-113943227D01*
X137991500Y-115938157D01*
X137990763Y-115951764D01*
X137986676Y-115989388D01*
X137987213Y-115995523D01*
X137991050Y-116039388D01*
X137991379Y-116044214D01*
X137991500Y-116046686D01*
X137991500Y-116049769D01*
X137991801Y-116052837D01*
X137995690Y-116092506D01*
X137995812Y-116093819D01*
X137999391Y-116134729D01*
X138003913Y-116186413D01*
X138005400Y-116191532D01*
X138005920Y-116196833D01*
X138032791Y-116285834D01*
X138033126Y-116286967D01*
X138041746Y-116316635D01*
X138059091Y-116376336D01*
X138061544Y-116381068D01*
X138063084Y-116386169D01*
X138065978Y-116391612D01*
X138106731Y-116468260D01*
X138107343Y-116469426D01*
X138126595Y-116506565D01*
X138150108Y-116551926D01*
X138153431Y-116556089D01*
X138155934Y-116560796D01*
X138214755Y-116632918D01*
X138215446Y-116633774D01*
X138246738Y-116672973D01*
X138249242Y-116675477D01*
X138249884Y-116676195D01*
X138253585Y-116680528D01*
X138280935Y-116714062D01*
X138285682Y-116717989D01*
X138285684Y-116717991D01*
X138316262Y-116743287D01*
X138325042Y-116751277D01*
X140322075Y-118748309D01*
X140324452Y-118750262D01*
X140324457Y-118750266D01*
X140348977Y-118770407D01*
X140436261Y-118842103D01*
X140610563Y-118935562D01*
X140719219Y-118968782D01*
X140793800Y-118991584D01*
X140793802Y-118991584D01*
X140799698Y-118993387D01*
X140857551Y-118999264D01*
X140990334Y-119012752D01*
X140990339Y-119012752D01*
X140996462Y-119013374D01*
X141120525Y-119001646D01*
X141187229Y-118995341D01*
X141187231Y-118995341D01*
X141193362Y-118994761D01*
X141331291Y-118953643D01*
X141376993Y-118940019D01*
X141376995Y-118940018D01*
X141382896Y-118938259D01*
X141557846Y-118846018D01*
X141593466Y-118817174D01*
X141706757Y-118725432D01*
X141706758Y-118725431D01*
X141711547Y-118721553D01*
X141762959Y-118659846D01*
X141834202Y-118574338D01*
X141834203Y-118574337D01*
X141838146Y-118569604D01*
X141932822Y-118395959D01*
X141987159Y-118222568D01*
X141990122Y-118213114D01*
X141990123Y-118213111D01*
X141991965Y-118207232D01*
X141997310Y-118158036D01*
X142012659Y-118016736D01*
X142012659Y-118016732D01*
X142013324Y-118010611D01*
X141996087Y-117813587D01*
X141994368Y-117807670D01*
X141994367Y-117807665D01*
X141942627Y-117629578D01*
X141940909Y-117623664D01*
X141849892Y-117448074D01*
X141817205Y-117407128D01*
X141755458Y-117329777D01*
X141755451Y-117329770D01*
X141753262Y-117327027D01*
X140045405Y-115619171D01*
X140011380Y-115556859D01*
X140008500Y-115530076D01*
X140008500Y-113950231D01*
X140008106Y-113946206D01*
X139998819Y-113851502D01*
X139994080Y-113803167D01*
X139983386Y-113767745D01*
X139964306Y-113704551D01*
X139936916Y-113613831D01*
X139844066Y-113439204D01*
X139838904Y-113432874D01*
X139784508Y-113366179D01*
X139762452Y-113339135D01*
X139734898Y-113273704D01*
X139747093Y-113203763D01*
X139795166Y-113151518D01*
X139860095Y-113133500D01*
X140985406Y-113133500D01*
X141053527Y-113153502D01*
X141074501Y-113170405D01*
X144796343Y-116892247D01*
X144803887Y-116900537D01*
X144808000Y-116907018D01*
X144813777Y-116912443D01*
X144857667Y-116953658D01*
X144860509Y-116956413D01*
X144880230Y-116976134D01*
X144883425Y-116978612D01*
X144892447Y-116986318D01*
X144924679Y-117016586D01*
X144931628Y-117020406D01*
X144942432Y-117026346D01*
X144958956Y-117037199D01*
X144974959Y-117049613D01*
X145015543Y-117067176D01*
X145026173Y-117072383D01*
X145064940Y-117093695D01*
X145072617Y-117095666D01*
X145072622Y-117095668D01*
X145084558Y-117098732D01*
X145103266Y-117105137D01*
X145121855Y-117113181D01*
X145129683Y-117114421D01*
X145129690Y-117114423D01*
X145165524Y-117120099D01*
X145177144Y-117122505D01*
X145211035Y-117131206D01*
X145219970Y-117133500D01*
X145240224Y-117133500D01*
X145259934Y-117135051D01*
X145279943Y-117138220D01*
X145287835Y-117137474D01*
X145323961Y-117134059D01*
X145335819Y-117133500D01*
X158435406Y-117133500D01*
X158503527Y-117153502D01*
X158524501Y-117170405D01*
X159260707Y-117906612D01*
X159996348Y-118642253D01*
X160003888Y-118650539D01*
X160008000Y-118657018D01*
X160013777Y-118662443D01*
X160057651Y-118703643D01*
X160060493Y-118706398D01*
X160080230Y-118726135D01*
X160083427Y-118728615D01*
X160092447Y-118736318D01*
X160124679Y-118766586D01*
X160131625Y-118770405D01*
X160131628Y-118770407D01*
X160142434Y-118776348D01*
X160158953Y-118787199D01*
X160174959Y-118799614D01*
X160182228Y-118802759D01*
X160182232Y-118802762D01*
X160215537Y-118817174D01*
X160226187Y-118822391D01*
X160264940Y-118843695D01*
X160272615Y-118845666D01*
X160272616Y-118845666D01*
X160284562Y-118848733D01*
X160303267Y-118855137D01*
X160321855Y-118863181D01*
X160329678Y-118864420D01*
X160329688Y-118864423D01*
X160365524Y-118870099D01*
X160377144Y-118872505D01*
X160412289Y-118881528D01*
X160419970Y-118883500D01*
X160440224Y-118883500D01*
X160459934Y-118885051D01*
X160479943Y-118888220D01*
X160487835Y-118887474D01*
X160523961Y-118884059D01*
X160535819Y-118883500D01*
X173435406Y-118883500D01*
X173503527Y-118903502D01*
X173524501Y-118920405D01*
X176746343Y-122142247D01*
X176753887Y-122150537D01*
X176758000Y-122157018D01*
X176763777Y-122162443D01*
X176807667Y-122203658D01*
X176810509Y-122206413D01*
X176830230Y-122226134D01*
X176833425Y-122228612D01*
X176842447Y-122236318D01*
X176874679Y-122266586D01*
X176881628Y-122270406D01*
X176892432Y-122276346D01*
X176908956Y-122287199D01*
X176924959Y-122299613D01*
X176965543Y-122317176D01*
X176976173Y-122322383D01*
X177014940Y-122343695D01*
X177022617Y-122345666D01*
X177022622Y-122345668D01*
X177034558Y-122348732D01*
X177053266Y-122355137D01*
X177071855Y-122363181D01*
X177079680Y-122364420D01*
X177079682Y-122364421D01*
X177115519Y-122370097D01*
X177127140Y-122372504D01*
X177158959Y-122380673D01*
X177169970Y-122383500D01*
X177190231Y-122383500D01*
X177209940Y-122385051D01*
X177229943Y-122388219D01*
X177237835Y-122387473D01*
X177243062Y-122386979D01*
X177273954Y-122384059D01*
X177285811Y-122383500D01*
X181921233Y-122383500D01*
X181932416Y-122384027D01*
X181939909Y-122385702D01*
X181947835Y-122385453D01*
X181947836Y-122385453D01*
X182007986Y-122383562D01*
X182011945Y-122383500D01*
X182039856Y-122383500D01*
X182043791Y-122383003D01*
X182043856Y-122382995D01*
X182055693Y-122382062D01*
X182087951Y-122381048D01*
X182091970Y-122380922D01*
X182099889Y-122380673D01*
X182119343Y-122375021D01*
X182138700Y-122371013D01*
X182150930Y-122369468D01*
X182150931Y-122369468D01*
X182158797Y-122368474D01*
X182166168Y-122365555D01*
X182166170Y-122365555D01*
X182199912Y-122352196D01*
X182211142Y-122348351D01*
X182245983Y-122338229D01*
X182245984Y-122338229D01*
X182253593Y-122336018D01*
X182260412Y-122331985D01*
X182260417Y-122331983D01*
X182271028Y-122325707D01*
X182288776Y-122317012D01*
X182307617Y-122309552D01*
X182327987Y-122294753D01*
X182343387Y-122283564D01*
X182353307Y-122277048D01*
X182384535Y-122258580D01*
X182384538Y-122258578D01*
X182391362Y-122254542D01*
X182405683Y-122240221D01*
X182420717Y-122227380D01*
X182422432Y-122226134D01*
X182437107Y-122215472D01*
X182465298Y-122181395D01*
X182473288Y-122172616D01*
X184475499Y-120170405D01*
X184537811Y-120136379D01*
X184564594Y-120133500D01*
X209185406Y-120133500D01*
X209253527Y-120153502D01*
X209274501Y-120170405D01*
X213746343Y-124642247D01*
X213753887Y-124650537D01*
X213758000Y-124657018D01*
X213763777Y-124662443D01*
X213807667Y-124703658D01*
X213810509Y-124706413D01*
X213830230Y-124726134D01*
X213833425Y-124728612D01*
X213842447Y-124736318D01*
X213874679Y-124766586D01*
X213881628Y-124770406D01*
X213892432Y-124776346D01*
X213908956Y-124787199D01*
X213924959Y-124799613D01*
X213965543Y-124817176D01*
X213976173Y-124822383D01*
X214014940Y-124843695D01*
X214022617Y-124845666D01*
X214022622Y-124845668D01*
X214034558Y-124848732D01*
X214053266Y-124855137D01*
X214071855Y-124863181D01*
X214079680Y-124864420D01*
X214079682Y-124864421D01*
X214115519Y-124870097D01*
X214127140Y-124872504D01*
X214162289Y-124881528D01*
X214169970Y-124883500D01*
X214190231Y-124883500D01*
X214209940Y-124885051D01*
X214229943Y-124888219D01*
X214237835Y-124887473D01*
X214243062Y-124886979D01*
X214273954Y-124884059D01*
X214285811Y-124883500D01*
X225685406Y-124883500D01*
X225753527Y-124903502D01*
X225774501Y-124920405D01*
X232802878Y-131948783D01*
X232836904Y-132011095D01*
X232839093Y-132024708D01*
X232852630Y-132153502D01*
X232856458Y-132189928D01*
X232915473Y-132371556D01*
X232918776Y-132377278D01*
X232918777Y-132377279D01*
X232936803Y-132408500D01*
X233010960Y-132536944D01*
X233015378Y-132541851D01*
X233015379Y-132541852D01*
X233097452Y-132633003D01*
X233138747Y-132678866D01*
X233293248Y-132791118D01*
X233299276Y-132793802D01*
X233299278Y-132793803D01*
X233402565Y-132839789D01*
X233467712Y-132868794D01*
X233561113Y-132888647D01*
X233648056Y-132907128D01*
X233648061Y-132907128D01*
X233654513Y-132908500D01*
X233845487Y-132908500D01*
X233851939Y-132907128D01*
X233851944Y-132907128D01*
X233964303Y-132883245D01*
X234035094Y-132888647D01*
X234091727Y-132931464D01*
X234116220Y-132998102D01*
X234116500Y-133006492D01*
X234116500Y-134185406D01*
X234096498Y-134253527D01*
X234079595Y-134274501D01*
X231524500Y-136829595D01*
X231462188Y-136863621D01*
X231435405Y-136866500D01*
X231308200Y-136866500D01*
X231240079Y-136846498D01*
X231220853Y-136830157D01*
X231220580Y-136830460D01*
X231215668Y-136826037D01*
X231211253Y-136821134D01*
X231056752Y-136708882D01*
X231050724Y-136706198D01*
X231050722Y-136706197D01*
X230888319Y-136633891D01*
X230888318Y-136633891D01*
X230882288Y-136631206D01*
X230788887Y-136611353D01*
X230701944Y-136592872D01*
X230701939Y-136592872D01*
X230695487Y-136591500D01*
X230504513Y-136591500D01*
X230498061Y-136592872D01*
X230498056Y-136592872D01*
X230411113Y-136611353D01*
X230317712Y-136631206D01*
X230311682Y-136633891D01*
X230311681Y-136633891D01*
X230149278Y-136706197D01*
X230149276Y-136706198D01*
X230143248Y-136708882D01*
X229988747Y-136821134D01*
X229984326Y-136826044D01*
X229984325Y-136826045D01*
X229950492Y-136863621D01*
X229860960Y-136963056D01*
X229815313Y-137042119D01*
X229775797Y-137110563D01*
X229765473Y-137128444D01*
X229706458Y-137310072D01*
X229705768Y-137316633D01*
X229705768Y-137316635D01*
X229698699Y-137383891D01*
X229686496Y-137500000D01*
X229687186Y-137506565D01*
X229694489Y-137576045D01*
X229706458Y-137689928D01*
X229708497Y-137696203D01*
X229708498Y-137696208D01*
X229710238Y-137701562D01*
X229712267Y-137772529D01*
X229675606Y-137833328D01*
X229611894Y-137864654D01*
X229590406Y-137866500D01*
X228363925Y-137866500D01*
X228295804Y-137846498D01*
X228249311Y-137792842D01*
X228239207Y-137722568D01*
X228268701Y-137657988D01*
X228274830Y-137651405D01*
X231746125Y-134180109D01*
X231748309Y-134177925D01*
X231842102Y-134063739D01*
X231935562Y-133889437D01*
X231993387Y-133700302D01*
X232001534Y-133620097D01*
X232012752Y-133509666D01*
X232012752Y-133509661D01*
X232013374Y-133503538D01*
X232000304Y-133365271D01*
X231995341Y-133312771D01*
X231995341Y-133312769D01*
X231994761Y-133306638D01*
X231938259Y-133117104D01*
X231846018Y-132942154D01*
X231837362Y-132931464D01*
X231725432Y-132793243D01*
X231725431Y-132793242D01*
X231721553Y-132788453D01*
X231671485Y-132746738D01*
X231574335Y-132665795D01*
X231574330Y-132665792D01*
X231569604Y-132661854D01*
X231555104Y-132653948D01*
X231401364Y-132570126D01*
X231401362Y-132570125D01*
X231395959Y-132567179D01*
X231207232Y-132508035D01*
X231201109Y-132507370D01*
X231201105Y-132507369D01*
X231016736Y-132487341D01*
X231016732Y-132487341D01*
X231010611Y-132486676D01*
X230813587Y-132503913D01*
X230623663Y-132559091D01*
X230448074Y-132650108D01*
X230428423Y-132665795D01*
X230329777Y-132744542D01*
X230329770Y-132744549D01*
X230327027Y-132746738D01*
X226251691Y-136822075D01*
X226249738Y-136824452D01*
X226249734Y-136824457D01*
X226215200Y-136866500D01*
X226157897Y-136936261D01*
X226145768Y-136958882D01*
X226104701Y-137035473D01*
X226064438Y-137110563D01*
X226039575Y-137191886D01*
X226014864Y-137272712D01*
X226006613Y-137299698D01*
X226001233Y-137352658D01*
X225988029Y-137482654D01*
X225986626Y-137496462D01*
X226005239Y-137693362D01*
X226006998Y-137699262D01*
X226006999Y-137699268D01*
X226008559Y-137704499D01*
X226008855Y-137775495D01*
X225970720Y-137835380D01*
X225906262Y-137865142D01*
X225887812Y-137866500D01*
X210363925Y-137866500D01*
X210295804Y-137846498D01*
X210249311Y-137792842D01*
X210239207Y-137722568D01*
X210268701Y-137657988D01*
X210274830Y-137651405D01*
X213746125Y-134180109D01*
X213748309Y-134177925D01*
X213842102Y-134063739D01*
X213935562Y-133889437D01*
X213993387Y-133700302D01*
X214001534Y-133620097D01*
X214012752Y-133509666D01*
X214012752Y-133509661D01*
X214013374Y-133503538D01*
X214000304Y-133365271D01*
X213995341Y-133312771D01*
X213995341Y-133312769D01*
X213994761Y-133306638D01*
X213938259Y-133117104D01*
X213846018Y-132942154D01*
X213837362Y-132931464D01*
X213725432Y-132793243D01*
X213725431Y-132793242D01*
X213721553Y-132788453D01*
X213671485Y-132746738D01*
X213574335Y-132665795D01*
X213574330Y-132665792D01*
X213569604Y-132661854D01*
X213555104Y-132653948D01*
X213401364Y-132570126D01*
X213401362Y-132570125D01*
X213395959Y-132567179D01*
X213207232Y-132508035D01*
X213201109Y-132507370D01*
X213201105Y-132507369D01*
X213016736Y-132487341D01*
X213016732Y-132487341D01*
X213010611Y-132486676D01*
X212813587Y-132503913D01*
X212623663Y-132559091D01*
X212448074Y-132650108D01*
X212428423Y-132665795D01*
X212329777Y-132744542D01*
X212329770Y-132744549D01*
X212327027Y-132746738D01*
X208251691Y-136822075D01*
X208249738Y-136824452D01*
X208249734Y-136824457D01*
X208215200Y-136866500D01*
X208157897Y-136936261D01*
X208145768Y-136958882D01*
X208104701Y-137035473D01*
X208064438Y-137110563D01*
X208039575Y-137191886D01*
X208014864Y-137272712D01*
X208006613Y-137299698D01*
X208001233Y-137352658D01*
X207988029Y-137482654D01*
X207986626Y-137496462D01*
X208005239Y-137693362D01*
X208006998Y-137699262D01*
X208006999Y-137699268D01*
X208008559Y-137704499D01*
X208008855Y-137775495D01*
X207970720Y-137835380D01*
X207906262Y-137865142D01*
X207887812Y-137866500D01*
X193458200Y-137866500D01*
X193390079Y-137846498D01*
X193370853Y-137830157D01*
X193370580Y-137830460D01*
X193365668Y-137826037D01*
X193361253Y-137821134D01*
X193263346Y-137750000D01*
X193212094Y-137712763D01*
X193212093Y-137712762D01*
X193206752Y-137708882D01*
X193200724Y-137706198D01*
X193200722Y-137706197D01*
X193038319Y-137633891D01*
X193038318Y-137633891D01*
X193032288Y-137631206D01*
X192938887Y-137611353D01*
X192851944Y-137592872D01*
X192851939Y-137592872D01*
X192845487Y-137591500D01*
X192654513Y-137591500D01*
X192648061Y-137592872D01*
X192648056Y-137592872D01*
X192561113Y-137611353D01*
X192467712Y-137631206D01*
X192461682Y-137633891D01*
X192461681Y-137633891D01*
X192299278Y-137706197D01*
X192299276Y-137706198D01*
X192293248Y-137708882D01*
X192287907Y-137712762D01*
X192287906Y-137712763D01*
X192251925Y-137738905D01*
X192138747Y-137821134D01*
X192134326Y-137826044D01*
X192134325Y-137826045D01*
X192028693Y-137943362D01*
X192010960Y-137963056D01*
X191915473Y-138128444D01*
X191856458Y-138310072D01*
X191855768Y-138316633D01*
X191855768Y-138316635D01*
X191837088Y-138494367D01*
X191836496Y-138500000D01*
X191834459Y-138499786D01*
X191817184Y-138558621D01*
X191763528Y-138605114D01*
X191711186Y-138616500D01*
X190113925Y-138616500D01*
X190045804Y-138596498D01*
X189999311Y-138542842D01*
X189989207Y-138472568D01*
X190018701Y-138407988D01*
X190024830Y-138401405D01*
X194246127Y-134180107D01*
X194248309Y-134177925D01*
X194342103Y-134063739D01*
X194388833Y-133976588D01*
X194432650Y-133894870D01*
X194432651Y-133894869D01*
X194435563Y-133889437D01*
X194493388Y-133700302D01*
X194500082Y-133634403D01*
X194512752Y-133509665D01*
X194512752Y-133509661D01*
X194513374Y-133503537D01*
X194501439Y-133377279D01*
X194495342Y-133312770D01*
X194495341Y-133312766D01*
X194494762Y-133306638D01*
X194493003Y-133300735D01*
X194440020Y-133123007D01*
X194440019Y-133123005D01*
X194438260Y-133117104D01*
X194346018Y-132942153D01*
X194296884Y-132881477D01*
X194225432Y-132793242D01*
X194225431Y-132793241D01*
X194221553Y-132788452D01*
X194174481Y-132749233D01*
X194074335Y-132665794D01*
X194074330Y-132665791D01*
X194069604Y-132661853D01*
X194048063Y-132650108D01*
X193933317Y-132587546D01*
X193895960Y-132567178D01*
X193707232Y-132508035D01*
X193701109Y-132507370D01*
X193701105Y-132507369D01*
X193516737Y-132487340D01*
X193516733Y-132487340D01*
X193510612Y-132486675D01*
X193313587Y-132503913D01*
X193123664Y-132559091D01*
X192948074Y-132650108D01*
X192943255Y-132653955D01*
X192912050Y-132678866D01*
X192827028Y-132746738D01*
X188501691Y-137072075D01*
X188407897Y-137186261D01*
X188395768Y-137208882D01*
X188318677Y-137352658D01*
X188314438Y-137360563D01*
X188312636Y-137366458D01*
X188273815Y-137493435D01*
X188256613Y-137549698D01*
X188251958Y-137595527D01*
X188237394Y-137738905D01*
X188236626Y-137746462D01*
X188255239Y-137943362D01*
X188256999Y-137949265D01*
X188308708Y-138122721D01*
X188311741Y-138132896D01*
X188403982Y-138307846D01*
X188485076Y-138407988D01*
X188487681Y-138411205D01*
X188515007Y-138476733D01*
X188502567Y-138546631D01*
X188454313Y-138598708D01*
X188389761Y-138616500D01*
X171554460Y-138616500D01*
X171486339Y-138596498D01*
X171439846Y-138542842D01*
X171429742Y-138472568D01*
X171459236Y-138407988D01*
X171496475Y-138378635D01*
X171507884Y-138372721D01*
X171551926Y-138349892D01*
X171601808Y-138310072D01*
X171670223Y-138255458D01*
X171670230Y-138255451D01*
X171672973Y-138253262D01*
X175748309Y-134177925D01*
X175842102Y-134063739D01*
X175935562Y-133889437D01*
X175993387Y-133700302D01*
X176001534Y-133620097D01*
X176012752Y-133509666D01*
X176012752Y-133509661D01*
X176013374Y-133503538D01*
X176000304Y-133365271D01*
X175995341Y-133312771D01*
X175995341Y-133312769D01*
X175994761Y-133306638D01*
X175938259Y-133117104D01*
X175846018Y-132942154D01*
X175837362Y-132931464D01*
X175725432Y-132793243D01*
X175725431Y-132793242D01*
X175721553Y-132788453D01*
X175671485Y-132746738D01*
X175574335Y-132665795D01*
X175574330Y-132665792D01*
X175569604Y-132661854D01*
X175555104Y-132653948D01*
X175401364Y-132570126D01*
X175401362Y-132570125D01*
X175395959Y-132567179D01*
X175207232Y-132508035D01*
X175201109Y-132507370D01*
X175201105Y-132507369D01*
X175016736Y-132487341D01*
X175016732Y-132487341D01*
X175010611Y-132486676D01*
X174813587Y-132503913D01*
X174623663Y-132559091D01*
X174448074Y-132650108D01*
X174428423Y-132665795D01*
X174329777Y-132744542D01*
X174329770Y-132744549D01*
X174327027Y-132746738D01*
X170251691Y-136822075D01*
X170249738Y-136824452D01*
X170249734Y-136824457D01*
X170215200Y-136866500D01*
X170157897Y-136936261D01*
X170145768Y-136958882D01*
X170104701Y-137035473D01*
X170064438Y-137110563D01*
X170039575Y-137191886D01*
X170014864Y-137272712D01*
X170006613Y-137299698D01*
X170001233Y-137352658D01*
X169988029Y-137482654D01*
X169986626Y-137496462D01*
X170005239Y-137693362D01*
X170029724Y-137775495D01*
X170058708Y-137872721D01*
X170061741Y-137882896D01*
X170153982Y-138057846D01*
X170157858Y-138062632D01*
X170157859Y-138062634D01*
X170206517Y-138122721D01*
X170278447Y-138211547D01*
X170309576Y-138237483D01*
X170404578Y-138316635D01*
X170430396Y-138338146D01*
X170493810Y-138372721D01*
X170506931Y-138379875D01*
X170557165Y-138430045D01*
X170572300Y-138499410D01*
X170547531Y-138565946D01*
X170490721Y-138608528D01*
X170446615Y-138616500D01*
X155814594Y-138616500D01*
X155746473Y-138596498D01*
X155725499Y-138579595D01*
X155447122Y-138301218D01*
X155413096Y-138238906D01*
X155410907Y-138225293D01*
X155394232Y-138066635D01*
X155394232Y-138066633D01*
X155393542Y-138060072D01*
X155334527Y-137878444D01*
X155313990Y-137842872D01*
X155289940Y-137801217D01*
X155239040Y-137713056D01*
X155221308Y-137693362D01*
X155115675Y-137576045D01*
X155115674Y-137576044D01*
X155111253Y-137571134D01*
X154956752Y-137458882D01*
X154950724Y-137456198D01*
X154950722Y-137456197D01*
X154788319Y-137383891D01*
X154788318Y-137383891D01*
X154782288Y-137381206D01*
X154685171Y-137360563D01*
X154601944Y-137342872D01*
X154601939Y-137342872D01*
X154595487Y-137341500D01*
X154404513Y-137341500D01*
X154398061Y-137342872D01*
X154398056Y-137342872D01*
X154314829Y-137360563D01*
X154217712Y-137381206D01*
X154211682Y-137383891D01*
X154211681Y-137383891D01*
X154049278Y-137456197D01*
X154049276Y-137456198D01*
X154043248Y-137458882D01*
X153888747Y-137571134D01*
X153884326Y-137576044D01*
X153884325Y-137576045D01*
X153778693Y-137693362D01*
X153760960Y-137713056D01*
X153710060Y-137801217D01*
X153686011Y-137842872D01*
X153665473Y-137878444D01*
X153606458Y-138060072D01*
X153605768Y-138066633D01*
X153605768Y-138066635D01*
X153590379Y-138213056D01*
X153586496Y-138250000D01*
X153587186Y-138256565D01*
X153596071Y-138341097D01*
X153606458Y-138439928D01*
X153665473Y-138621556D01*
X153668776Y-138627278D01*
X153668777Y-138627279D01*
X153686803Y-138658500D01*
X153760960Y-138786944D01*
X153888747Y-138928866D01*
X154043248Y-139041118D01*
X154049276Y-139043802D01*
X154049278Y-139043803D01*
X154056048Y-139046817D01*
X154217712Y-139118794D01*
X154224168Y-139120166D01*
X154225709Y-139120667D01*
X154284315Y-139160741D01*
X154311951Y-139226138D01*
X154299844Y-139296095D01*
X154251837Y-139348401D01*
X154186772Y-139366500D01*
X114314594Y-139366500D01*
X114246473Y-139346498D01*
X114225499Y-139329595D01*
X113461851Y-138565946D01*
X112697122Y-137801217D01*
X112663096Y-137738905D01*
X112660907Y-137725292D01*
X112644232Y-137566635D01*
X112644232Y-137566633D01*
X112643542Y-137560072D01*
X112622874Y-137496462D01*
X131986626Y-137496462D01*
X132005239Y-137693362D01*
X132029724Y-137775495D01*
X132058708Y-137872721D01*
X132061741Y-137882896D01*
X132153982Y-138057846D01*
X132157858Y-138062632D01*
X132157859Y-138062634D01*
X132206517Y-138122721D01*
X132278447Y-138211547D01*
X132309576Y-138237483D01*
X132404578Y-138316635D01*
X132430396Y-138338146D01*
X132604041Y-138432822D01*
X132646750Y-138446206D01*
X132786886Y-138490122D01*
X132786889Y-138490123D01*
X132792768Y-138491965D01*
X132798891Y-138492630D01*
X132798895Y-138492631D01*
X132983263Y-138512659D01*
X132983267Y-138512659D01*
X132989388Y-138513324D01*
X133186413Y-138496087D01*
X133192330Y-138494368D01*
X133192335Y-138494367D01*
X133323064Y-138456386D01*
X133376336Y-138440909D01*
X133551926Y-138349892D01*
X133601808Y-138310072D01*
X133670223Y-138255458D01*
X133670230Y-138255451D01*
X133672973Y-138253262D01*
X134429773Y-137496462D01*
X150486626Y-137496462D01*
X150505239Y-137693362D01*
X150529724Y-137775495D01*
X150558708Y-137872721D01*
X150561741Y-137882896D01*
X150653982Y-138057846D01*
X150657858Y-138062632D01*
X150657859Y-138062634D01*
X150706517Y-138122721D01*
X150778447Y-138211547D01*
X150809576Y-138237483D01*
X150904578Y-138316635D01*
X150930396Y-138338146D01*
X151104041Y-138432822D01*
X151146750Y-138446206D01*
X151286886Y-138490122D01*
X151286889Y-138490123D01*
X151292768Y-138491965D01*
X151298891Y-138492630D01*
X151298895Y-138492631D01*
X151483263Y-138512659D01*
X151483267Y-138512659D01*
X151489388Y-138513324D01*
X151686413Y-138496087D01*
X151692330Y-138494368D01*
X151692335Y-138494367D01*
X151823064Y-138456386D01*
X151876336Y-138440909D01*
X152051926Y-138349892D01*
X152101808Y-138310072D01*
X152170223Y-138255458D01*
X152170230Y-138255451D01*
X152172973Y-138253262D01*
X156248309Y-134177925D01*
X156342102Y-134063739D01*
X156435562Y-133889437D01*
X156493387Y-133700302D01*
X156501534Y-133620097D01*
X156512752Y-133509666D01*
X156512752Y-133509661D01*
X156513374Y-133503538D01*
X156500304Y-133365271D01*
X156495341Y-133312771D01*
X156495341Y-133312769D01*
X156494761Y-133306638D01*
X156438259Y-133117104D01*
X156346018Y-132942154D01*
X156337362Y-132931464D01*
X156225432Y-132793243D01*
X156225431Y-132793242D01*
X156221553Y-132788453D01*
X156171485Y-132746738D01*
X156074335Y-132665795D01*
X156074330Y-132665792D01*
X156069604Y-132661854D01*
X156055104Y-132653948D01*
X155901364Y-132570126D01*
X155901362Y-132570125D01*
X155895959Y-132567179D01*
X155707232Y-132508035D01*
X155701109Y-132507370D01*
X155701105Y-132507369D01*
X155516736Y-132487341D01*
X155516732Y-132487341D01*
X155510611Y-132486676D01*
X155313587Y-132503913D01*
X155123663Y-132559091D01*
X154948074Y-132650108D01*
X154928423Y-132665795D01*
X154829777Y-132744542D01*
X154829770Y-132744549D01*
X154827027Y-132746738D01*
X150751691Y-136822075D01*
X150749738Y-136824452D01*
X150749734Y-136824457D01*
X150715200Y-136866500D01*
X150657897Y-136936261D01*
X150645768Y-136958882D01*
X150604701Y-137035473D01*
X150564438Y-137110563D01*
X150539575Y-137191886D01*
X150514864Y-137272712D01*
X150506613Y-137299698D01*
X150501233Y-137352658D01*
X150488029Y-137482654D01*
X150486626Y-137496462D01*
X134429773Y-137496462D01*
X137748309Y-134177925D01*
X137842102Y-134063739D01*
X137935562Y-133889437D01*
X137993387Y-133700302D01*
X138001534Y-133620097D01*
X138012752Y-133509666D01*
X138012752Y-133509661D01*
X138013374Y-133503538D01*
X138000304Y-133365271D01*
X137995341Y-133312771D01*
X137995341Y-133312769D01*
X137994761Y-133306638D01*
X137938259Y-133117104D01*
X137846018Y-132942154D01*
X137837362Y-132931464D01*
X137725432Y-132793243D01*
X137725431Y-132793242D01*
X137721553Y-132788453D01*
X137671485Y-132746738D01*
X137574335Y-132665795D01*
X137574330Y-132665792D01*
X137569604Y-132661854D01*
X137555104Y-132653948D01*
X137401364Y-132570126D01*
X137401362Y-132570125D01*
X137395959Y-132567179D01*
X137207232Y-132508035D01*
X137201109Y-132507370D01*
X137201105Y-132507369D01*
X137016736Y-132487341D01*
X137016732Y-132487341D01*
X137010611Y-132486676D01*
X136813587Y-132503913D01*
X136623663Y-132559091D01*
X136448074Y-132650108D01*
X136428423Y-132665795D01*
X136329777Y-132744542D01*
X136329770Y-132744549D01*
X136327027Y-132746738D01*
X132251691Y-136822075D01*
X132249738Y-136824452D01*
X132249734Y-136824457D01*
X132215200Y-136866500D01*
X132157897Y-136936261D01*
X132145768Y-136958882D01*
X132104701Y-137035473D01*
X132064438Y-137110563D01*
X132039575Y-137191886D01*
X132014864Y-137272712D01*
X132006613Y-137299698D01*
X132001233Y-137352658D01*
X131988029Y-137482654D01*
X131986626Y-137496462D01*
X112622874Y-137496462D01*
X112584527Y-137378444D01*
X112574204Y-137360563D01*
X112523482Y-137272712D01*
X112489040Y-137213056D01*
X112469979Y-137191886D01*
X112365675Y-137076045D01*
X112365674Y-137076044D01*
X112361253Y-137071134D01*
X112241715Y-136984284D01*
X112212094Y-136962763D01*
X112212093Y-136962762D01*
X112206752Y-136958882D01*
X112200724Y-136956198D01*
X112200722Y-136956197D01*
X112038319Y-136883891D01*
X112038318Y-136883891D01*
X112032288Y-136881206D01*
X111928989Y-136859249D01*
X111851944Y-136842872D01*
X111851939Y-136842872D01*
X111845487Y-136841500D01*
X111654513Y-136841500D01*
X111648061Y-136842872D01*
X111648056Y-136842872D01*
X111571011Y-136859249D01*
X111467712Y-136881206D01*
X111461682Y-136883891D01*
X111461681Y-136883891D01*
X111299278Y-136956197D01*
X111299276Y-136956198D01*
X111293248Y-136958882D01*
X111287907Y-136962762D01*
X111287906Y-136962763D01*
X111258285Y-136984284D01*
X111138747Y-137071134D01*
X111134326Y-137076044D01*
X111134325Y-137076045D01*
X111030022Y-137191886D01*
X111010960Y-137213056D01*
X110976518Y-137272712D01*
X110925797Y-137360563D01*
X110915473Y-137378444D01*
X110856458Y-137560072D01*
X110855768Y-137566633D01*
X110855768Y-137566635D01*
X110843093Y-137687229D01*
X110836496Y-137750000D01*
X100508500Y-137750000D01*
X100508500Y-114996462D01*
X119486626Y-114996462D01*
X119505239Y-115193362D01*
X119506999Y-115199265D01*
X119556687Y-115365941D01*
X119561741Y-115382896D01*
X119653982Y-115557846D01*
X119657858Y-115562632D01*
X119657859Y-115562634D01*
X119774568Y-115706757D01*
X119778447Y-115711547D01*
X119930396Y-115838146D01*
X120104041Y-115932822D01*
X120184873Y-115958153D01*
X120286886Y-115990122D01*
X120286889Y-115990123D01*
X120292768Y-115991965D01*
X120298891Y-115992630D01*
X120298895Y-115992631D01*
X120483263Y-116012659D01*
X120483267Y-116012659D01*
X120489388Y-116013324D01*
X120686413Y-115996087D01*
X120692330Y-115994368D01*
X120692335Y-115994367D01*
X120862320Y-115944981D01*
X120876336Y-115940909D01*
X121051926Y-115849892D01*
X121086037Y-115822662D01*
X121170223Y-115755458D01*
X121170230Y-115755451D01*
X121172973Y-115753262D01*
X122460777Y-114465458D01*
X123746127Y-113180107D01*
X123748309Y-113177925D01*
X123768371Y-113153502D01*
X123804769Y-113109190D01*
X123842103Y-113063739D01*
X123935562Y-112889437D01*
X123940296Y-112873955D01*
X123991586Y-112706196D01*
X123993388Y-112700302D01*
X123995694Y-112677604D01*
X124012752Y-112509666D01*
X124012752Y-112509661D01*
X124013374Y-112503538D01*
X123994761Y-112306638D01*
X123958697Y-112185663D01*
X123940019Y-112123007D01*
X123940018Y-112123005D01*
X123938259Y-112117104D01*
X123846018Y-111942153D01*
X123721553Y-111788453D01*
X123625168Y-111708148D01*
X123574338Y-111665798D01*
X123574337Y-111665797D01*
X123569604Y-111661854D01*
X123395959Y-111567178D01*
X123291683Y-111534500D01*
X123213114Y-111509878D01*
X123213111Y-111509877D01*
X123207232Y-111508035D01*
X123201109Y-111507370D01*
X123201105Y-111507369D01*
X123016737Y-111487341D01*
X123016733Y-111487341D01*
X123010612Y-111486676D01*
X122813587Y-111503913D01*
X122807670Y-111505632D01*
X122807665Y-111505633D01*
X122732634Y-111527432D01*
X122623664Y-111559091D01*
X122448074Y-111650108D01*
X122424691Y-111668774D01*
X122329777Y-111744542D01*
X122329770Y-111744549D01*
X122327027Y-111746738D01*
X119751691Y-114322075D01*
X119749738Y-114324452D01*
X119749734Y-114324457D01*
X119722613Y-114357475D01*
X119657897Y-114436261D01*
X119651029Y-114449070D01*
X119571980Y-114596498D01*
X119564438Y-114610563D01*
X119506613Y-114799698D01*
X119505990Y-114805833D01*
X119494683Y-114917147D01*
X119486626Y-114996462D01*
X100508500Y-114996462D01*
X100508500Y-100634500D01*
X100528502Y-100566379D01*
X100582158Y-100519886D01*
X100634500Y-100508500D01*
X385365500Y-100508500D01*
X385433621Y-100528502D01*
G37*
%TD.AperFunction*%
%TA.AperFunction,Conductor*%
G36*
X247847461Y-131152609D02*
G01*
X247886319Y-131176169D01*
X247888747Y-131178866D01*
X247894089Y-131182747D01*
X247894091Y-131182749D01*
X248029488Y-131281121D01*
X248043248Y-131291118D01*
X248049276Y-131293802D01*
X248049278Y-131293803D01*
X248205105Y-131363181D01*
X248217712Y-131368794D01*
X248298970Y-131386066D01*
X248398056Y-131407128D01*
X248398061Y-131407128D01*
X248404513Y-131408500D01*
X248595487Y-131408500D01*
X248601939Y-131407128D01*
X248601944Y-131407128D01*
X248701030Y-131386066D01*
X248782288Y-131368794D01*
X248948752Y-131294680D01*
X249019118Y-131285246D01*
X249051247Y-131294680D01*
X249217712Y-131368794D01*
X249224167Y-131370166D01*
X249224170Y-131370167D01*
X249237382Y-131372975D01*
X249299855Y-131406703D01*
X249334177Y-131468852D01*
X249337036Y-131494860D01*
X249336496Y-131500000D01*
X249356458Y-131689928D01*
X249415473Y-131871556D01*
X249510960Y-132036944D01*
X249515378Y-132041851D01*
X249515379Y-132041852D01*
X249630350Y-132169540D01*
X249638747Y-132178866D01*
X249793248Y-132291118D01*
X249799276Y-132293802D01*
X249799278Y-132293803D01*
X249860665Y-132321134D01*
X249967712Y-132368794D01*
X250061113Y-132388647D01*
X250148056Y-132407128D01*
X250148061Y-132407128D01*
X250154513Y-132408500D01*
X250345487Y-132408500D01*
X250351939Y-132407128D01*
X250351944Y-132407128D01*
X250438887Y-132388647D01*
X250532288Y-132368794D01*
X250639335Y-132321134D01*
X250700722Y-132293803D01*
X250700724Y-132293802D01*
X250706752Y-132291118D01*
X250745905Y-132262672D01*
X250855061Y-132183365D01*
X250861253Y-132178866D01*
X250865668Y-132173963D01*
X250870580Y-132169540D01*
X250871705Y-132170789D01*
X250925014Y-132137949D01*
X250958200Y-132133500D01*
X251685406Y-132133500D01*
X251753527Y-132153502D01*
X251774501Y-132170405D01*
X252996343Y-133392247D01*
X253003887Y-133400537D01*
X253008000Y-133407018D01*
X253013777Y-133412443D01*
X253057667Y-133453658D01*
X253060509Y-133456413D01*
X253080230Y-133476134D01*
X253083425Y-133478612D01*
X253092447Y-133486318D01*
X253124679Y-133516586D01*
X253131628Y-133520406D01*
X253142432Y-133526346D01*
X253158956Y-133537199D01*
X253174959Y-133549613D01*
X253215543Y-133567176D01*
X253226173Y-133572383D01*
X253264940Y-133593695D01*
X253272617Y-133595666D01*
X253272622Y-133595668D01*
X253284558Y-133598732D01*
X253303266Y-133605137D01*
X253321855Y-133613181D01*
X253329680Y-133614420D01*
X253329682Y-133614421D01*
X253365519Y-133620097D01*
X253377140Y-133622504D01*
X253412289Y-133631528D01*
X253419970Y-133633500D01*
X253440231Y-133633500D01*
X253459940Y-133635051D01*
X253479943Y-133638219D01*
X253487835Y-133637473D01*
X253493062Y-133636979D01*
X253523954Y-133634059D01*
X253535811Y-133633500D01*
X262935406Y-133633500D01*
X263003527Y-133653502D01*
X263024501Y-133670405D01*
X263302878Y-133948782D01*
X263336904Y-134011094D01*
X263339093Y-134024707D01*
X263354947Y-134175547D01*
X263356458Y-134189928D01*
X263415473Y-134371556D01*
X263510960Y-134536944D01*
X263638747Y-134678866D01*
X263793248Y-134791118D01*
X263799276Y-134793802D01*
X263799278Y-134793803D01*
X263961681Y-134866109D01*
X263967712Y-134868794D01*
X264061112Y-134888647D01*
X264148056Y-134907128D01*
X264148061Y-134907128D01*
X264154513Y-134908500D01*
X264345487Y-134908500D01*
X264351939Y-134907128D01*
X264351944Y-134907128D01*
X264464303Y-134883245D01*
X264535094Y-134888647D01*
X264591727Y-134931464D01*
X264616220Y-134998102D01*
X264616500Y-135006492D01*
X264616500Y-139990500D01*
X264596498Y-140058621D01*
X264542842Y-140105114D01*
X264490500Y-140116500D01*
X233333594Y-140116500D01*
X233265473Y-140096498D01*
X233218980Y-140042842D01*
X233208876Y-139972568D01*
X233238370Y-139907988D01*
X233244499Y-139901405D01*
X235676836Y-137469068D01*
X235739148Y-137435042D01*
X235809963Y-137440107D01*
X235866799Y-137482654D01*
X235891610Y-137549174D01*
X235886263Y-137595527D01*
X235849860Y-137712763D01*
X235837403Y-137752882D01*
X235811837Y-137968887D01*
X235826063Y-138185933D01*
X235827484Y-138191529D01*
X235827485Y-138191534D01*
X235865470Y-138341097D01*
X235879605Y-138396753D01*
X235882022Y-138401996D01*
X235894953Y-138430045D01*
X235970668Y-138594285D01*
X235974001Y-138599001D01*
X236080717Y-138750000D01*
X236096204Y-138771914D01*
X236252009Y-138923692D01*
X236256813Y-138926902D01*
X236276308Y-138939928D01*
X236432863Y-139044536D01*
X236438171Y-139046817D01*
X236438172Y-139046817D01*
X236627409Y-139128119D01*
X236627412Y-139128120D01*
X236632712Y-139130397D01*
X236638342Y-139131671D01*
X236736464Y-139153874D01*
X236844860Y-139178402D01*
X236850631Y-139178629D01*
X236850633Y-139178629D01*
X236923620Y-139181496D01*
X237062205Y-139186941D01*
X237277466Y-139155730D01*
X237282930Y-139153875D01*
X237282935Y-139153874D01*
X237477963Y-139087671D01*
X237477968Y-139087669D01*
X237483435Y-139085813D01*
X237673213Y-138979532D01*
X237840446Y-138840446D01*
X237900252Y-138768537D01*
X237959189Y-138728953D01*
X238030171Y-138727517D01*
X238092913Y-138767258D01*
X238096204Y-138771914D01*
X238100346Y-138775949D01*
X238100348Y-138775951D01*
X238166554Y-138840446D01*
X238252009Y-138923692D01*
X238256813Y-138926902D01*
X238276308Y-138939928D01*
X238432863Y-139044536D01*
X238438171Y-139046817D01*
X238438172Y-139046817D01*
X238627409Y-139128119D01*
X238627412Y-139128120D01*
X238632712Y-139130397D01*
X238638342Y-139131671D01*
X238736464Y-139153874D01*
X238844860Y-139178402D01*
X238850631Y-139178629D01*
X238850633Y-139178629D01*
X238923620Y-139181496D01*
X239062205Y-139186941D01*
X239277466Y-139155730D01*
X239282930Y-139153875D01*
X239282935Y-139153874D01*
X239477963Y-139087671D01*
X239477968Y-139087669D01*
X239483435Y-139085813D01*
X239673213Y-138979532D01*
X239840446Y-138840446D01*
X239900252Y-138768537D01*
X239959189Y-138728953D01*
X240030171Y-138727517D01*
X240092913Y-138767258D01*
X240096204Y-138771914D01*
X240100346Y-138775949D01*
X240100348Y-138775951D01*
X240166554Y-138840446D01*
X240252009Y-138923692D01*
X240256813Y-138926902D01*
X240276308Y-138939928D01*
X240432863Y-139044536D01*
X240438171Y-139046817D01*
X240438172Y-139046817D01*
X240627409Y-139128119D01*
X240627412Y-139128120D01*
X240632712Y-139130397D01*
X240638342Y-139131671D01*
X240736464Y-139153874D01*
X240844860Y-139178402D01*
X240850631Y-139178629D01*
X240850633Y-139178629D01*
X240923620Y-139181496D01*
X241062205Y-139186941D01*
X241277466Y-139155730D01*
X241282930Y-139153875D01*
X241282935Y-139153874D01*
X241477963Y-139087671D01*
X241477968Y-139087669D01*
X241483435Y-139085813D01*
X241673213Y-138979532D01*
X241840446Y-138840446D01*
X241979532Y-138673213D01*
X242085813Y-138483435D01*
X242087669Y-138477968D01*
X242087671Y-138477963D01*
X242153874Y-138282935D01*
X242153875Y-138282930D01*
X242155730Y-138277466D01*
X242186941Y-138062205D01*
X242188570Y-138000000D01*
X242168667Y-137783400D01*
X242158250Y-137746462D01*
X242111195Y-137579619D01*
X242109626Y-137574055D01*
X242013423Y-137378974D01*
X241986465Y-137342872D01*
X241886733Y-137209315D01*
X241886732Y-137209314D01*
X241883280Y-137204691D01*
X241875911Y-137197879D01*
X241727796Y-137060963D01*
X241727793Y-137060961D01*
X241723556Y-137057044D01*
X241539599Y-136940976D01*
X241337572Y-136860376D01*
X241124239Y-136817941D01*
X241118464Y-136817865D01*
X241118460Y-136817865D01*
X241009419Y-136816438D01*
X240906746Y-136815094D01*
X240901049Y-136816073D01*
X240901048Y-136816073D01*
X240698065Y-136850952D01*
X240698062Y-136850953D01*
X240692375Y-136851930D01*
X240488307Y-136927214D01*
X240301376Y-137038427D01*
X240137842Y-137181842D01*
X240134270Y-137186372D01*
X240134269Y-137186374D01*
X240100007Y-137229834D01*
X240042125Y-137270947D01*
X239971205Y-137274239D01*
X239909763Y-137238667D01*
X239900100Y-137227215D01*
X239886737Y-137209319D01*
X239886730Y-137209312D01*
X239883280Y-137204691D01*
X239875911Y-137197879D01*
X239727796Y-137060963D01*
X239727793Y-137060961D01*
X239723556Y-137057044D01*
X239539599Y-136940976D01*
X239337572Y-136860376D01*
X239124239Y-136817941D01*
X239118464Y-136817865D01*
X239118460Y-136817865D01*
X239009419Y-136816438D01*
X238906746Y-136815094D01*
X238901049Y-136816073D01*
X238901048Y-136816073D01*
X238698065Y-136850952D01*
X238698062Y-136850953D01*
X238692375Y-136851930D01*
X238488307Y-136927214D01*
X238301376Y-137038427D01*
X238137842Y-137181842D01*
X238134270Y-137186372D01*
X238134269Y-137186374D01*
X238100007Y-137229834D01*
X238042125Y-137270947D01*
X237971205Y-137274239D01*
X237909763Y-137238667D01*
X237900100Y-137227215D01*
X237886737Y-137209319D01*
X237886730Y-137209312D01*
X237883280Y-137204691D01*
X237875911Y-137197879D01*
X237727796Y-137060963D01*
X237727793Y-137060961D01*
X237723556Y-137057044D01*
X237539599Y-136940976D01*
X237337572Y-136860376D01*
X237124239Y-136817941D01*
X237118464Y-136817865D01*
X237118460Y-136817865D01*
X237009419Y-136816438D01*
X236906746Y-136815094D01*
X236901049Y-136816073D01*
X236901048Y-136816073D01*
X236698065Y-136850952D01*
X236698062Y-136850953D01*
X236692375Y-136851930D01*
X236599852Y-136886063D01*
X236529020Y-136890875D01*
X236466830Y-136856628D01*
X236433028Y-136794194D01*
X236438345Y-136723397D01*
X236467148Y-136678756D01*
X237392247Y-135753657D01*
X237400537Y-135746113D01*
X237407018Y-135742000D01*
X237453659Y-135692332D01*
X237456413Y-135689491D01*
X237476134Y-135669770D01*
X237478612Y-135666575D01*
X237486318Y-135657553D01*
X237511158Y-135631101D01*
X237516586Y-135625321D01*
X237526346Y-135607568D01*
X237537199Y-135591045D01*
X237544753Y-135581306D01*
X237549613Y-135575041D01*
X237567176Y-135534457D01*
X237572383Y-135523827D01*
X237593695Y-135485060D01*
X237595666Y-135477383D01*
X237595668Y-135477378D01*
X237597848Y-135468887D01*
X259061837Y-135468887D01*
X259076063Y-135685933D01*
X259077484Y-135691529D01*
X259077485Y-135691534D01*
X259128184Y-135891158D01*
X259129605Y-135896753D01*
X259132022Y-135901996D01*
X259169566Y-135983435D01*
X259220668Y-136094285D01*
X259346204Y-136271914D01*
X259502009Y-136423692D01*
X259682863Y-136544536D01*
X259688171Y-136546817D01*
X259688172Y-136546817D01*
X259877409Y-136628119D01*
X259877412Y-136628120D01*
X259882712Y-136630397D01*
X259888342Y-136631671D01*
X259986464Y-136653874D01*
X260094860Y-136678402D01*
X260100631Y-136678629D01*
X260100633Y-136678629D01*
X260173620Y-136681496D01*
X260312205Y-136686941D01*
X260527466Y-136655730D01*
X260532930Y-136653875D01*
X260532935Y-136653874D01*
X260727963Y-136587671D01*
X260727968Y-136587669D01*
X260733435Y-136585813D01*
X260923213Y-136479532D01*
X261090446Y-136340446D01*
X261229532Y-136173213D01*
X261335813Y-135983435D01*
X261337669Y-135977968D01*
X261337671Y-135977963D01*
X261403874Y-135782935D01*
X261403875Y-135782930D01*
X261405730Y-135777466D01*
X261436941Y-135562205D01*
X261438570Y-135500000D01*
X261418667Y-135283400D01*
X261359626Y-135074055D01*
X261263423Y-134878974D01*
X261133280Y-134704691D01*
X261113464Y-134686373D01*
X260977796Y-134560963D01*
X260977793Y-134560961D01*
X260973556Y-134557044D01*
X260789599Y-134440976D01*
X260587572Y-134360376D01*
X260374239Y-134317941D01*
X260368464Y-134317865D01*
X260368460Y-134317865D01*
X260259419Y-134316438D01*
X260156746Y-134315094D01*
X260151049Y-134316073D01*
X260151048Y-134316073D01*
X259948065Y-134350952D01*
X259948062Y-134350953D01*
X259942375Y-134351930D01*
X259738307Y-134427214D01*
X259686761Y-134457881D01*
X259589550Y-134515716D01*
X259551376Y-134538427D01*
X259387842Y-134681842D01*
X259384270Y-134686373D01*
X259270018Y-134831301D01*
X259253181Y-134852658D01*
X259250493Y-134857767D01*
X259243970Y-134870166D01*
X259151905Y-135045154D01*
X259150192Y-135050671D01*
X259099418Y-135214189D01*
X259087403Y-135252882D01*
X259061837Y-135468887D01*
X237597848Y-135468887D01*
X237598732Y-135465442D01*
X237605138Y-135446730D01*
X237610034Y-135435417D01*
X237613181Y-135428145D01*
X237620097Y-135384481D01*
X237622504Y-135372860D01*
X237631528Y-135337711D01*
X237631528Y-135337710D01*
X237633500Y-135330030D01*
X237633500Y-135309769D01*
X237635051Y-135290058D01*
X237636979Y-135277885D01*
X237638219Y-135270057D01*
X237634059Y-135226046D01*
X237633500Y-135214189D01*
X237633500Y-133702524D01*
X237653502Y-133634403D01*
X237665858Y-133618221D01*
X237739040Y-133536944D01*
X237814053Y-133407018D01*
X237831223Y-133377279D01*
X237831224Y-133377278D01*
X237834527Y-133371556D01*
X237893542Y-133189928D01*
X237898806Y-133139849D01*
X237912814Y-133006565D01*
X237913504Y-133000000D01*
X237903743Y-132907128D01*
X237894232Y-132816635D01*
X237894232Y-132816633D01*
X237893542Y-132810072D01*
X237891503Y-132803797D01*
X237891502Y-132803792D01*
X237889762Y-132798438D01*
X237887733Y-132727471D01*
X237924394Y-132666672D01*
X237988106Y-132635346D01*
X238009594Y-132633500D01*
X245921233Y-132633500D01*
X245932416Y-132634027D01*
X245939909Y-132635702D01*
X245947835Y-132635453D01*
X245947836Y-132635453D01*
X246007986Y-132633562D01*
X246011945Y-132633500D01*
X246039856Y-132633500D01*
X246043791Y-132633003D01*
X246043856Y-132632995D01*
X246055693Y-132632062D01*
X246087951Y-132631048D01*
X246091970Y-132630922D01*
X246099889Y-132630673D01*
X246119343Y-132625021D01*
X246138700Y-132621013D01*
X246150930Y-132619468D01*
X246150931Y-132619468D01*
X246158797Y-132618474D01*
X246166168Y-132615555D01*
X246166170Y-132615555D01*
X246199912Y-132602196D01*
X246211142Y-132598351D01*
X246245983Y-132588229D01*
X246245984Y-132588229D01*
X246253593Y-132586018D01*
X246260412Y-132581985D01*
X246260417Y-132581983D01*
X246271028Y-132575707D01*
X246288776Y-132567012D01*
X246307617Y-132559552D01*
X246343387Y-132533564D01*
X246353307Y-132527048D01*
X246384535Y-132508580D01*
X246384538Y-132508578D01*
X246391362Y-132504542D01*
X246405683Y-132490221D01*
X246420717Y-132477380D01*
X246430694Y-132470131D01*
X246437107Y-132465472D01*
X246465298Y-132431395D01*
X246473288Y-132422616D01*
X247714334Y-131181570D01*
X247776646Y-131147544D01*
X247847461Y-131152609D01*
G37*
%TD.AperFunction*%
%TA.AperFunction,Conductor*%
G36*
X237253527Y-113903502D02*
G01*
X237274501Y-113920405D01*
X240274835Y-116920740D01*
X240308861Y-116983052D01*
X240303796Y-117053868D01*
X240261249Y-117110703D01*
X240224679Y-117129667D01*
X240224162Y-117129835D01*
X240217712Y-117131206D01*
X240211688Y-117133888D01*
X240211685Y-117133889D01*
X240049278Y-117206197D01*
X240049276Y-117206198D01*
X240043248Y-117208882D01*
X239888747Y-117321134D01*
X239760960Y-117463056D01*
X239665473Y-117628444D01*
X239606458Y-117810072D01*
X239605768Y-117816633D01*
X239605768Y-117816635D01*
X239600636Y-117865463D01*
X239586496Y-118000000D01*
X239606458Y-118189928D01*
X239665473Y-118371556D01*
X239760960Y-118536944D01*
X239765378Y-118541851D01*
X239765379Y-118541852D01*
X239863685Y-118651032D01*
X239888747Y-118678866D01*
X240043248Y-118791118D01*
X240049276Y-118793802D01*
X240049278Y-118793803D01*
X240211681Y-118866109D01*
X240217712Y-118868794D01*
X240303270Y-118886980D01*
X240398056Y-118907128D01*
X240398061Y-118907128D01*
X240404513Y-118908500D01*
X240459691Y-118908500D01*
X240527812Y-118928502D01*
X240545942Y-118942648D01*
X240557651Y-118953643D01*
X240560495Y-118956400D01*
X240580230Y-118976135D01*
X240583427Y-118978615D01*
X240592447Y-118986318D01*
X240624679Y-119016586D01*
X240631625Y-119020405D01*
X240631628Y-119020407D01*
X240642434Y-119026348D01*
X240658953Y-119037199D01*
X240674959Y-119049614D01*
X240682228Y-119052759D01*
X240682232Y-119052762D01*
X240715537Y-119067174D01*
X240726187Y-119072391D01*
X240764940Y-119093695D01*
X240772615Y-119095666D01*
X240772616Y-119095666D01*
X240784562Y-119098733D01*
X240803267Y-119105137D01*
X240821855Y-119113181D01*
X240829678Y-119114420D01*
X240829688Y-119114423D01*
X240865524Y-119120099D01*
X240877144Y-119122505D01*
X240912289Y-119131528D01*
X240919970Y-119133500D01*
X240940224Y-119133500D01*
X240959934Y-119135051D01*
X240979943Y-119138220D01*
X240987835Y-119137474D01*
X241023961Y-119134059D01*
X241035819Y-119133500D01*
X250024693Y-119133500D01*
X250092814Y-119153502D01*
X250139307Y-119207158D01*
X250149411Y-119277432D01*
X250118329Y-119343810D01*
X250015379Y-119458148D01*
X250010960Y-119463056D01*
X249915473Y-119628444D01*
X249856458Y-119810072D01*
X249855768Y-119816635D01*
X249855768Y-119816636D01*
X249853774Y-119835610D01*
X249826762Y-119901267D01*
X249817559Y-119911536D01*
X247409421Y-122319674D01*
X247346523Y-122353826D01*
X247317318Y-122360034D01*
X247217712Y-122381206D01*
X247211682Y-122383891D01*
X247211681Y-122383891D01*
X247049278Y-122456197D01*
X247049276Y-122456198D01*
X247043248Y-122458882D01*
X247037907Y-122462762D01*
X247037906Y-122462763D01*
X247019815Y-122475907D01*
X246888747Y-122571134D01*
X246760960Y-122713056D01*
X246721602Y-122781226D01*
X246674938Y-122862051D01*
X246665473Y-122878444D01*
X246606458Y-123060072D01*
X246605768Y-123066633D01*
X246605768Y-123066635D01*
X246589093Y-123225292D01*
X246562080Y-123290949D01*
X246552879Y-123301217D01*
X246324929Y-123529166D01*
X246107742Y-123746353D01*
X246099463Y-123753887D01*
X246092982Y-123758000D01*
X246066602Y-123786092D01*
X246046357Y-123807651D01*
X246043602Y-123810493D01*
X246023865Y-123830230D01*
X246021385Y-123833427D01*
X246013682Y-123842447D01*
X245983414Y-123874679D01*
X245979595Y-123881625D01*
X245979593Y-123881628D01*
X245973652Y-123892434D01*
X245962801Y-123908953D01*
X245950386Y-123924959D01*
X245947241Y-123932228D01*
X245947238Y-123932232D01*
X245932826Y-123965537D01*
X245927609Y-123976187D01*
X245906305Y-124014940D01*
X245904334Y-124022615D01*
X245904334Y-124022616D01*
X245901267Y-124034562D01*
X245894863Y-124053266D01*
X245886819Y-124071855D01*
X245885580Y-124079678D01*
X245885577Y-124079688D01*
X245879901Y-124115524D01*
X245877495Y-124127144D01*
X245875330Y-124135577D01*
X245866500Y-124169970D01*
X245866500Y-124190224D01*
X245864949Y-124209934D01*
X245861780Y-124229943D01*
X245862526Y-124237835D01*
X245865941Y-124273961D01*
X245866500Y-124285819D01*
X245866500Y-126435405D01*
X245846498Y-126503526D01*
X245829595Y-126524501D01*
X245607742Y-126746353D01*
X245599463Y-126753887D01*
X245592982Y-126758000D01*
X245553450Y-126800098D01*
X245546357Y-126807651D01*
X245543602Y-126810493D01*
X245523865Y-126830230D01*
X245521385Y-126833427D01*
X245513682Y-126842447D01*
X245483414Y-126874679D01*
X245479595Y-126881625D01*
X245479593Y-126881628D01*
X245473652Y-126892434D01*
X245462801Y-126908953D01*
X245450386Y-126924959D01*
X245447241Y-126932228D01*
X245447238Y-126932232D01*
X245432826Y-126965537D01*
X245427609Y-126976187D01*
X245406305Y-127014940D01*
X245404334Y-127022615D01*
X245404334Y-127022616D01*
X245401267Y-127034562D01*
X245394863Y-127053266D01*
X245386819Y-127071855D01*
X245385580Y-127079678D01*
X245385577Y-127079688D01*
X245379901Y-127115524D01*
X245377495Y-127127144D01*
X245368960Y-127160387D01*
X245366500Y-127169970D01*
X245366500Y-127190224D01*
X245364949Y-127209934D01*
X245361780Y-127229943D01*
X245364849Y-127262404D01*
X245365941Y-127273961D01*
X245366500Y-127285819D01*
X245366500Y-129435405D01*
X245346498Y-129503526D01*
X245329595Y-129524500D01*
X245024500Y-129829595D01*
X244962188Y-129863621D01*
X244935405Y-129866500D01*
X236078767Y-129866500D01*
X236067584Y-129865973D01*
X236060091Y-129864298D01*
X236052165Y-129864547D01*
X236052164Y-129864547D01*
X235992001Y-129866438D01*
X235988043Y-129866500D01*
X235960144Y-129866500D01*
X235956154Y-129867004D01*
X235944320Y-129867936D01*
X235900111Y-129869326D01*
X235892497Y-129871538D01*
X235892492Y-129871539D01*
X235880659Y-129874977D01*
X235861296Y-129878988D01*
X235841203Y-129881526D01*
X235833836Y-129884443D01*
X235833831Y-129884444D01*
X235800092Y-129897802D01*
X235788865Y-129901646D01*
X235746407Y-129913982D01*
X235739581Y-129918019D01*
X235728972Y-129924293D01*
X235711224Y-129932988D01*
X235692383Y-129940448D01*
X235685967Y-129945110D01*
X235685966Y-129945110D01*
X235656613Y-129966436D01*
X235646693Y-129972952D01*
X235615465Y-129991420D01*
X235615462Y-129991422D01*
X235608638Y-129995458D01*
X235594317Y-130009779D01*
X235579284Y-130022619D01*
X235562893Y-130034528D01*
X235557843Y-130040632D01*
X235557838Y-130040637D01*
X235534707Y-130068598D01*
X235526717Y-130077379D01*
X234839701Y-130764394D01*
X234777389Y-130798419D01*
X234706573Y-130793354D01*
X234649738Y-130750807D01*
X234630773Y-130714234D01*
X234630606Y-130713717D01*
X234599901Y-130619219D01*
X234563736Y-130556580D01*
X234546999Y-130487587D01*
X234563737Y-130430582D01*
X234599548Y-130368556D01*
X234599549Y-130368555D01*
X234602852Y-130362833D01*
X234661867Y-130181205D01*
X234672780Y-130077379D01*
X234681139Y-129997842D01*
X234681829Y-129991277D01*
X234672234Y-129899988D01*
X234662557Y-129807912D01*
X234662557Y-129807910D01*
X234661867Y-129801349D01*
X234602852Y-129619721D01*
X234555385Y-129537506D01*
X234538647Y-129468511D01*
X234555385Y-129411506D01*
X234586374Y-129357832D01*
X234586375Y-129357831D01*
X234589678Y-129352109D01*
X234648693Y-129170481D01*
X234650097Y-129157128D01*
X234667965Y-128987118D01*
X234668655Y-128980553D01*
X234648693Y-128790625D01*
X234589678Y-128608997D01*
X234550038Y-128540340D01*
X234533301Y-128471346D01*
X234550038Y-128414343D01*
X234587327Y-128349757D01*
X234646342Y-128168129D01*
X234648374Y-128148801D01*
X234665614Y-127984766D01*
X234666304Y-127978201D01*
X234646342Y-127788273D01*
X234587327Y-127606645D01*
X234548611Y-127539588D01*
X234531874Y-127470596D01*
X234548612Y-127413590D01*
X234582843Y-127354301D01*
X234582844Y-127354300D01*
X234586147Y-127348578D01*
X234645162Y-127166950D01*
X234648497Y-127135225D01*
X234664434Y-126983587D01*
X234665124Y-126977022D01*
X234657778Y-126907128D01*
X234645852Y-126793657D01*
X234645852Y-126793655D01*
X234645162Y-126787094D01*
X234586147Y-126605466D01*
X234547906Y-126539231D01*
X234531168Y-126470236D01*
X234547906Y-126413231D01*
X234551649Y-126406749D01*
X234585568Y-126347999D01*
X234644583Y-126166371D01*
X234664545Y-125976443D01*
X234646399Y-125803794D01*
X234645273Y-125793078D01*
X234645273Y-125793076D01*
X234644583Y-125786515D01*
X234585568Y-125604887D01*
X234566870Y-125572500D01*
X234547560Y-125539055D01*
X234530822Y-125470060D01*
X234547560Y-125413055D01*
X234581980Y-125353438D01*
X234581981Y-125353437D01*
X234585284Y-125347715D01*
X234644299Y-125166087D01*
X234664261Y-124976159D01*
X234649937Y-124839876D01*
X234644989Y-124792794D01*
X234644989Y-124792792D01*
X234644299Y-124786231D01*
X234585284Y-124604603D01*
X234547391Y-124538970D01*
X234530653Y-124469974D01*
X234547391Y-124412970D01*
X234581842Y-124353299D01*
X234581843Y-124353298D01*
X234585146Y-124347576D01*
X234644161Y-124165948D01*
X234648240Y-124127144D01*
X234663433Y-123982585D01*
X234664123Y-123976020D01*
X234656871Y-123907018D01*
X234644851Y-123792655D01*
X234644851Y-123792653D01*
X234644161Y-123786092D01*
X234585146Y-123604464D01*
X234547308Y-123538927D01*
X234530570Y-123469932D01*
X234547308Y-123412927D01*
X234581774Y-123353231D01*
X234581775Y-123353230D01*
X234585078Y-123347508D01*
X234644093Y-123165880D01*
X234649601Y-123113480D01*
X234663365Y-122982517D01*
X234664055Y-122975952D01*
X234650449Y-122846498D01*
X234644783Y-122792587D01*
X234644783Y-122792585D01*
X234644093Y-122786024D01*
X234585078Y-122604396D01*
X234547268Y-122538907D01*
X234530530Y-122469912D01*
X234547268Y-122412907D01*
X234581741Y-122353198D01*
X234581742Y-122353197D01*
X234585045Y-122347475D01*
X234644060Y-122165847D01*
X234646541Y-122142247D01*
X234663332Y-121982484D01*
X234664022Y-121975919D01*
X234644060Y-121785991D01*
X234585045Y-121604363D01*
X234581741Y-121598640D01*
X234547248Y-121538896D01*
X234530510Y-121469900D01*
X234547248Y-121412896D01*
X234581724Y-121353182D01*
X234581725Y-121353181D01*
X234585028Y-121347459D01*
X234644043Y-121165831D01*
X234655819Y-121053794D01*
X234663315Y-120982468D01*
X234664005Y-120975903D01*
X234655709Y-120896973D01*
X234644733Y-120792538D01*
X234644733Y-120792536D01*
X234644043Y-120785975D01*
X234585028Y-120604347D01*
X234567999Y-120574851D01*
X234542811Y-120531226D01*
X234489541Y-120438959D01*
X234473581Y-120421233D01*
X234366176Y-120301948D01*
X234366175Y-120301947D01*
X234361754Y-120297037D01*
X234207253Y-120184785D01*
X234201225Y-120182101D01*
X234201223Y-120182100D01*
X234038820Y-120109794D01*
X234038819Y-120109794D01*
X234032789Y-120107109D01*
X233939388Y-120087256D01*
X233852445Y-120068775D01*
X233852440Y-120068775D01*
X233845988Y-120067403D01*
X233765497Y-120067403D01*
X233697376Y-120047401D01*
X233676402Y-120030498D01*
X227744500Y-114098595D01*
X227710474Y-114036283D01*
X227715539Y-113965468D01*
X227758086Y-113908632D01*
X227824606Y-113883821D01*
X227833595Y-113883500D01*
X237185406Y-113883500D01*
X237253527Y-113903502D01*
G37*
%TD.AperFunction*%
%TA.AperFunction,Conductor*%
G36*
X264792335Y-118447763D02*
G01*
X264825836Y-118471740D01*
X264829595Y-118475499D01*
X264863621Y-118537811D01*
X264866500Y-118564594D01*
X264866500Y-120421233D01*
X264865973Y-120432416D01*
X264864298Y-120439909D01*
X264864547Y-120447835D01*
X264864547Y-120447836D01*
X264866438Y-120507986D01*
X264866500Y-120511945D01*
X264866500Y-120539856D01*
X264866997Y-120543790D01*
X264866997Y-120543791D01*
X264867005Y-120543856D01*
X264867938Y-120555693D01*
X264869327Y-120599889D01*
X264874978Y-120619339D01*
X264878987Y-120638700D01*
X264881526Y-120658797D01*
X264884445Y-120666168D01*
X264884445Y-120666170D01*
X264897804Y-120699912D01*
X264901649Y-120711142D01*
X264913982Y-120753593D01*
X264918015Y-120760412D01*
X264918017Y-120760417D01*
X264924293Y-120771028D01*
X264932988Y-120788776D01*
X264940448Y-120807617D01*
X264945110Y-120814033D01*
X264945110Y-120814034D01*
X264966436Y-120843387D01*
X264972952Y-120853307D01*
X264984434Y-120872721D01*
X264995458Y-120891362D01*
X265009779Y-120905683D01*
X265022619Y-120920716D01*
X265034528Y-120937107D01*
X265040634Y-120942158D01*
X265068605Y-120965298D01*
X265077384Y-120973288D01*
X268326153Y-124222057D01*
X268360179Y-124284369D01*
X268355114Y-124355184D01*
X268312567Y-124412020D01*
X268248040Y-124436673D01*
X268105609Y-124449135D01*
X268021913Y-124456457D01*
X268016600Y-124457881D01*
X268016598Y-124457881D01*
X267958459Y-124473459D01*
X267887482Y-124471769D01*
X267836753Y-124440847D01*
X267753648Y-124357742D01*
X267746113Y-124349462D01*
X267742000Y-124342982D01*
X267692348Y-124296356D01*
X267689507Y-124293602D01*
X267669770Y-124273865D01*
X267666573Y-124271385D01*
X267657551Y-124263680D01*
X267631100Y-124238841D01*
X267625321Y-124233414D01*
X267618375Y-124229595D01*
X267618372Y-124229593D01*
X267607566Y-124223652D01*
X267591047Y-124212801D01*
X267587352Y-124209935D01*
X267575041Y-124200386D01*
X267567772Y-124197241D01*
X267567768Y-124197238D01*
X267534463Y-124182826D01*
X267523813Y-124177609D01*
X267485060Y-124156305D01*
X267465437Y-124151267D01*
X267446734Y-124144863D01*
X267435420Y-124139967D01*
X267435419Y-124139967D01*
X267428145Y-124136819D01*
X267420322Y-124135580D01*
X267420312Y-124135577D01*
X267384476Y-124129901D01*
X267372856Y-124127495D01*
X267337711Y-124118472D01*
X267337710Y-124118472D01*
X267330030Y-124116500D01*
X267309776Y-124116500D01*
X267290065Y-124114949D01*
X267278903Y-124113181D01*
X267270057Y-124111780D01*
X267262165Y-124112526D01*
X267226039Y-124115941D01*
X267214181Y-124116500D01*
X266411347Y-124116500D01*
X266343226Y-124096498D01*
X266296733Y-124042842D01*
X266286629Y-123972568D01*
X266302228Y-123927500D01*
X266331223Y-123877279D01*
X266331224Y-123877278D01*
X266334527Y-123871556D01*
X266393542Y-123689928D01*
X266406501Y-123566635D01*
X266412814Y-123506565D01*
X266413504Y-123500000D01*
X266396014Y-123333594D01*
X266394232Y-123316635D01*
X266394232Y-123316633D01*
X266393542Y-123310072D01*
X266334527Y-123128444D01*
X266327406Y-123116109D01*
X266284109Y-123041118D01*
X266239040Y-122963056D01*
X266211752Y-122932749D01*
X266115675Y-122826045D01*
X266115674Y-122826044D01*
X266111253Y-122821134D01*
X265956752Y-122708882D01*
X265950724Y-122706198D01*
X265950722Y-122706197D01*
X265788319Y-122633891D01*
X265788318Y-122633891D01*
X265782288Y-122631206D01*
X265656158Y-122604396D01*
X265601944Y-122592872D01*
X265601939Y-122592872D01*
X265595487Y-122591500D01*
X265404513Y-122591500D01*
X265398061Y-122592872D01*
X265398056Y-122592872D01*
X265343842Y-122604396D01*
X265217712Y-122631206D01*
X265211682Y-122633891D01*
X265211681Y-122633891D01*
X265049278Y-122706197D01*
X265049276Y-122706198D01*
X265043248Y-122708882D01*
X264888747Y-122821134D01*
X264884332Y-122826037D01*
X264879420Y-122830460D01*
X264878295Y-122829211D01*
X264824986Y-122862051D01*
X264791800Y-122866500D01*
X257814595Y-122866500D01*
X257746474Y-122846498D01*
X257725500Y-122829595D01*
X256786838Y-121890933D01*
X256752812Y-121828621D01*
X256757877Y-121757806D01*
X256766814Y-121738838D01*
X256831223Y-121627279D01*
X256831224Y-121627278D01*
X256834527Y-121621556D01*
X256893542Y-121439928D01*
X256913504Y-121250000D01*
X256912814Y-121243435D01*
X256894232Y-121066635D01*
X256894232Y-121066633D01*
X256893542Y-121060072D01*
X256834527Y-120878444D01*
X256739040Y-120713056D01*
X256734620Y-120708148D01*
X256730741Y-120702808D01*
X256732080Y-120701835D01*
X256704950Y-120645304D01*
X256713713Y-120574851D01*
X256731250Y-120547562D01*
X256730741Y-120547192D01*
X256734620Y-120541852D01*
X256739040Y-120536944D01*
X256834527Y-120371556D01*
X256893542Y-120189928D01*
X256897371Y-120153502D01*
X256912814Y-120006565D01*
X256913504Y-120000000D01*
X256893542Y-119810072D01*
X256834527Y-119628444D01*
X256739040Y-119463056D01*
X256673974Y-119390793D01*
X256643257Y-119326785D01*
X256652022Y-119256332D01*
X256678516Y-119217388D01*
X256975499Y-118920405D01*
X257037811Y-118886379D01*
X257064594Y-118883500D01*
X263041800Y-118883500D01*
X263109921Y-118903502D01*
X263129147Y-118919843D01*
X263129420Y-118919540D01*
X263134332Y-118923963D01*
X263138747Y-118928866D01*
X263147721Y-118935386D01*
X263254264Y-119012794D01*
X263293248Y-119041118D01*
X263299276Y-119043802D01*
X263299278Y-119043803D01*
X263461681Y-119116109D01*
X263467712Y-119118794D01*
X263539528Y-119134059D01*
X263648056Y-119157128D01*
X263648061Y-119157128D01*
X263654513Y-119158500D01*
X263845487Y-119158500D01*
X263851939Y-119157128D01*
X263851944Y-119157128D01*
X263960472Y-119134059D01*
X264032288Y-119118794D01*
X264038319Y-119116109D01*
X264200722Y-119043803D01*
X264200724Y-119043802D01*
X264206752Y-119041118D01*
X264245737Y-119012794D01*
X264282175Y-118986320D01*
X264361253Y-118928866D01*
X264397851Y-118888220D01*
X264484621Y-118791852D01*
X264484622Y-118791851D01*
X264489040Y-118786944D01*
X264584527Y-118621556D01*
X264616908Y-118521898D01*
X264656982Y-118463293D01*
X264722379Y-118435656D01*
X264792335Y-118447763D01*
G37*
%TD.AperFunction*%
%TA.AperFunction,Conductor*%
G36*
X217503527Y-113653502D02*
G01*
X217524501Y-113670405D01*
X219012083Y-115157988D01*
X220496348Y-116642253D01*
X220503888Y-116650539D01*
X220508000Y-116657018D01*
X220513777Y-116662443D01*
X220557651Y-116703643D01*
X220560493Y-116706398D01*
X220580230Y-116726135D01*
X220583427Y-116728615D01*
X220592447Y-116736318D01*
X220624679Y-116766586D01*
X220631625Y-116770405D01*
X220631628Y-116770407D01*
X220642434Y-116776348D01*
X220658953Y-116787199D01*
X220674959Y-116799614D01*
X220682228Y-116802759D01*
X220682232Y-116802762D01*
X220715537Y-116817174D01*
X220726187Y-116822391D01*
X220764940Y-116843695D01*
X220772615Y-116845666D01*
X220772616Y-116845666D01*
X220784562Y-116848733D01*
X220803267Y-116855137D01*
X220821855Y-116863181D01*
X220829678Y-116864420D01*
X220829688Y-116864423D01*
X220865524Y-116870099D01*
X220877144Y-116872505D01*
X220912289Y-116881528D01*
X220919970Y-116883500D01*
X220940224Y-116883500D01*
X220959934Y-116885051D01*
X220979943Y-116888220D01*
X220987835Y-116887474D01*
X221023961Y-116884059D01*
X221035819Y-116883500D01*
X225685406Y-116883500D01*
X225753527Y-116903502D01*
X225774501Y-116920405D01*
X227005501Y-118151405D01*
X227039527Y-118213717D01*
X227034462Y-118284532D01*
X226991915Y-118341368D01*
X226925395Y-118366179D01*
X226916406Y-118366500D01*
X218113121Y-118366500D01*
X218045000Y-118346498D01*
X217998507Y-118292842D01*
X217988403Y-118222568D01*
X217989783Y-118214736D01*
X217990122Y-118213113D01*
X217991965Y-118207232D01*
X218003715Y-118099068D01*
X218012659Y-118016736D01*
X218012659Y-118016732D01*
X218013324Y-118010611D01*
X217996087Y-117813587D01*
X217994368Y-117807670D01*
X217994367Y-117807665D01*
X217942627Y-117629578D01*
X217940909Y-117623664D01*
X217849892Y-117448074D01*
X217817205Y-117407128D01*
X217755458Y-117329777D01*
X217755451Y-117329770D01*
X217753262Y-117327027D01*
X216045405Y-115619171D01*
X216011380Y-115556859D01*
X216008500Y-115530076D01*
X216008500Y-113950231D01*
X216008106Y-113946206D01*
X215998819Y-113851502D01*
X215994080Y-113803167D01*
X215991893Y-113795923D01*
X215991887Y-113795192D01*
X215991102Y-113791226D01*
X215991856Y-113791077D01*
X215991348Y-113724930D01*
X216029273Y-113664911D01*
X216093626Y-113634924D01*
X216112513Y-113633500D01*
X217435406Y-113633500D01*
X217503527Y-113653502D01*
G37*
%TD.AperFunction*%
%TA.AperFunction,Conductor*%
G36*
X176043088Y-113403502D02*
G01*
X176089581Y-113457158D01*
X176099685Y-113527432D01*
X176085381Y-113570202D01*
X176071534Y-113595389D01*
X176071533Y-113595392D01*
X176068567Y-113600787D01*
X176066706Y-113606654D01*
X176066705Y-113606656D01*
X176013663Y-113773865D01*
X176008765Y-113789306D01*
X175991500Y-113943227D01*
X175991500Y-115938157D01*
X175990763Y-115951764D01*
X175986676Y-115989388D01*
X175987213Y-115995523D01*
X175991050Y-116039388D01*
X175991379Y-116044214D01*
X175991500Y-116046686D01*
X175991500Y-116049769D01*
X175991801Y-116052837D01*
X175995690Y-116092506D01*
X175995812Y-116093819D01*
X175999391Y-116134729D01*
X176003913Y-116186413D01*
X176005400Y-116191532D01*
X176005920Y-116196833D01*
X176032787Y-116285823D01*
X176033125Y-116286966D01*
X176039642Y-116309396D01*
X176039441Y-116380392D01*
X176000888Y-116440009D01*
X175936224Y-116469319D01*
X175865979Y-116459016D01*
X175829551Y-116433646D01*
X175003652Y-115607747D01*
X174996112Y-115599461D01*
X174992000Y-115592982D01*
X174942348Y-115546356D01*
X174939507Y-115543602D01*
X174919770Y-115523865D01*
X174916573Y-115521385D01*
X174907551Y-115513680D01*
X174881100Y-115488841D01*
X174875321Y-115483414D01*
X174868375Y-115479595D01*
X174868372Y-115479593D01*
X174857566Y-115473652D01*
X174841047Y-115462801D01*
X174832944Y-115456516D01*
X174825041Y-115450386D01*
X174817772Y-115447241D01*
X174817768Y-115447238D01*
X174784463Y-115432826D01*
X174773813Y-115427609D01*
X174735060Y-115406305D01*
X174715437Y-115401267D01*
X174696734Y-115394863D01*
X174685420Y-115389967D01*
X174685419Y-115389967D01*
X174678145Y-115386819D01*
X174670322Y-115385580D01*
X174670312Y-115385577D01*
X174634476Y-115379901D01*
X174622856Y-115377495D01*
X174587711Y-115368472D01*
X174587710Y-115368472D01*
X174580030Y-115366500D01*
X174559776Y-115366500D01*
X174540065Y-115364949D01*
X174527886Y-115363020D01*
X174520057Y-115361780D01*
X174512165Y-115362526D01*
X174476039Y-115365941D01*
X174464181Y-115366500D01*
X169333594Y-115366500D01*
X169265473Y-115346498D01*
X169218980Y-115292842D01*
X169208876Y-115222568D01*
X169238370Y-115157988D01*
X169244499Y-115151405D01*
X170024349Y-114371556D01*
X170975500Y-113420405D01*
X171037812Y-113386379D01*
X171064595Y-113383500D01*
X175974967Y-113383500D01*
X176043088Y-113403502D01*
G37*
%TD.AperFunction*%
%TA.AperFunction,Conductor*%
G36*
X195797794Y-111403502D02*
G01*
X195844287Y-111457158D01*
X195854391Y-111527432D01*
X195823311Y-111593808D01*
X195760960Y-111663056D01*
X195728791Y-111718774D01*
X195690840Y-111784508D01*
X195665473Y-111828444D01*
X195606458Y-112010072D01*
X195605768Y-112016633D01*
X195605768Y-112016635D01*
X195594588Y-112123007D01*
X195586496Y-112200000D01*
X195587186Y-112206565D01*
X195603996Y-112366500D01*
X195606458Y-112389928D01*
X195665473Y-112571556D01*
X195668776Y-112577278D01*
X195668777Y-112577279D01*
X195679873Y-112596498D01*
X195760960Y-112736944D01*
X195765378Y-112741851D01*
X195765379Y-112741852D01*
X195884325Y-112873955D01*
X195888747Y-112878866D01*
X196043248Y-112991118D01*
X196049276Y-112993802D01*
X196049278Y-112993803D01*
X196185820Y-113054595D01*
X196217712Y-113068794D01*
X196310990Y-113088621D01*
X196398056Y-113107128D01*
X196398061Y-113107128D01*
X196404513Y-113108500D01*
X196460405Y-113108500D01*
X196528526Y-113128502D01*
X196549500Y-113145405D01*
X196796348Y-113392253D01*
X196803888Y-113400538D01*
X196808000Y-113407018D01*
X196812272Y-113411030D01*
X196839919Y-113475424D01*
X196828211Y-113545449D01*
X196780504Y-113598027D01*
X196714824Y-113616500D01*
X187503421Y-113616500D01*
X187435300Y-113596498D01*
X187388807Y-113542842D01*
X187383588Y-113529437D01*
X187373736Y-113499115D01*
X187334527Y-113378444D01*
X187311833Y-113339136D01*
X187297314Y-113313990D01*
X187239040Y-113213056D01*
X187233730Y-113207158D01*
X187115675Y-113076045D01*
X187115674Y-113076044D01*
X187111253Y-113071134D01*
X186956752Y-112958882D01*
X186950724Y-112956198D01*
X186950722Y-112956197D01*
X186788319Y-112883891D01*
X186788318Y-112883891D01*
X186782288Y-112881206D01*
X186671923Y-112857747D01*
X186601944Y-112842872D01*
X186601939Y-112842872D01*
X186595487Y-112841500D01*
X186404513Y-112841500D01*
X186398061Y-112842872D01*
X186398056Y-112842872D01*
X186328077Y-112857747D01*
X186217712Y-112881206D01*
X186211682Y-112883891D01*
X186211681Y-112883891D01*
X186049278Y-112956197D01*
X186049276Y-112956198D01*
X186043248Y-112958882D01*
X185888747Y-113071134D01*
X185884326Y-113076044D01*
X185884325Y-113076045D01*
X185766271Y-113207158D01*
X185760960Y-113213056D01*
X185702686Y-113313990D01*
X185688168Y-113339136D01*
X185665473Y-113378444D01*
X185606458Y-113560072D01*
X185605768Y-113566633D01*
X185605768Y-113566635D01*
X185602469Y-113598027D01*
X185586496Y-113750000D01*
X185587186Y-113756565D01*
X185603570Y-113912446D01*
X185606458Y-113939928D01*
X185665473Y-114121556D01*
X185668776Y-114127278D01*
X185668777Y-114127279D01*
X185697772Y-114177500D01*
X185714510Y-114246496D01*
X185691289Y-114313588D01*
X185635482Y-114357475D01*
X185588653Y-114366500D01*
X184564594Y-114366500D01*
X184496473Y-114346498D01*
X184475499Y-114329595D01*
X182341250Y-112195345D01*
X182307224Y-112133033D01*
X182305035Y-112119421D01*
X182304792Y-112117104D01*
X182293542Y-112010072D01*
X182273245Y-111947603D01*
X182236569Y-111834729D01*
X182236568Y-111834726D01*
X182234527Y-111828444D01*
X182209161Y-111784508D01*
X182171209Y-111718774D01*
X182139040Y-111663056D01*
X182076689Y-111593808D01*
X182045973Y-111529803D01*
X182054738Y-111459349D01*
X182100201Y-111404818D01*
X182170327Y-111383500D01*
X195729673Y-111383500D01*
X195797794Y-111403502D01*
G37*
%TD.AperFunction*%
%TA.AperFunction,Conductor*%
G36*
X231753527Y-111403502D02*
G01*
X231774501Y-111420405D01*
X232552878Y-112198782D01*
X232586904Y-112261094D01*
X232589092Y-112274703D01*
X232606458Y-112439928D01*
X232608497Y-112446203D01*
X232608498Y-112446208D01*
X232610238Y-112451562D01*
X232612267Y-112522529D01*
X232575606Y-112583328D01*
X232511894Y-112614654D01*
X232490406Y-112616500D01*
X221839899Y-112616500D01*
X221771778Y-112596498D01*
X221750804Y-112579595D01*
X220769805Y-111598595D01*
X220735779Y-111536283D01*
X220740844Y-111465467D01*
X220783391Y-111408632D01*
X220849911Y-111383821D01*
X220858900Y-111383500D01*
X231685406Y-111383500D01*
X231753527Y-111403502D01*
G37*
%TD.AperFunction*%
%TD*%
M02*
