%TF.GenerationSoftware,KiCad,Pcbnew,6.0.8-f2edbf62ab~116~ubuntu22.04.1*%
%TF.CreationDate,2022-10-14T18:08:29+02:00*%
%TF.ProjectId,bms,626d732e-6b69-4636-9164-5f7063625858,rev?*%
%TF.SameCoordinates,Original*%
%TF.FileFunction,Soldermask,Bot*%
%TF.FilePolarity,Negative*%
%FSLAX46Y46*%
G04 Gerber Fmt 4.6, Leading zero omitted, Abs format (unit mm)*
G04 Created by KiCad (PCBNEW 6.0.8-f2edbf62ab~116~ubuntu22.04.1) date 2022-10-14 18:08:29*
%MOMM*%
%LPD*%
G01*
G04 APERTURE LIST*
G04 Aperture macros list*
%AMRoundRect*
0 Rectangle with rounded corners*
0 $1 Rounding radius*
0 $2 $3 $4 $5 $6 $7 $8 $9 X,Y pos of 4 corners*
0 Add a 4 corners polygon primitive as box body*
4,1,4,$2,$3,$4,$5,$6,$7,$8,$9,$2,$3,0*
0 Add four circle primitives for the rounded corners*
1,1,$1+$1,$2,$3*
1,1,$1+$1,$4,$5*
1,1,$1+$1,$6,$7*
1,1,$1+$1,$8,$9*
0 Add four rect primitives between the rounded corners*
20,1,$1+$1,$2,$3,$4,$5,0*
20,1,$1+$1,$4,$5,$6,$7,0*
20,1,$1+$1,$6,$7,$8,$9,0*
20,1,$1+$1,$8,$9,$2,$3,0*%
G04 Aperture macros list end*
%ADD10C,0.800000*%
%ADD11C,6.400000*%
%ADD12R,1.350000X1.350000*%
%ADD13O,1.350000X1.350000*%
%ADD14C,1.600000*%
%ADD15RoundRect,0.250000X-1.550000X0.650000X-1.550000X-0.650000X1.550000X-0.650000X1.550000X0.650000X0*%
%ADD16O,3.600000X1.800000*%
G04 APERTURE END LIST*
D10*
%TO.C,H4*%
X382000000Y-101600000D03*
X383697056Y-105697056D03*
X383697056Y-102302944D03*
X384400000Y-104000000D03*
D11*
X382000000Y-104000000D03*
D10*
X382000000Y-106400000D03*
X380302944Y-102302944D03*
X380302944Y-105697056D03*
X379600000Y-104000000D03*
%TD*%
%TO.C,H3*%
X382000000Y-143600000D03*
X383697056Y-147697056D03*
X383697056Y-144302944D03*
X384400000Y-146000000D03*
D11*
X382000000Y-146000000D03*
D10*
X382000000Y-148400000D03*
X380302944Y-144302944D03*
X380302944Y-147697056D03*
X379600000Y-146000000D03*
%TD*%
%TO.C,H2*%
X104000000Y-101600000D03*
X105697056Y-105697056D03*
X105697056Y-102302944D03*
X106400000Y-104000000D03*
D11*
X104000000Y-104000000D03*
D10*
X104000000Y-106400000D03*
X102302944Y-102302944D03*
X102302944Y-105697056D03*
X101600000Y-104000000D03*
%TD*%
%TO.C,H1*%
X104000000Y-143600000D03*
X105697056Y-147697056D03*
X105697056Y-144302944D03*
X106400000Y-146000000D03*
D11*
X104000000Y-146000000D03*
D10*
X104000000Y-148400000D03*
X102302944Y-144302944D03*
X102302944Y-147697056D03*
X101600000Y-146000000D03*
%TD*%
D12*
%TO.C,Comm1*%
X243000000Y-138000000D03*
D13*
X241000000Y-138000000D03*
X239000000Y-138000000D03*
X237000000Y-138000000D03*
%TD*%
D14*
%TO.C,TH10K1*%
X268250000Y-125750000D03*
X270750000Y-125750000D03*
%TD*%
D12*
%TO.C,MCUPower1*%
X262250000Y-135500000D03*
D13*
X260250000Y-135500000D03*
%TD*%
D15*
%TO.C,Battery1*%
X380557500Y-110777500D03*
D16*
X380557500Y-115857500D03*
%TD*%
D14*
%TO.C,TH10K3*%
X268250000Y-135750000D03*
X270750000Y-135750000D03*
%TD*%
%TO.C,TH10K2*%
X268250000Y-132000000D03*
X270750000Y-132000000D03*
%TD*%
M02*
