M48
; DRILL file {KiCad 6.0.8-f2edbf62ab~116~ubuntu22.04.1} date pią, 14 paź 2022, 18:08:26
; FORMAT={-:-/ absolute / metric / decimal}
; #@! TF.CreationDate,2022-10-14T18:08:26+02:00
; #@! TF.GenerationSoftware,Kicad,Pcbnew,6.0.8-f2edbf62ab~116~ubuntu22.04.1
; #@! TF.FileFunction,MixedPlating,1,2
FMAT,2
METRIC
; #@! TA.AperFunction,Plated,PTH,ViaDrill
T1C0.400
; #@! TA.AperFunction,Plated,PTH,ComponentDrill
T2C0.500
; #@! TA.AperFunction,Plated,PTH,ComponentDrill
T3C0.800
; #@! TA.AperFunction,Plated,PTH,ComponentDrill
T4C1.200
; #@! TA.AperFunction,Plated,PTH,ComponentDrill
T5C3.200
%
G90
G05
T1
X105.0Y-115.0
X105.0Y-125.0
X105.0Y-135.0
X111.5Y-105.0
X111.5Y-115.0
X111.75Y-137.75
X112.75Y-123.5
X114.5Y-115.0
X116.5Y-123.5
X119.6Y-145.0
X119.8Y-105.6
X119.8Y-109.2
X120.5Y-115.0
X122.5Y-131.75
X122.5Y-136.0
X123.0Y-112.5
X123.75Y-126.0
X125.5Y-134.5
X126.25Y-112.2
X126.5Y-120.0
X127.5Y-126.0
X128.25Y-112.2
X128.5Y-131.75
X129.2Y-105.6
X129.2Y-109.2
X130.0Y-141.75
X130.0Y-145.0
X131.75Y-115.0
X132.75Y-123.5
X133.0Y-137.5
X133.5Y-129.5
X134.5Y-115.0
X136.25Y-123.5
X137.0Y-102.0
X137.0Y-133.5
X137.25Y-130.75
X139.0Y-114.0
X139.8Y-105.6
X139.8Y-109.2
X140.0Y-141.75
X140.0Y-145.0
X140.5Y-132.0
X140.5Y-136.0
X141.0Y-118.0
X141.75Y-126.0
X143.25Y-112.2
X143.5Y-134.5
X144.45Y-120.0
X145.25Y-126.0
X146.5Y-132.0
X148.25Y-114.0
X150.0Y-105.6
X150.0Y-109.2
X150.75Y-123.5
X151.5Y-137.5
X151.55Y-129.5
X154.25Y-123.5
X154.5Y-138.25
X155.5Y-133.5
X156.0Y-130.75
X156.25Y-140.75
X157.6Y-109.0
X158.0Y-121.0
X158.0Y-123.5
X158.5Y-112.2
X159.0Y-148.0
X160.5Y-132.0
X160.5Y-136.0
X161.75Y-126.0
X163.4Y-112.2
X163.5Y-134.5
X164.0Y-109.0
X164.45Y-120.0
X165.0Y-145.4
X165.25Y-126.0
X166.5Y-132.0
X167.75Y-112.25
X168.25Y-114.0
X170.0Y-109.0
X170.75Y-123.5
X171.0Y-137.5
X171.55Y-129.5
X172.5Y-114.5
X174.25Y-123.5
X175.0Y-133.5
X175.0Y-145.4
X175.25Y-130.75
X177.0Y-109.2
X177.0Y-114.0
X178.5Y-132.0
X178.5Y-136.0
X179.0Y-118.0
X179.75Y-126.0
X181.0Y-102.0
X181.4Y-112.2
X181.5Y-134.5
X183.25Y-126.0
X183.6Y-109.2
X184.5Y-132.0
X185.0Y-104.6
X185.0Y-145.4
X186.5Y-113.75
X187.4Y-112.2
X188.75Y-123.5
X189.25Y-137.75
X189.55Y-129.5
X190.0Y-109.2
X191.25Y-138.0
X192.25Y-123.5
X192.75Y-138.5
X193.5Y-133.5
X194.0Y-130.75
X194.5Y-140.75
X194.8Y-112.2
X195.0Y-104.6
X195.75Y-121.0
X195.75Y-123.5
X195.8Y-109.5
X196.5Y-112.2
X198.25Y-132.0
X198.5Y-136.0
X199.75Y-126.0
X201.0Y-109.5
X201.4Y-112.2
X201.5Y-134.5
X203.0Y-148.0
X203.25Y-126.0
X204.25Y-112.224
X204.5Y-132.0
X205.0Y-104.6
X206.4Y-109.5
X208.75Y-123.5
X209.0Y-137.5
X209.55Y-129.5
X212.25Y-123.5
X213.0Y-133.5
X213.25Y-130.75
X215.0Y-104.6
X215.0Y-114.0
X215.0Y-145.4
X216.5Y-132.0
X216.5Y-136.0
X217.0Y-118.0
X217.75Y-126.0
X219.5Y-112.25
X219.5Y-134.5
X221.25Y-126.0
X222.5Y-132.0
X224.5Y-112.0
X224.5Y-114.0
X225.0Y-102.0
X225.0Y-145.4
X225.5Y-117.75
X227.0Y-137.5
X227.25Y-109.5
X227.55Y-129.5
X230.0Y-104.2
X230.6Y-137.5
X231.0Y-130.8
X231.0Y-133.5
X231.25Y-116.5
X233.5Y-112.25
X233.75Y-132.0
X233.75Y-133.75
X233.751Y-120.976
X233.751Y-121.976
X233.751Y-122.976
X233.751Y-123.976
X233.751Y-124.976
X233.751Y-125.976
X233.752Y-126.977
X233.753Y-127.978
X233.755Y-128.981
X233.765Y-130.991
X233.768Y-129.991
X235.0Y-111.2
X235.0Y-116.5
X235.0Y-118.75
X235.0Y-145.4
X235.25Y-139.25
X237.0Y-133.0
X240.0Y-104.2
X240.25Y-120.0
X240.25Y-123.5
X240.5Y-118.0
X243.0Y-115.0
X243.25Y-120.0
X243.25Y-123.5
X244.0Y-134.0
X244.5Y-136.75
X247.0Y-148.0
X247.5Y-123.25
X247.5Y-127.25
X247.513Y-128.262
X247.75Y-137.8
X248.5Y-130.5
X249.0Y-111.2
X249.0Y-116.75
X249.5Y-130.5
X250.0Y-104.2
X250.0Y-137.8
X250.25Y-131.5
X250.5Y-128.25
X250.75Y-120.0
X250.75Y-121.25
X251.75Y-119.25
X253.0Y-119.25
X253.25Y-136.0
X254.5Y-124.75
X254.5Y-126.25
X254.5Y-128.75
X254.5Y-130.25
X254.75Y-116.25
X254.75Y-117.5
X255.0Y-145.4
X255.25Y-123.75
X255.6Y-111.2
X256.0Y-120.0
X256.0Y-121.25
X260.0Y-104.2
X262.0Y-120.75
X262.5Y-113.0
X262.5Y-115.0
X263.75Y-118.25
X264.0Y-136.0
X264.25Y-126.0
X264.25Y-128.25
X264.25Y-129.5
X264.25Y-130.75
X264.25Y-132.0
X264.25Y-134.0
X265.0Y-145.4
X265.5Y-123.5
X266.25Y-133.0
X266.5Y-113.0
X266.5Y-115.0
X269.0Y-102.0
X270.5Y-113.0
X270.5Y-115.0
X270.5Y-117.0
X270.5Y-119.0
X270.5Y-138.75
X271.5Y-138.0
X272.0Y-104.5
X272.25Y-109.25
X272.25Y-110.5
X274.5Y-110.5
X275.0Y-145.4
X275.25Y-109.25
X279.0Y-125.0
X279.0Y-128.0
X279.0Y-131.0
X279.0Y-134.0
X279.0Y-137.0
X279.0Y-140.0
X281.0Y-125.0
X281.0Y-128.0
X281.0Y-131.0
X281.0Y-134.0
X281.0Y-137.0
X281.0Y-140.0
X284.0Y-125.0
X284.0Y-128.0
X284.0Y-131.0
X284.0Y-134.0
X284.0Y-137.0
X284.0Y-140.0
X286.0Y-125.0
X286.0Y-128.0
X286.0Y-131.0
X286.0Y-134.0
X286.0Y-137.0
X286.0Y-140.0
X291.0Y-148.0
X300.0Y-145.4
X304.0Y-111.0
X304.0Y-112.7
X304.0Y-116.0
X304.0Y-118.0
X307.0Y-111.0
X307.0Y-112.7
X307.0Y-116.0
X307.0Y-118.0
X310.0Y-111.0
X310.0Y-112.7
X310.0Y-116.0
X310.0Y-118.0
X310.0Y-145.4
X313.0Y-102.0
X314.25Y-112.75
X314.25Y-116.0
X315.75Y-122.25
X318.5Y-108.75
X320.0Y-145.4
X321.25Y-122.25
X323.75Y-108.75
X327.25Y-107.75
X335.0Y-104.6
X335.0Y-122.0
X335.0Y-124.0
X335.0Y-148.0
X338.0Y-122.0
X338.0Y-124.0
X341.0Y-122.0
X341.0Y-124.0
X344.0Y-122.0
X344.0Y-124.0
X345.0Y-104.6
X347.0Y-122.0
X347.0Y-124.0
X350.0Y-122.0
X350.0Y-124.0
X353.0Y-122.0
X353.0Y-124.0
X356.0Y-122.0
X356.0Y-124.0
X356.8Y-101.6
X359.0Y-122.0
X359.0Y-124.0
X360.0Y-106.0
X362.0Y-122.0
X362.0Y-123.966
X365.0Y-122.0
X365.0Y-123.966
X368.0Y-122.0
X368.0Y-123.966
X369.0Y-106.0
X371.0Y-122.0
X371.0Y-124.0
X371.25Y-116.5
X374.0Y-122.0
X374.0Y-124.0
X377.0Y-122.0
X377.0Y-124.0
T2
X101.6Y-104.0
X101.6Y-146.0
X102.303Y-102.303
X102.303Y-105.697
X102.303Y-144.303
X102.303Y-147.697
X104.0Y-101.6
X104.0Y-106.4
X104.0Y-143.6
X104.0Y-148.4
X105.697Y-102.303
X105.697Y-105.697
X105.697Y-144.303
X105.697Y-147.697
X106.4Y-104.0
X106.4Y-146.0
X379.6Y-104.0
X379.6Y-146.0
X380.303Y-102.303
X380.303Y-105.697
X380.303Y-144.303
X380.303Y-147.697
X382.0Y-101.6
X382.0Y-106.4
X382.0Y-143.6
X382.0Y-148.4
X383.697Y-102.303
X383.697Y-105.697
X383.697Y-144.303
X383.697Y-147.697
X384.4Y-104.0
X384.4Y-146.0
T3
X237.0Y-138.0
X239.0Y-138.0
X241.0Y-138.0
X243.0Y-138.0
X260.25Y-135.5
X262.25Y-135.5
X268.25Y-125.75
X268.25Y-132.0
X268.25Y-135.75
X270.75Y-125.75
X270.75Y-132.0
X270.75Y-135.75
T4
X380.558Y-110.777
X380.558Y-115.858
T5
X104.0Y-104.0
X104.0Y-146.0
X382.0Y-104.0
X382.0Y-146.0
T0
M30
